<svg width="48" height="48" viewBox="0 0 48 48" fill="none" xmlns="http://www.w3.org/2000/svg">
<path d="M0 8C0 3.58172 3.58172 0 8 0H40C44.4183 0 48 3.58172 48 8V40C48 44.4183 44.4183 48 40 48H8C3.58172 48 0 44.4183 0 40V8Z" fill="#4A6117"/>
<path d="M15.8492 20.6191C15.7033 19.9616 15.7257 19.278 15.9144 18.6315C16.1031 17.985 16.452 17.3966 16.9287 16.9208C17.4054 16.4451 17.9945 16.0975 18.6414 15.9101C19.2883 15.7228 19.972 15.7018 20.6292 15.8491C20.9909 15.2834 21.4892 14.8179 22.0782 14.4954C22.6671 14.1729 23.3278 14.0039 23.9992 14.0039C24.6707 14.0039 25.3313 14.1729 25.9203 14.4954C26.5092 14.8179 27.0075 15.2834 27.3692 15.8491C28.0274 15.7011 28.7123 15.722 29.3602 15.9098C30.0081 16.0976 30.598 16.4463 31.0751 16.9233C31.5521 17.4003 31.9007 17.9902 32.0885 18.6381C32.2763 19.2861 32.2972 19.971 32.1492 20.6291C32.7149 20.9908 33.1805 21.4891 33.5029 22.0781C33.8254 22.667 33.9944 23.3277 33.9944 23.9991C33.9944 24.6706 33.8254 25.3312 33.5029 25.9202C33.1805 26.5091 32.7149 27.0074 32.1492 27.3691C32.2966 28.0263 32.2756 28.71 32.0882 29.3569C31.9009 30.0038 31.5532 30.5929 31.0775 31.0697C30.6018 31.5464 30.0134 31.8953 29.3669 32.084C28.7204 32.2727 28.0367 32.2951 27.3792 32.1491C27.018 32.717 26.5193 33.1845 25.9293 33.5084C25.3394 33.8324 24.6772 34.0022 24.0042 34.0022C23.3312 34.0022 22.669 33.8324 22.0791 33.5084C21.4891 33.1845 20.9905 32.717 20.6292 32.1491C19.972 32.2965 19.2883 32.2755 18.6414 32.0881C17.9945 31.9008 17.4054 31.5531 16.9287 31.0774C16.452 30.6017 16.1031 30.0133 15.9144 29.3668C15.7257 28.7203 15.7033 28.0366 15.8492 27.3791C15.2792 27.0184 14.8096 26.5193 14.4843 25.9283C14.1589 25.3374 13.9883 24.6737 13.9883 23.9991C13.9883 23.3245 14.1589 22.6609 14.4843 22.0699C14.8096 21.4789 15.2792 20.9799 15.8492 20.6191Z" stroke="white" stroke-width="2" stroke-linecap="round" stroke-linejoin="round"/>
<path d="M28 20H22C21.4696 20 20.9609 20.2107 20.5858 20.5858C20.2107 20.9609 20 21.4696 20 22C20 22.5304 20.2107 23.0391 20.5858 23.4142C20.9609 23.7893 21.4696 24 22 24H26C26.5304 24 27.0391 24.2107 27.4142 24.5858C27.7893 24.9609 28 25.4696 28 26C28 26.5304 27.7893 27.0391 27.4142 27.4142C27.0391 27.7893 26.5304 28 26 28H20" stroke="white" stroke-width="2" stroke-linecap="round" stroke-linejoin="round"/>
<path d="M24 30V18" stroke="white" stroke-width="2" stroke-linecap="round" stroke-linejoin="round"/>
</svg>
