<svg width="48" height="48" viewBox="0 0 48 48" fill="none" xmlns="http://www.w3.org/2000/svg">
<path d="M0 8C0 3.58172 3.58172 0 8 0H40C44.4183 0 48 3.58172 48 8V40C48 44.4183 44.4183 48 40 48H8C3.58172 48 0 44.4183 0 40V8Z" fill="#4A6117"/>
<path d="M18.002 14L15.002 18V32C15.002 32.5304 15.2127 33.0391 15.5877 33.4142C15.9628 33.7893 16.4715 34 17.002 34H31.002C31.5324 34 32.0411 33.7893 32.4162 33.4142C32.7912 33.0391 33.002 32.5304 33.002 32V18L30.002 14H18.002Z" stroke="white" stroke-width="2" stroke-linecap="round" stroke-linejoin="round"/>
<path d="M15.002 18H33.002" stroke="white" stroke-width="2" stroke-linecap="round" stroke-linejoin="round"/>
<path d="M28 22C28 23.0609 27.5786 24.0783 26.8284 24.8284C26.0783 25.5786 25.0609 26 24 26C22.9391 26 21.9217 25.5786 21.1716 24.8284C20.4214 24.0783 20 23.0609 20 22" stroke="white" stroke-width="2" stroke-linecap="round" stroke-linejoin="round"/>
</svg>
