<svg width="48" height="48" viewBox="0 0 48 48" fill="none" xmlns="http://www.w3.org/2000/svg">
<path d="M0 8C0 3.58172 3.58172 0 8 0H40C44.4183 0 48 3.58172 48 8V40C48 44.4183 44.4183 48 40 48H8C3.58172 48 0 44.4183 0 40V8Z" fill="#4A6117"/>
<path d="M15.002 26.002H18.002C18.5324 26.002 19.0411 26.2127 19.4162 26.5877C19.7912 26.9628 20.002 27.4715 20.002 28.002V31.002C20.002 31.5324 19.7912 32.0411 19.4162 32.4162C19.0411 32.7912 18.5324 33.002 18.002 33.002H17.002C16.4715 33.002 15.9628 32.7912 15.5877 32.4162C15.2127 32.0411 15.002 31.5324 15.002 31.002V24.002C15.002 21.615 15.9502 19.3258 17.638 17.638C19.3258 15.9502 21.615 15.002 24.002 15.002C26.3889 15.002 28.6781 15.9502 30.3659 17.638C32.0537 19.3258 33.002 21.615 33.002 24.002V31.002C33.002 31.5324 32.7912 32.0411 32.4162 32.4162C32.0411 32.7912 31.5324 33.002 31.002 33.002H30.002C29.4715 33.002 28.9628 32.7912 28.5877 32.4162C28.2127 32.0411 28.002 31.5324 28.002 31.002V28.002C28.002 27.4715 28.2127 26.9628 28.5877 26.5877C28.9628 26.2127 29.4715 26.002 30.002 26.002H33.002" stroke="white" stroke-width="2" stroke-linecap="round" stroke-linejoin="round"/>
</svg>
