<svg width="48" height="48" viewBox="0 0 48 48" fill="none" xmlns="http://www.w3.org/2000/svg">
<path d="M0 8C0 3.58172 3.58172 0 8 0H40C44.4183 0 48 3.58172 48 8V40C48 44.4183 44.4183 48 40 48H8C3.58172 48 0 44.4183 0 40V8Z" fill="#4A6117"/>
<path d="M29.798 31.2L27.998 23L31.498 19.5C32.998 18 33.498 16 32.998 15C31.998 14.5 29.998 15 28.498 16.5L24.998 20L16.798 18.2C16.298 18.1 15.898 18.3 15.698 18.7L15.398 19.2C15.198 19.7 15.298 20.2 15.698 20.5L20.998 24L18.998 27H15.998L14.998 28L17.998 30L19.998 33L20.998 32V29L23.998 27L27.498 32.3C27.798 32.7 28.298 32.8 28.798 32.6L29.298 32.4C29.698 32.1 29.898 31.7 29.798 31.2Z" stroke="white" stroke-width="2" stroke-linecap="round" stroke-linejoin="round"/>
</svg>
