<svg width="48" height="48" viewBox="0 0 48 48" fill="none" xmlns="http://www.w3.org/2000/svg">
<path d="M0 8C0 3.58172 3.58172 0 8 0H40C44.4183 0 48 3.58172 48 8V40C48 44.4183 44.4183 48 40 48H8C3.58172 48 0 44.4183 0 40V8Z" fill="#4A6117"/>
<path d="M24 20C28.9706 20 33 18.6569 33 17C33 15.3431 28.9706 14 24 14C19.0294 14 15 15.3431 15 17C15 18.6569 19.0294 20 24 20Z" stroke="white" stroke-width="2" stroke-linecap="round" stroke-linejoin="round"/>
<path d="M15 17V31C15 31.7956 15.9482 32.5587 17.636 33.1213C19.3239 33.6839 21.6131 34 24 34C26.3869 34 28.6761 33.6839 30.364 33.1213C32.0518 32.5587 33 31.7956 33 31V17" stroke="white" stroke-width="2" stroke-linecap="round" stroke-linejoin="round"/>
<path d="M15 24C15 24.7956 15.9482 25.5587 17.636 26.1213C19.3239 26.6839 21.6131 27 24 27C26.3869 27 28.6761 26.6839 30.364 26.1213C32.0518 25.5587 33 24.7956 33 24" stroke="white" stroke-width="2" stroke-linecap="round" stroke-linejoin="round"/>
</svg>
