<svg width="48" height="48" viewBox="0 0 48 48" fill="none" xmlns="http://www.w3.org/2000/svg">
<path d="M0 8C0 3.58172 3.58172 0 8 0H40C44.4183 0 48 3.58172 48 8V40C48 44.4183 44.4183 48 40 48H8C3.58172 48 0 44.4183 0 40V8Z" fill="#4A6117"/>
<path d="M33.002 22.502V31.002C33.002 31.5324 32.7912 32.0411 32.4162 32.4162C32.0411 32.7912 31.5324 33.002 31.002 33.002H17.002C16.4715 33.002 15.9628 32.7912 15.5877 32.4162C15.2127 32.0411 15.002 31.5324 15.002 31.002V17.002C15.002 16.4715 15.2127 15.9628 15.5877 15.5877C15.9628 15.2127 16.4715 15.002 17.002 15.002H29.502" stroke="white" stroke-width="2" stroke-linecap="round" stroke-linejoin="round"/>
<path d="M21 23L24 26L34 16" stroke="white" stroke-width="2" stroke-linecap="round" stroke-linejoin="round"/>
</svg>
