<svg width="48" height="48" viewBox="0 0 48 48" fill="none" xmlns="http://www.w3.org/2000/svg">
<path d="M0 8C0 3.58172 3.58172 0 8 0H40C44.4183 0 48 3.58172 48 8V40C48 44.4183 44.4183 48 40 48H8C3.58172 48 0 44.4183 0 40V8Z" fill="#4A6117"/>
<path d="M28.002 25.0012L33.225 28.4832C33.3002 28.5333 33.3877 28.5621 33.4781 28.5664C33.5684 28.5707 33.6582 28.5505 33.738 28.5078C33.8177 28.4651 33.8843 28.4016 33.9308 28.324C33.9773 28.2464 34.0019 28.1577 34.002 28.0672V19.8712C34.002 19.7833 33.9788 19.6968 33.9347 19.6207C33.8907 19.5445 33.8273 19.4814 33.751 19.4375C33.6747 19.3937 33.5882 19.3708 33.5003 19.3711C33.4123 19.3714 33.3259 19.3949 33.25 19.4392L28.002 22.5012" stroke="white" stroke-width="2" stroke-linecap="round" stroke-linejoin="round"/>
<path d="M26 18H16C14.8954 18 14 18.8954 14 20V28C14 29.1046 14.8954 30 16 30H26C27.1046 30 28 29.1046 28 28V20C28 18.8954 27.1046 18 26 18Z" stroke="white" stroke-width="2" stroke-linecap="round" stroke-linejoin="round"/>
</svg>
