<svg width="36" height="36" viewBox="0 0 36 36" fill="none" xmlns="http://www.w3.org/2000/svg">
<path d="M18.0569 0.000932628C8.19649 -0.100037 0 8.0107 0 17.8711C0 25.5503 4.84514 32.0981 11.6447 34.6251V28.4065C8.04434 26.2737 5.63214 22.3511 5.63353 17.8628C5.63768 11.2085 11.0416 5.72713 17.6959 5.63446C24.5341 5.53902 30.1068 11.0536 30.1068 17.8711C30.1068 22.3552 27.6946 26.2751 24.0971 28.4065V34.6251C30.8966 32.0981 35.7417 25.5503 35.7417 17.8711C35.7417 8.06325 27.8398 0.100519 18.0569 0.000932628Z" fill="#41AC49"/>
<path d="M12.6133 34.8919V26.2169C12.6133 25.6069 13.1084 25.1104 13.7198 25.1104H22.0228C22.6341 25.1104 23.1293 25.6069 23.1293 26.2169V34.8919C23.1293 35.5033 22.6341 35.9984 22.0228 35.9984H13.7198C13.1084 35.9984 12.6133 35.5033 12.6133 34.8919Z" fill="#41AC49"/>
<path d="M14.2773 13.3445V9.65428C14.2773 9.60448 14.3092 9.57129 14.3589 9.57129H14.7227C14.7725 9.57129 14.8057 9.60448 14.8057 9.65428V13.3445C14.8057 13.3943 14.7725 13.4275 14.7227 13.4275H14.3589C14.3092 13.4275 14.2773 13.3943 14.2773 13.3445Z" fill="black"/>
<path d="M15.5332 12.3974V12.2646C15.5332 12.2162 15.5664 12.183 15.6162 12.183H15.9689C16.0187 12.183 16.0519 12.2162 16.0519 12.2646V12.3697C16.0519 12.7335 16.388 13.0142 16.9385 13.0142C17.4613 13.0142 17.7047 12.7667 17.7047 12.4361C17.7047 12.0889 17.406 11.9354 16.7628 11.6754C16.1335 11.4333 15.583 11.2134 15.583 10.5412C15.583 9.90217 16.074 9.52734 16.8389 9.52734C17.666 9.52734 18.1999 9.96857 18.1999 10.6242V10.7058C18.1999 10.7556 18.1667 10.7888 18.1169 10.7888H17.7587C17.7089 10.7888 17.6771 10.7611 17.6771 10.7168V10.6518C17.6771 10.2825 17.3742 9.98516 16.8168 9.98516C16.3603 9.98516 16.1017 10.1774 16.1017 10.5301C16.1017 10.8994 16.388 11.0198 17.0381 11.2687C17.6494 11.5052 18.2331 11.7473 18.2331 12.4195C18.2331 13.0474 17.731 13.4721 16.8997 13.4721C16.0685 13.4721 15.5332 13.0474 15.5332 12.3974Z" fill="black"/>
<path fill-rule="evenodd" clip-rule="evenodd" d="M18.8457 12.1553V10.8441C18.8457 10.0571 19.3907 9.52734 20.2053 9.52734C21.0269 9.52734 21.5719 10.0571 21.5719 10.8441V12.1553C21.5719 12.9478 21.0269 13.4776 20.2053 13.4776C19.3907 13.4776 18.8457 12.9478 18.8457 12.1553ZM21.0435 12.1774V10.8386C21.0435 10.3268 20.7074 9.98516 20.2053 9.98516C19.7102 9.98516 19.3741 10.3268 19.3741 10.8386V12.1774C19.3741 12.6837 19.7102 13.0198 20.2053 13.0198C20.7074 13.0198 21.0435 12.6837 21.0435 12.1774Z" fill="black"/>
<path d="M14.2773 13.3445V9.65428C14.2773 9.60448 14.3092 9.57129 14.3589 9.57129H14.7227C14.7725 9.57129 14.8057 9.60448 14.8057 9.65428V13.3445C14.8057 13.3943 14.7725 13.4275 14.7227 13.4275H14.3589C14.3092 13.4275 14.2773 13.3943 14.2773 13.3445Z" fill="#2E343D"/>
<path d="M15.5332 12.3974V12.2646C15.5332 12.2162 15.5664 12.183 15.6162 12.183H15.9689C16.0187 12.183 16.0519 12.2162 16.0519 12.2646V12.3697C16.0519 12.7335 16.388 13.0142 16.9385 13.0142C17.4613 13.0142 17.7047 12.7667 17.7047 12.4361C17.7047 12.0889 17.406 11.9354 16.7628 11.6754C16.1335 11.4333 15.583 11.2134 15.583 10.5412C15.583 9.90217 16.074 9.52734 16.8389 9.52734C17.666 9.52734 18.1999 9.96857 18.1999 10.6242V10.7058C18.1999 10.7556 18.1667 10.7888 18.1169 10.7888H17.7587C17.7089 10.7888 17.6771 10.7611 17.6771 10.7168V10.6518C17.6771 10.2825 17.3742 9.98516 16.8168 9.98516C16.3603 9.98516 16.1017 10.1774 16.1017 10.5301C16.1017 10.8994 16.388 11.0198 17.0381 11.2687C17.6494 11.5052 18.2331 11.7473 18.2331 12.4195C18.2331 13.0474 17.731 13.4721 16.8997 13.4721C16.0685 13.4721 15.5332 13.0474 15.5332 12.3974Z" fill="#2E343D"/>
<path fill-rule="evenodd" clip-rule="evenodd" d="M18.8457 12.1553V10.8441C18.8457 10.0571 19.3907 9.52734 20.2053 9.52734C21.0269 9.52734 21.5719 10.0571 21.5719 10.8441V12.1553C21.5719 12.9478 21.0269 13.4776 20.2053 13.4776C19.3907 13.4776 18.8457 12.9478 18.8457 12.1553ZM21.0435 12.1774V10.8386C21.0435 10.3268 20.7074 9.98516 20.2053 9.98516C19.7102 9.98516 19.3741 10.3268 19.3741 10.8386V12.1774C19.3741 12.6837 19.7102 13.0198 20.2053 13.0198C20.7074 13.0198 21.0435 12.6837 21.0435 12.1774Z" fill="#2E343D"/>
<path d="M9.5722 14.7773H10.4546C10.5404 14.7773 10.5874 14.8244 10.5874 14.9101V20.1107C10.5874 20.1965 10.5404 20.2435 10.4546 20.2435H9.61923C9.53347 20.2435 9.48645 20.1965 9.48645 20.1107V15.8548C9.48645 15.8244 9.46293 15.8009 9.43112 15.8078L8.74508 15.9489C8.65933 15.9641 8.5957 15.9184 8.5957 15.8313V15.2379C8.5957 15.1688 8.62752 15.1134 8.69806 15.0899L9.40899 14.8092C9.46293 14.7856 9.50996 14.7773 9.5722 14.7773Z" fill="#2E343D"/>
<path d="M15.375 18.2592V18.9701C15.375 19.0559 15.328 19.1029 15.2422 19.1029H14.9601C14.9296 19.1029 14.9144 19.1186 14.9144 19.1499V20.1112C14.9144 20.197 14.8674 20.244 14.7817 20.244H13.9462C13.8591 20.244 13.8135 20.197 13.8135 20.1112V19.1499C13.8135 19.1186 13.7978 19.1029 13.7664 19.1029H11.4082C11.3224 19.1029 11.2754 19.0559 11.2754 18.9701V18.4086C11.2754 18.3449 11.2823 18.3062 11.3058 18.244L12.6959 15.1443C12.7277 15.0821 12.7816 15.042 12.8522 15.042H13.7429C13.8439 15.042 13.8826 15.1125 13.8439 15.1983L12.5631 18.0725C12.5479 18.1112 12.5714 18.1264 12.6018 18.1264H13.7664C13.7978 18.1264 13.8135 18.1107 13.8135 18.0794V16.6298C13.8135 16.5441 13.8591 16.4971 13.9462 16.4971H14.7817C14.8674 16.4971 14.9144 16.5441 14.9144 16.6298V18.0794C14.9144 18.1029 14.9296 18.1264 14.9601 18.1264H15.2422C15.328 18.1264 15.375 18.1734 15.375 18.2592Z" fill="#2E343D"/>
<path fill-rule="evenodd" clip-rule="evenodd" d="M16.0996 18.5406V16.4797C16.0996 15.394 16.8105 14.7148 17.9585 14.7148C19.1066 14.7148 19.8244 15.394 19.8244 16.4797V18.5406C19.8244 19.6416 19.1066 20.329 17.9585 20.329C16.8105 20.329 16.0996 19.6416 16.0996 18.5406ZM18.7234 18.5959V16.4479C18.7234 15.9638 18.4274 15.6595 17.9585 15.6595C17.498 15.6595 17.202 15.9638 17.202 16.4479V18.5959C17.202 19.08 17.498 19.3843 17.9585 19.3843C18.4274 19.3843 18.7234 19.08 18.7234 18.5959Z" fill="#2E343D"/>
<path fill-rule="evenodd" clip-rule="evenodd" d="M20.5488 18.5406V16.4797C20.5488 15.394 21.2598 14.7148 22.4078 14.7148C23.5558 14.7148 24.2736 15.394 24.2736 16.4797V18.5406C24.2736 19.6416 23.5558 20.329 22.4078 20.329C21.2598 20.329 20.5488 19.6416 20.5488 18.5406ZM23.1726 18.5959V16.4479C23.1726 15.9638 22.8767 15.6595 22.4078 15.6595C21.9472 15.6595 21.6498 15.9638 21.6498 16.4479V18.5959C21.6498 19.08 21.9472 19.3843 22.4078 19.3843C22.8767 19.3843 23.1726 19.08 23.1726 18.5959Z" fill="#2E343D"/>
<path d="M25.7597 14.7773H26.6421C26.7279 14.7773 26.7749 14.8244 26.7749 14.9101V20.1107C26.7749 20.1965 26.7279 20.2435 26.6421 20.2435H25.8067C25.721 20.2435 25.6739 20.1965 25.6739 20.1107V15.8548C25.6739 15.8244 25.6504 15.8009 25.6186 15.8078L24.9312 15.9489C24.8454 15.9641 24.7832 15.9184 24.7832 15.8313V15.2379C24.7832 15.1688 24.815 15.1134 24.8856 15.0899L25.5951 14.8092C25.6504 14.7856 25.6975 14.7773 25.7597 14.7773Z" fill="#2E343D"/>
<path d="M17.2757 33.3957C17.0876 33.3957 16.9437 33.2449 16.8511 33.1315C16.0793 32.1896 15.5426 31.8742 15.2231 31.6847C14.9811 31.5423 14.6422 31.4302 14.71 31.1384C14.7238 31.0817 14.7307 31.0263 14.7473 30.9738C14.8538 30.6197 15.0862 30.2628 15.3849 30.296C15.508 30.3085 15.6754 30.3638 15.8635 30.462C16.4569 30.7705 16.7363 31.1425 16.9451 31.4081C17.0876 31.1688 17.385 30.7151 17.9396 30.0139C19.2882 28.3126 20.6187 27.5989 20.8719 27.4731C20.9115 27.4528 20.9539 27.4412 20.9991 27.4385H21.0198C21.1554 27.4385 21.1526 27.5201 21.2052 27.6459C21.2564 27.7718 21.349 27.9143 21.2522 28.0097C20.9728 28.2836 20.4721 28.8161 19.6796 29.7967C18.8898 30.7732 18.4375 31.6847 18.107 32.35C17.7722 33.0236 17.7363 33.3957 17.4237 33.3957H17.2757Z" fill="white"/>
<path d="M6.20193 27.253L6.76348 27.8892L7.24067 27.4688L6.58367 26.7246L6.79806 26.5352L7.69295 27.5476L6.14384 28.9155L5.25586 27.9114L5.47301 27.7191L6.12309 28.455L6.55048 28.0774L5.98892 27.4411L6.20193 27.253Z" fill="white"/>
<path d="M5.55697 24.7012L5.75061 25.0027L5.01616 26.5712L6.24992 25.7773L6.44356 26.0788L4.70495 27.1977L4.51131 26.8948L5.24991 25.3222L4.012 26.1175L3.81836 25.8187L5.55697 24.7012Z" fill="white"/>
<path d="M4.53285 23.5985L2.84127 23.7631L2.68359 23.4007L4.87449 23.2568L5.01419 23.5763L3.41528 25.0812L3.25898 24.7202L4.53285 23.5985Z" fill="white"/>
<path d="M4.32302 21.6846L4.42537 22.0276L2.4461 22.621L2.34375 22.2779L4.32302 21.6846Z" fill="white"/>
<path fill-rule="evenodd" clip-rule="evenodd" d="M3.20144 20.3443L3.2706 20.7385L4.05484 20.6001L4.11708 20.9542L2.0811 21.3125L1.95524 20.596C1.93495 20.4798 1.93034 20.3738 1.9414 20.2779C1.95155 20.182 1.9769 20.0981 2.01748 20.0261C2.05805 19.9542 2.11383 19.8952 2.18483 19.8491C2.25584 19.803 2.34159 19.7707 2.4421 19.7523C2.57765 19.7292 2.69706 19.7421 2.80033 19.791C2.90361 19.8408 2.99029 19.9201 3.06036 20.0289L3.82939 19.4231L3.84737 19.4189L3.91376 19.7979L3.20144 20.3443ZM2.98706 20.7883L2.92343 20.4259C2.91237 20.3622 2.89439 20.3078 2.86949 20.2627C2.84367 20.2184 2.81324 20.1829 2.7782 20.1562C2.74224 20.1303 2.70259 20.1128 2.65925 20.1036C2.61592 20.0953 2.56935 20.0953 2.51956 20.1036C2.467 20.1128 2.42089 20.129 2.38124 20.152C2.34159 20.1741 2.30932 20.2032 2.28442 20.2391C2.25952 20.2751 2.24339 20.3184 2.23601 20.3692C2.22772 20.4199 2.22956 20.4789 2.24154 20.5462L2.30517 20.9086L2.98706 20.7883Z" fill="white"/>
<path fill-rule="evenodd" clip-rule="evenodd" d="M2.79125 17.2552C2.948 17.2524 3.08908 17.2704 3.21449 17.3091C3.33989 17.3488 3.44639 17.405 3.53399 17.4778C3.62159 17.5507 3.68983 17.6392 3.7387 17.7434C3.78665 17.8476 3.812 17.9638 3.81477 18.092C3.81662 18.2183 3.79541 18.3345 3.75115 18.4405C3.70689 18.5465 3.64234 18.6383 3.55751 18.7158C3.47175 18.7932 3.36709 18.8545 3.24353 18.8997C3.11997 18.944 2.97982 18.9675 2.82306 18.9703L2.71794 18.9716C2.56119 18.9744 2.41964 18.956 2.29332 18.9163C2.16791 18.8767 2.06095 18.82 1.97243 18.7462C1.88391 18.6733 1.81567 18.5848 1.76773 18.4806C1.71885 18.3764 1.69349 18.2607 1.69165 18.1335C1.68888 18.0062 1.70963 17.8891 1.75389 17.7821C1.79908 17.6761 1.86454 17.5848 1.9503 17.5083C2.03513 17.4308 2.13979 17.3704 2.26427 17.3271C2.38875 17.2837 2.52937 17.2607 2.68613 17.2579L2.79125 17.2552ZM2.69028 17.6162C2.57502 17.618 2.47313 17.6309 2.3846 17.6549C2.29701 17.6789 2.2237 17.7125 2.16469 17.7559C2.10567 17.8001 2.06141 17.8536 2.03191 17.9163C2.0024 17.9781 1.98811 18.0486 1.98903 18.1279C1.99087 18.2045 2.00793 18.2731 2.0402 18.334C2.07156 18.3949 2.11766 18.446 2.17852 18.4875C2.23845 18.53 2.31314 18.5618 2.40259 18.583C2.49111 18.6051 2.593 18.6148 2.70826 18.612L2.81614 18.6106C2.93141 18.6079 3.0333 18.5945 3.12182 18.5705C3.21034 18.5456 3.28457 18.5106 3.3445 18.4654C3.40352 18.4211 3.44778 18.3677 3.47728 18.305C3.50679 18.2423 3.52063 18.1726 3.51878 18.0961C3.51601 17.9375 3.45331 17.8163 3.33067 17.7323C3.20803 17.6494 3.03053 17.6097 2.79816 17.6134L2.69028 17.6162Z" fill="white"/>
<path d="M4.04837 14.9874L3.9972 15.3429L2.41351 16.0441L3.86442 16.2544L3.81324 16.6098L1.76758 16.3138L1.81875 15.9584L3.40798 15.2557L1.95153 15.0441L2.00271 14.6914L4.04837 14.9874Z" fill="white"/>
<path d="M2.37594 13.2224L4.06752 13.167L2.75907 12.0951L2.90845 11.6553L4.86559 12.3192L4.75079 12.658L4.10486 12.4395L3.25423 12.1131L4.56545 13.203L4.48246 13.4464L2.77982 13.5114L3.65396 13.7701L4.2985 13.9886L4.1837 14.3275L2.22656 13.6636L2.37594 13.2224Z" fill="white"/>
<path d="M4.94226 10.2006L4.537 10.9475L5.09717 11.2504L5.56882 10.3777L5.82194 10.5146L5.17739 11.7027L3.36133 10.7179L4.00034 9.53809L4.25484 9.6764L3.78595 10.5395L4.28803 10.812L4.69191 10.0664L4.94226 10.2006Z" fill="white"/>
<path d="M7.11673 8.72358L6.89958 9.00989L5.17481 8.85775L6.34356 9.74434L6.1264 10.0293L4.48047 8.78029L4.69624 8.49398L6.42793 8.64751L5.25503 7.75815L5.4708 7.47461L7.11673 8.72358Z" fill="white"/>
<path d="M7.40381 5.91979L6.94046 6.36793L8.17699 7.64457L7.91973 7.89215L6.68458 6.61551L6.22538 7.0595L6.02344 6.85064L7.20188 5.71094L7.40381 5.91979Z" fill="white"/>
<path fill-rule="evenodd" clip-rule="evenodd" d="M9.59489 5.87685L8.94758 6.34712L9.09558 6.83536L8.79405 7.0539L8.20898 4.92386L8.46902 4.73438L10.3183 5.946L10.014 6.16592L9.59489 5.87685ZM8.85906 6.05389L9.34316 5.70257L8.59765 5.18528L8.85906 6.05389Z" fill="white"/>
<path d="M10.9597 5.27209L11.791 4.83502L11.9237 5.08952L10.7757 5.69257L9.81445 3.86267L10.1326 3.69531L10.9597 5.27209Z" fill="white"/>
<path d="M13.3931 2.35823L14.3461 3.75658L14.5494 2.07745L15.0003 1.9668L15.4886 3.97512L15.1414 4.05949L14.981 3.39835L14.7998 2.50345L14.5826 4.19642L14.3337 4.25589L13.3655 2.85477L13.6144 3.7303L13.7763 4.39144L13.4291 4.4772L12.9395 2.46888L13.3931 2.35823Z" fill="white"/>
<path fill-rule="evenodd" clip-rule="evenodd" d="M17.3137 3.34973L16.5143 3.39676L16.376 3.88777L16.0039 3.9099L16.6609 1.80061L16.9832 1.78125L17.885 3.79787L17.5115 3.82L17.3137 3.34973ZM16.5973 3.10215L17.1962 3.06757L16.8462 2.22939L16.5973 3.10215Z" fill="white"/>
<path d="M20.0233 3.98304L19.6665 3.94708L18.8974 2.3952L18.7494 3.85441L18.3926 3.81845L18.6014 1.76172L18.9583 1.79906L19.7287 3.35648L19.8781 1.89173L20.2322 1.9277L20.0233 3.98304Z" fill="white"/>
<path fill-rule="evenodd" clip-rule="evenodd" d="M21.9752 3.95762L21.202 3.74876L20.9143 4.16785L20.5547 4.07103L21.8493 2.28125L22.1605 2.36562L22.3735 4.56481L22.0111 4.46661L21.9752 3.95762ZM21.3763 3.49426L21.9544 3.65194L21.8894 2.74599L21.3763 3.49426Z" fill="white"/>
<path d="M24.3733 5.14606C24.3419 5.16266 24.3014 5.1788 24.2516 5.19447C24.2027 5.21015 24.1442 5.21891 24.0759 5.22075C24.0077 5.2226 23.9307 5.21522 23.8449 5.19862C23.7583 5.18202 23.6624 5.15021 23.5573 5.10318C23.4392 5.0497 23.3396 4.98055 23.2585 4.89571C23.1783 4.80996 23.1202 4.71314 23.0842 4.60525C23.0483 4.49645 23.0358 4.37704 23.0469 4.24702C23.0579 4.11701 23.0962 3.98007 23.1617 3.83623L23.217 3.71175C23.2815 3.56882 23.3572 3.44895 23.4438 3.35213C23.5296 3.25531 23.6232 3.18339 23.7246 3.13636C23.826 3.08841 23.9339 3.06582 24.0483 3.06859C24.1626 3.07135 24.2802 3.09994 24.401 3.15434C24.5162 3.20598 24.6098 3.26591 24.6817 3.33415C24.7537 3.40238 24.8067 3.47661 24.8408 3.55683C24.8758 3.63706 24.8934 3.72143 24.8934 3.80995C24.8943 3.89939 24.8805 3.99022 24.8519 4.08243L24.531 3.93858C24.5448 3.88602 24.5522 3.83485 24.5531 3.78505C24.554 3.73526 24.5453 3.68823 24.5268 3.64397C24.5093 3.59971 24.4812 3.55868 24.4425 3.52087C24.4047 3.48214 24.3539 3.44849 24.2903 3.4199C24.2129 3.38486 24.1396 3.36919 24.0704 3.37288C24.0012 3.37564 23.9353 3.39593 23.8726 3.43373C23.8108 3.47154 23.7527 3.52641 23.6983 3.59833C23.6439 3.66933 23.5937 3.75554 23.5476 3.85697L23.4909 3.98422C23.4438 4.0875 23.4134 4.18432 23.3996 4.27468C23.3857 4.36413 23.3876 4.44573 23.4051 4.5195C23.4226 4.59234 23.4549 4.65643 23.5019 4.71176C23.549 4.76708 23.6107 4.81226 23.6873 4.8473C23.7426 4.8722 23.7919 4.89018 23.8353 4.90125C23.8795 4.91139 23.9178 4.91738 23.9501 4.91923C23.9823 4.92015 24.0105 4.91784 24.0344 4.91231C24.0584 4.90678 24.0787 4.90078 24.0953 4.89433L24.2613 4.52503L23.8726 4.35076L23.9846 4.10179L24.6997 4.42406L24.3733 5.14606Z" fill="white"/>
<path d="M26.3661 5.60908L25.6538 5.14849L25.308 5.68238L26.142 6.22043L25.9871 6.46109L24.8516 5.72803L25.9733 3.99219L27.0992 4.71972L26.9429 4.96315L26.1171 4.43064L25.8073 4.90921L26.521 5.36979L26.3661 5.60908Z" fill="white"/>
<path d="M28.1839 5.57081L27.5546 7.14206L29.0622 6.3758L29.4052 6.68839L28.0096 8.21261L27.7455 7.97194L28.206 7.46986L28.8478 6.82117L27.3222 7.58328L27.1327 7.41038L27.7579 5.82531L27.1687 6.52103L26.7095 7.02311L26.4453 6.78106L27.8409 5.25684L28.1839 5.57081Z" fill="white"/>
<path d="M29.9195 9.12966L29.3981 8.46022L28.896 8.85165L29.5059 9.63312L29.2805 9.81016L28.4492 8.74376L30.0786 7.47266L30.9029 8.53076L30.6747 8.70918L30.0716 7.93463L29.6207 8.28594L30.1436 8.95538L29.9195 9.12966Z" fill="white"/>
<path d="M30.4044 11.7172L30.2301 11.4032L31.0586 9.88316L29.7792 10.5996L29.6035 10.2857L31.4071 9.27734L31.5828 9.58993L30.7501 11.1155L32.0337 10.3963L32.208 10.7075L30.4044 11.7172Z" fill="white"/>
<path d="M32.859 13.1044L32.6349 12.5L30.9682 13.1183L30.8438 12.7849L32.5104 12.1667L32.2877 11.5678L32.5588 11.4668L33.1301 13.0035L32.859 13.1044Z" fill="white"/>
<path d="M32.2295 16.2347C32.271 16.2283 32.3069 16.2167 32.3374 16.2001C32.3678 16.1835 32.3945 16.1573 32.4176 16.1213C32.4406 16.0853 32.4605 16.0374 32.477 15.9774C32.4946 15.9175 32.5107 15.841 32.5255 15.7479C32.5411 15.6464 32.5619 15.5519 32.5877 15.4643C32.6135 15.3767 32.6476 15.2997 32.6901 15.2333C32.7315 15.1669 32.7823 15.1125 32.8422 15.0701C32.9021 15.0268 32.9736 14.9996 33.0566 14.9885C33.1396 14.9774 33.218 14.9844 33.2917 15.0093C33.3664 15.0351 33.4333 15.0766 33.4923 15.1337C33.5513 15.19 33.6011 15.261 33.6417 15.3467C33.6822 15.4316 33.7099 15.5279 33.7246 15.6358C33.7403 15.7511 33.738 15.8567 33.7177 15.9526C33.6974 16.0494 33.6629 16.1333 33.614 16.2043C33.5651 16.2753 33.5056 16.3329 33.4356 16.3772C33.3646 16.4214 33.2862 16.4496 33.2004 16.4615L33.152 16.1075C33.2018 16.1001 33.2465 16.0858 33.2862 16.0646C33.3258 16.0434 33.3586 16.0148 33.3844 15.9788C33.4102 15.9429 33.4282 15.8995 33.4383 15.8488C33.4485 15.7972 33.4494 15.7382 33.4411 15.6718C33.4319 15.6091 33.4171 15.5556 33.3968 15.5113C33.3765 15.468 33.3517 15.4325 33.3221 15.4048C33.2926 15.3781 33.2594 15.3596 33.2226 15.3495C33.1857 15.3403 33.1474 15.3384 33.1078 15.344C33.0312 15.3541 32.9727 15.3988 32.9321 15.4781C32.8915 15.5565 32.8597 15.6722 32.8367 15.8253C32.8191 15.9452 32.7956 16.0503 32.7661 16.1407C32.7366 16.2301 32.6993 16.3066 32.6541 16.3703C32.6098 16.433 32.5573 16.4823 32.4964 16.5183C32.4346 16.5542 32.3632 16.5777 32.282 16.5888C32.1953 16.6008 32.1151 16.5948 32.0414 16.5708C31.9685 16.5459 31.9035 16.5049 31.8463 16.4477C31.7892 16.3915 31.7412 16.32 31.7025 16.2333C31.6647 16.1467 31.6384 16.0485 31.6237 15.9387C31.6098 15.8401 31.6098 15.7409 31.6237 15.6413C31.6366 15.5418 31.6647 15.4505 31.708 15.3675C31.7514 15.2845 31.8104 15.214 31.8851 15.1559C31.9588 15.0987 32.0501 15.0627 32.1589 15.048L32.2087 15.4034C32.1442 15.4117 32.0902 15.4306 32.0469 15.4602C32.0036 15.4897 31.9699 15.5265 31.9459 15.5708C31.9219 15.6141 31.9067 15.6639 31.9003 15.7202C31.8948 15.7764 31.8961 15.8359 31.9044 15.8986C31.921 16.0231 31.9588 16.113 32.0178 16.1683C32.0769 16.2236 32.1474 16.2458 32.2295 16.2347Z" fill="white"/>
<path d="M32.8653 17.9474L33.8377 18.4384L33.8307 18.8367L32.5361 18.123L31.7754 18.1106L31.7823 17.7496L32.5417 17.762L33.8598 17.0898L33.8529 17.4882L32.8653 17.9474Z" fill="white"/>
<path d="M32.0825 20.449C32.124 20.4555 32.1618 20.455 32.1959 20.4477C32.23 20.4403 32.2632 20.4228 32.2955 20.3951C32.3268 20.3665 32.3596 20.3259 32.3937 20.2734C32.4269 20.2208 32.4638 20.1521 32.5043 20.0673C32.5486 19.9742 32.5956 19.8893 32.6454 19.8128C32.6952 19.7363 32.7496 19.6722 32.8086 19.6205C32.8667 19.5689 32.9308 19.5311 33.0009 19.5071C33.07 19.4831 33.1466 19.4776 33.2305 19.4905C33.3125 19.5025 33.3854 19.5316 33.449 19.5777C33.5126 19.6228 33.5652 19.6814 33.6067 19.7533C33.6473 19.8243 33.6749 19.9064 33.6897 19.9995C33.7035 20.0926 33.7026 20.1932 33.6869 20.301C33.6685 20.4163 33.6357 20.5173 33.5887 20.6039C33.5417 20.6897 33.485 20.7602 33.4186 20.8156C33.3513 20.87 33.2775 20.9082 33.1973 20.9304C33.1171 20.9525 33.0345 20.9567 32.9497 20.9428L33.0036 20.5901C33.0525 20.5975 33.0991 20.5966 33.1433 20.5874C33.1876 20.5781 33.2272 20.5602 33.2623 20.5334C33.2973 20.5057 33.3273 20.4693 33.3522 20.4241C33.3762 20.378 33.3932 20.3218 33.4034 20.2554C33.4126 20.1927 33.414 20.1374 33.4075 20.0894C33.4001 20.0406 33.3863 19.9991 33.366 19.9649C33.3448 19.9308 33.3181 19.9041 33.2858 19.8847C33.2535 19.8644 33.2176 19.8515 33.1779 19.846C33.1014 19.834 33.0327 19.8598 32.9718 19.9234C32.91 19.988 32.8464 20.0903 32.781 20.2305C32.7293 20.3402 32.6768 20.4338 32.6233 20.5113C32.5689 20.5897 32.5117 20.6528 32.4518 20.7008C32.3909 20.7478 32.3259 20.7801 32.2567 20.7976C32.1876 20.8151 32.1124 20.8174 32.0313 20.8045C31.9455 20.7916 31.8708 20.7626 31.8072 20.7174C31.7436 20.6731 31.6924 20.6159 31.6537 20.5459C31.615 20.4749 31.5896 20.3923 31.5776 20.2983C31.5656 20.2051 31.5684 20.1033 31.5859 19.9926C31.6007 19.8949 31.6288 19.8003 31.6703 19.7091C31.7109 19.6168 31.7639 19.5371 31.8293 19.4698C31.8948 19.4025 31.9714 19.3517 32.059 19.3176C32.1466 19.2835 32.2447 19.2748 32.3536 19.2914L32.2982 19.6468C32.2337 19.6367 32.1765 19.6394 32.1267 19.6551C32.0769 19.6717 32.0345 19.6975 31.9995 19.7326C31.9635 19.7676 31.9349 19.8114 31.9137 19.864C31.8916 19.9156 31.8755 19.9728 31.8653 20.0355C31.8469 20.159 31.8579 20.2559 31.8985 20.3259C31.9391 20.396 32.0004 20.4371 32.0825 20.449Z" fill="white"/>
<path d="M32.6184 23.2585L32.8079 22.643L31.1094 22.1202L31.2145 21.7799L32.9116 22.3028L33.0997 21.6914L33.3763 21.7772L32.895 23.3443L32.6184 23.2585Z" fill="white"/>
<path d="M31.0199 24.7398L31.3837 23.9722L30.8083 23.6997L30.3836 24.5973L30.125 24.4742L30.7032 23.2529L32.5704 24.1368L31.9978 25.3498L31.735 25.2253L32.1554 24.3373L31.6395 24.0939L31.2772 24.8601L31.0199 24.7398Z" fill="white"/>
<path d="M31.2922 26.5388L29.6532 26.1183L30.6103 27.5139L30.3434 27.8943L28.6504 26.7089L28.8551 26.4157L29.4139 26.8071L30.14 27.359L29.1857 25.9454L29.3323 25.7352L30.9851 26.1487L30.2203 25.6563L29.6615 25.2649L29.8662 24.9717L31.5591 26.157L31.2922 26.5388Z" fill="white"/>
<path d="M13.4235 22.8159C13.417 22.9053 13.3968 22.9874 13.3626 23.0621C13.3294 23.1368 13.2833 23.2004 13.2243 23.253C13.1644 23.3064 13.0925 23.3484 13.0086 23.3788C12.9237 23.4083 12.8269 23.4231 12.7181 23.4231C12.6065 23.4231 12.506 23.4037 12.4166 23.365C12.3271 23.3263 12.2511 23.2705 12.1884 23.1976C12.1266 23.1248 12.0791 23.0363 12.0459 22.9321C12.0127 22.8288 11.9961 22.7126 11.9961 22.5835V22.4673C11.9961 22.3382 12.0132 22.2216 12.0473 22.1174C12.0823 22.0132 12.1312 21.9247 12.1939 21.8518C12.2566 21.779 12.3331 21.7227 12.4235 21.6831C12.5129 21.6444 12.613 21.625 12.7236 21.625C12.8324 21.625 12.9288 21.6402 13.0127 21.6706C13.0966 21.702 13.1676 21.7449 13.2257 21.7993C13.2847 21.8546 13.3304 21.9201 13.3626 21.9957C13.3958 22.0713 13.417 22.1538 13.4263 22.2433H13.0653C13.0607 22.1907 13.0514 22.1446 13.0376 22.1049C13.0238 22.0644 13.0035 22.0307 12.9767 22.004C12.9509 21.9763 12.9168 21.9556 12.8744 21.9417C12.8329 21.9279 12.7826 21.921 12.7236 21.921C12.6019 21.921 12.5111 21.9653 12.4511 22.0538C12.3912 22.1423 12.3612 22.2792 12.3612 22.4646V22.5835C12.3612 22.6739 12.3677 22.7532 12.3806 22.8214C12.3944 22.8897 12.4156 22.9464 12.4442 22.9915C12.4728 23.0376 12.5097 23.0722 12.5549 23.0953C12.6001 23.1174 12.6545 23.1285 12.7181 23.1285C12.7753 23.1285 12.8246 23.122 12.8661 23.1091C12.9076 23.0971 12.9422 23.0778 12.9698 23.051C12.9975 23.0252 13.0187 22.9925 13.0334 22.9528C13.0491 22.9141 13.0588 22.8684 13.0625 22.8159H13.4235Z" fill="#2E343D"/>
<path d="M14.7141 22.6401H14.0212V23.109H14.8344V23.3995H13.6602V21.6484H14.8317V21.9403H14.0212V22.358H14.7141V22.6401Z" fill="#2E343D"/>
<path fill-rule="evenodd" clip-rule="evenodd" d="M15.6956 22.7591H15.4079V23.3995H15.0469V21.6484H15.6969C15.7984 21.6484 15.8892 21.66 15.9694 21.683C16.0496 21.7061 16.1174 21.7397 16.1727 21.784C16.2281 21.8282 16.2705 21.8831 16.3 21.9486C16.3295 22.015 16.3443 22.0915 16.3443 22.1782C16.3443 22.2418 16.3369 22.299 16.3221 22.3497C16.3083 22.4013 16.2876 22.447 16.2599 22.4866C16.2331 22.5263 16.2004 22.5608 16.1617 22.5904C16.123 22.6199 16.0796 22.6452 16.0317 22.6664L16.4106 23.3829V23.3995H16.0234L15.6956 22.7591ZM15.4079 22.4673H15.6983C15.7463 22.4673 15.7878 22.4608 15.8228 22.4479C15.8588 22.4359 15.8887 22.4184 15.9127 22.3953C15.9358 22.3723 15.9533 22.3451 15.9653 22.3137C15.9782 22.2815 15.9842 22.246 15.9833 22.2072C15.9842 22.1242 15.9611 22.0592 15.9141 22.0122C15.8671 21.9652 15.7952 21.9417 15.6983 21.9417H15.4079V22.4673Z" fill="#2E343D"/>
<path d="M17.8752 21.9403H17.3386V23.3995H16.9776V21.9403H16.4492V21.6484H17.8752V21.9403Z" fill="#2E343D"/>
<path d="M18.4645 23.3995H18.1035V21.6484H18.4645V23.3995Z" fill="#2E343D"/>
<path d="M19.8528 22.6844H19.1598V23.3995H18.7988V21.6484H19.9399V21.9403H19.1598V22.3926H19.8528V22.6844Z" fill="#2E343D"/>
<path d="M20.5315 23.3995H20.1719V21.6484H20.5315V23.3995Z" fill="#2E343D"/>
<path d="M21.9211 22.6401H21.2282V23.109H22.0415V23.3995H20.8672V21.6484H22.0387V21.9403H21.2282V22.358H21.9211V22.6401Z" fill="#2E343D"/>
<path fill-rule="evenodd" clip-rule="evenodd" d="M22.252 23.3995V21.6484H22.79C22.908 21.6484 23.0164 21.6687 23.115 21.7093C23.2128 21.7499 23.2967 21.8066 23.3668 21.8794C23.4368 21.9532 23.4917 22.0412 23.5314 22.1436C23.5701 22.2469 23.5894 22.3608 23.5894 22.4852V22.5655C23.5894 22.6899 23.5701 22.8034 23.5314 22.9057C23.4926 23.0081 23.4378 23.0957 23.3668 23.1685C23.2958 23.2423 23.2109 23.2994 23.1123 23.34C23.0136 23.3797 22.9053 23.3995 22.7872 23.3995H22.252ZM22.6116 21.9403V23.109H22.7872C22.9292 23.109 23.0376 23.062 23.1123 22.968C23.187 22.8739 23.2243 22.7397 23.2243 22.5655V22.4825C23.2243 22.3045 23.1874 22.1699 23.1136 22.0786C23.0399 21.9864 22.932 21.9403 22.79 21.9403H22.6116Z" fill="#2E343D"/>
</svg>
