<svg width="36" height="36" viewBox="0 0 36 36" fill="none" xmlns="http://www.w3.org/2000/svg">
<path d="M18.0562 0.000932666C8.19683 -0.100041 -0.00138302 8.01102 1.75003e-07 17.8704C1.75003e-07 25.5513 4.84395 32.0994 11.6437 34.6265V28.4063C8.04467 26.2747 5.63099 22.352 5.63376 17.8635C5.63652 11.2076 11.0407 5.72737 17.6966 5.63469C24.5351 5.53925 30.108 11.0541 30.108 17.8704C30.108 22.3561 27.6944 26.2761 24.0967 28.4063V34.6265C30.8965 32.0994 35.7418 25.5513 35.7418 17.8704C35.7418 8.0622 27.841 0.100523 18.0562 0.000932666Z" fill="#9253A0"/>
<path d="M12.6113 34.8933V26.2179C12.6113 25.6065 13.1065 25.1113 13.7179 25.1113H22.0226C22.6326 25.1113 23.1292 25.6065 23.1292 26.2179V34.8933C23.1292 35.5047 22.6326 35.9999 22.0226 35.9999H13.7179C13.1065 35.9999 12.6113 35.5047 12.6113 34.8933Z" fill="#9253A0"/>
<path d="M14.2773 13.3446V9.65428C14.2773 9.60449 14.3105 9.57129 14.3603 9.57129H14.7241C14.7725 9.57129 14.8057 9.60449 14.8057 9.65428V13.3446C14.8057 13.3944 14.7725 13.4276 14.7241 13.4276H14.3603C14.3105 13.4276 14.2773 13.3944 14.2773 13.3446Z" fill="black"/>
<path d="M15.5332 12.3965V12.2637C15.5332 12.2139 15.5664 12.1821 15.6162 12.1821H15.9689C16.0173 12.1821 16.0505 12.2139 16.0505 12.2637V12.3688C16.0505 12.7326 16.3866 13.0134 16.9372 13.0134C17.4614 13.0134 17.7034 12.7658 17.7034 12.4352C17.7034 12.088 17.4061 11.9331 16.7615 11.6745C16.1335 11.4324 15.583 11.2125 15.583 10.5402C15.583 9.90121 16.0726 9.52637 16.8389 9.52637C17.6647 9.52637 18.1986 9.9676 18.1986 10.6219V10.7048C18.1986 10.7546 18.1668 10.7878 18.117 10.7878H17.7588C17.709 10.7878 17.6758 10.7602 17.6758 10.7159V10.6495C17.6758 10.2816 17.3729 9.98282 16.8168 9.98282C16.359 9.98282 16.1003 10.1765 16.1003 10.5292C16.1003 10.8985 16.3866 11.0188 17.0367 11.2664C17.6481 11.5043 18.2318 11.7464 18.2318 12.4186C18.2318 13.0466 17.7311 13.4699 16.8998 13.4699C16.0671 13.4699 15.5332 13.0466 15.5332 12.3965Z" fill="black"/>
<path fill-rule="evenodd" clip-rule="evenodd" d="M18.8418 12.1544V10.8432C18.8418 10.0547 19.3868 9.52637 20.2029 9.52637C21.0231 9.52637 21.5681 10.0547 21.5681 10.8432V12.1544C21.5681 12.947 21.0231 13.4754 20.2029 13.4754C19.3868 13.4754 18.8418 12.947 18.8418 12.1544ZM21.0397 12.1766V10.8376C21.0397 10.3245 20.7036 9.98282 20.2029 9.98282C19.7063 9.98282 19.3702 10.3245 19.3702 10.8376V12.1766C19.3702 12.6828 19.7063 13.0189 20.2029 13.0189C20.7036 13.0189 21.0397 12.6828 21.0397 12.1766Z" fill="black"/>
<path d="M14.2773 13.3446V9.65428C14.2773 9.60449 14.3105 9.57129 14.3603 9.57129H14.7241C14.7725 9.57129 14.8057 9.60449 14.8057 9.65428V13.3446C14.8057 13.3944 14.7725 13.4276 14.7241 13.4276H14.3603C14.3105 13.4276 14.2773 13.3944 14.2773 13.3446Z" fill="#2E343D"/>
<path d="M15.5332 12.3965V12.2637C15.5332 12.2139 15.5664 12.1821 15.6162 12.1821H15.9689C16.0173 12.1821 16.0505 12.2139 16.0505 12.2637V12.3688C16.0505 12.7326 16.3866 13.0134 16.9372 13.0134C17.4614 13.0134 17.7034 12.7658 17.7034 12.4352C17.7034 12.088 17.4061 11.9331 16.7615 11.6745C16.1335 11.4324 15.583 11.2125 15.583 10.5402C15.583 9.90121 16.0726 9.52637 16.8389 9.52637C17.6647 9.52637 18.1986 9.9676 18.1986 10.6219V10.7048C18.1986 10.7546 18.1668 10.7878 18.117 10.7878H17.7588C17.709 10.7878 17.6758 10.7602 17.6758 10.7159V10.6495C17.6758 10.2816 17.3729 9.98282 16.8168 9.98282C16.359 9.98282 16.1003 10.1765 16.1003 10.5292C16.1003 10.8985 16.3866 11.0188 17.0367 11.2664C17.6481 11.5043 18.2318 11.7464 18.2318 12.4186C18.2318 13.0466 17.7311 13.4699 16.8998 13.4699C16.0671 13.4699 15.5332 13.0466 15.5332 12.3965Z" fill="#2E343D"/>
<path fill-rule="evenodd" clip-rule="evenodd" d="M18.8418 12.1544V10.8432C18.8418 10.0547 19.3868 9.52637 20.2029 9.52637C21.0231 9.52637 21.5681 10.0547 21.5681 10.8432V12.1544C21.5681 12.947 21.0231 13.4754 20.2029 13.4754C19.3868 13.4754 18.8418 12.947 18.8418 12.1544ZM21.0397 12.1766V10.8376C21.0397 10.3245 20.7036 9.98282 20.2029 9.98282C19.7063 9.98282 19.3702 10.3245 19.3702 10.8376V12.1766C19.3702 12.6828 19.7063 13.0189 20.2029 13.0189C20.7036 13.0189 21.0397 12.6828 21.0397 12.1766Z" fill="#2E343D"/>
<path d="M8.58651 20.1107V19.4551C8.58651 19.3914 8.61002 19.3458 8.65567 19.2905C9.28087 18.6653 9.83553 18.0179 10.3584 17.455C10.7803 16.9874 11.0693 16.5725 11.0693 16.2848C11.0693 15.9168 10.7886 15.6596 10.3667 15.6596C9.9448 15.6596 9.66401 15.9168 9.66401 16.3V16.4563C9.66401 16.542 9.61698 16.5891 9.53122 16.5891H8.68748C8.60172 16.5891 8.55469 16.542 8.55469 16.4563V16.1285C8.60172 15.2612 9.36663 14.7148 10.3667 14.7148C11.4995 14.7148 12.1856 15.4092 12.1856 16.2613C12.1856 16.7136 11.9435 17.1673 11.5299 17.6735C11.1316 18.1659 10.6239 18.6736 10.0859 19.2434C10.0541 19.2669 10.0693 19.2988 10.1094 19.2988H12.1552C12.2409 19.2988 12.2879 19.3458 12.2879 19.4315V20.1107C12.2879 20.1964 12.2409 20.2435 12.1552 20.2435H8.71929C8.63215 20.2435 8.58651 20.1964 8.58651 20.1107Z" fill="#2E343D"/>
<path d="M13.4832 20.0874L15.1472 15.7774C15.1541 15.7456 15.1472 15.7221 15.1153 15.7221H13.6713C13.6478 15.7221 13.6243 15.7373 13.6243 15.7691V16.0817C13.6243 16.1675 13.5772 16.2145 13.4915 16.2145H12.8594C12.7736 16.2145 12.7266 16.1675 12.7266 16.0817L12.7335 14.9101C12.7335 14.8244 12.7805 14.7773 12.8663 14.7773H16.2012C16.2869 14.7773 16.3339 14.8244 16.3339 14.9101V15.6363C16.3339 15.6903 16.3256 15.7373 16.3021 15.7995L14.6312 20.1414C14.6077 20.2119 14.5538 20.2437 14.4832 20.2437H13.5855C13.4915 20.2437 13.4527 20.1732 13.4832 20.0874Z" fill="#2E343D"/>
<path fill-rule="evenodd" clip-rule="evenodd" d="M16.7617 18.5408V16.4798C16.7617 15.394 17.4727 14.7148 18.6207 14.7148C19.7688 14.7148 20.4867 15.394 20.4867 16.4798V18.5408C20.4867 19.6418 19.7688 20.3292 18.6207 20.3292C17.4727 20.3292 16.7617 19.6418 16.7617 18.5408ZM19.3856 18.5961V16.448C19.3856 15.9639 19.0896 15.6596 18.6207 15.6596C18.1601 15.6596 17.8627 15.9639 17.8627 16.448V18.5961C17.8627 19.0802 18.1601 19.3845 18.6207 19.3845C19.0896 19.3845 19.3856 19.0802 19.3856 18.5961Z" fill="#2E343D"/>
<path fill-rule="evenodd" clip-rule="evenodd" d="M21.1738 18.5408V16.4798C21.1738 15.394 21.8848 14.7148 23.0328 14.7148C24.1795 14.7148 24.8988 15.394 24.8988 16.4798V18.5408C24.8988 19.6418 24.1795 20.3292 23.0328 20.3292C21.8848 20.3292 21.1738 19.6418 21.1738 18.5408ZM23.7977 18.5961V16.448C23.7977 15.9639 23.5004 15.6596 23.0328 15.6596C22.5709 15.6596 22.2748 15.9639 22.2748 16.448V18.5961C22.2748 19.0802 22.5709 19.3845 23.0328 19.3845C23.5004 19.3845 23.7977 19.0802 23.7977 18.5961Z" fill="#2E343D"/>
<path d="M26.3437 14.7773H27.2262C27.312 14.7773 27.359 14.8244 27.359 14.9101V20.1109C27.359 20.1967 27.312 20.2437 27.2262 20.2437H26.3907C26.305 20.2437 26.258 20.1967 26.258 20.1109V15.8549C26.258 15.823 26.2344 15.7995 26.204 15.8078L25.5166 15.9489C25.4308 15.9641 25.3672 15.9171 25.3672 15.8313V15.2379C25.3672 15.1674 25.399 15.1135 25.4695 15.0899L26.1805 14.8078C26.2345 14.7856 26.2815 14.7773 26.3437 14.7773Z" fill="#2E343D"/>
<path d="M17.2728 33.3969C17.0861 33.3969 16.9408 33.2461 16.8481 33.1327C16.0763 32.1907 15.541 31.874 15.2201 31.6859C14.9781 31.5434 14.6392 31.43 14.7083 31.1395C14.7222 31.0828 14.7291 31.0261 14.7443 30.9749C14.8522 30.6208 15.0832 30.2639 15.382 30.2971C15.5064 30.3096 15.6738 30.3649 15.8619 30.4631C16.4553 30.7716 16.7347 31.1437 16.9436 31.4092C17.0861 31.1699 17.3821 30.7149 17.9381 30.015C19.2867 28.3136 20.616 27.5999 20.8691 27.4726C20.9087 27.4533 20.9516 27.4422 20.9977 27.4395H21.0171C21.154 27.4395 21.1513 27.5211 21.2025 27.6469C21.2536 27.7728 21.3477 27.9153 21.2495 28.0107C20.9701 28.2846 20.4694 28.8171 19.6768 29.7978C18.8884 30.7743 18.4361 31.6859 18.1055 32.3512C17.7707 33.0248 17.7334 33.3969 17.4208 33.3969H17.2728Z" fill="white"/>
<path d="M7.90476 27.749L8.16064 27.998L6.72212 29.4822L6.46484 29.2332L7.90476 27.749Z" fill="white"/>
<path d="M6.5045 26.1641L6.73549 26.4393L6.20019 28.0867L7.32473 27.1461L7.55572 27.4228L5.9692 28.7465L5.7382 28.4712L6.27627 26.8183L5.1462 27.7617L4.91797 27.4878L6.5045 26.1641Z" fill="white"/>
<path d="M4.88252 25.2637L5.32792 25.9663L6.06792 25.4974L6.26019 25.8017L4.51321 26.9069L3.81055 25.7976L4.05538 25.6427L4.56577 26.4491L5.08586 26.1199L4.64046 25.4172L4.88252 25.2637Z" fill="white"/>
<path fill-rule="evenodd" clip-rule="evenodd" d="M3.8265 23.3489C3.96943 23.2825 4.10591 23.2415 4.23593 23.2258C4.36595 23.2111 4.48629 23.2194 4.59694 23.2507C4.70667 23.2821 4.80442 23.3356 4.89018 23.4112C4.97686 23.4868 5.04694 23.5827 5.10043 23.6989C5.15391 23.8141 5.18203 23.929 5.1848 24.0433C5.18664 24.1586 5.16452 24.2688 5.11841 24.3739C5.07138 24.4799 5.00038 24.5781 4.9054 24.6685C4.81042 24.7589 4.69146 24.8373 4.54853 24.9036L4.45309 24.9479C4.31108 25.0143 4.17461 25.0544 4.04366 25.0683C3.91272 25.083 3.79192 25.0747 3.68127 25.0434C3.57061 25.0111 3.47194 24.9571 3.38526 24.8815C3.2995 24.8059 3.22989 24.7105 3.1764 24.5952C3.122 24.4799 3.09387 24.3647 3.09202 24.2494C3.08926 24.1341 3.11186 24.0239 3.15981 23.9188C3.20684 23.8137 3.2783 23.7164 3.3742 23.627C3.4701 23.5366 3.58905 23.4582 3.73106 23.3918L3.8265 23.3489ZM3.88045 23.721C3.77532 23.7699 3.68773 23.8229 3.61764 23.8801C3.54664 23.9373 3.49269 23.9977 3.4558 24.0613C3.41984 24.1249 3.40094 24.1913 3.3991 24.2605C3.39725 24.3296 3.41292 24.4002 3.44612 24.4721C3.4784 24.5413 3.52174 24.597 3.57614 24.6395C3.62963 24.6828 3.69234 24.7114 3.76426 24.7252C3.83619 24.7391 3.91733 24.7381 4.0077 24.7225C4.09807 24.7059 4.19536 24.6731 4.29956 24.6242L4.39776 24.5786C4.50288 24.5307 4.59049 24.4772 4.66057 24.4181C4.73158 24.3601 4.78552 24.2987 4.8224 24.2342C4.85837 24.1687 4.87727 24.1014 4.87912 24.0322C4.88096 23.9631 4.86575 23.8939 4.83347 23.8248C4.76616 23.6809 4.65965 23.5956 4.51395 23.5689C4.36826 23.5421 4.18982 23.5776 3.97866 23.6754L3.88045 23.721Z" fill="white"/>
<path fill-rule="evenodd" clip-rule="evenodd" d="M3.61226 22.1018L3.72984 22.4849L4.49059 22.2512L4.59571 22.5956L2.62051 23.2L2.4075 22.5043C2.37246 22.3918 2.35448 22.2871 2.35356 22.1903C2.35263 22.0935 2.36785 22.0068 2.3992 21.9303C2.43056 21.8537 2.4785 21.7883 2.54305 21.7338C2.6076 21.6794 2.68875 21.6375 2.7865 21.608C2.91836 21.5674 3.0387 21.5656 3.14751 21.6024C3.25632 21.6384 3.35222 21.7062 3.43522 21.8058L4.12266 21.11L4.14064 21.1045L4.25268 21.4724L3.61226 22.1018ZM3.45457 22.5693L3.34669 22.2166C3.32732 22.1548 3.30243 22.1032 3.272 22.0617C3.24157 22.0211 3.20744 21.9897 3.16964 21.9676C3.13091 21.9455 3.08942 21.9326 3.04515 21.9289C2.99997 21.9261 2.9534 21.9321 2.90545 21.9469C2.85473 21.9625 2.81139 21.9837 2.77543 22.0105C2.73854 22.0381 2.70996 22.0713 2.68967 22.1101C2.66938 22.1488 2.65832 22.194 2.65648 22.2456C2.65463 22.2963 2.66385 22.3544 2.68414 22.4199L2.79203 22.7712L3.45457 22.5693Z" fill="white"/>
<path d="M1.96089 20.7001L3.44507 19.8867L1.79353 19.5216L1.72852 19.0624L3.77427 18.7705L3.82406 19.1246L3.15045 19.22L2.24307 19.3141L3.90566 19.6945L3.94163 19.9476L2.45192 20.7748L3.34824 20.6115L4.02324 20.5161L4.07303 20.8702L2.02729 21.1607L1.96089 20.7001Z" fill="white"/>
<path fill-rule="evenodd" clip-rule="evenodd" d="M3.30966 17.1701L3.29584 17.9695L3.77304 18.1466L3.7675 18.5187L1.71484 17.7026L1.72037 17.3803L3.79931 16.6348L3.79378 17.0096L3.30966 17.1701ZM3.00813 17.8644L3.01781 17.2655L2.15608 17.5491L3.00813 17.8644Z" fill="white"/>
<path d="M2.26903 14.8272L2.1805 15.4649L3.93992 15.7097L3.89151 16.0624L2.13071 15.8176L2.04357 16.4511L1.75586 16.411L1.98132 14.7871L2.26903 14.8272Z" fill="white"/>
<path d="M4.2041 14.3956L4.12111 14.7441L2.11133 14.2642L2.19432 13.917L4.2041 14.3956Z" fill="white"/>
<path fill-rule="evenodd" clip-rule="evenodd" d="M3.93239 12.0456C4.08085 12.0972 4.20672 12.1631 4.30999 12.2434C4.4142 12.3236 4.49443 12.4135 4.55068 12.5131C4.60785 12.6117 4.64058 12.7183 4.64888 12.8326C4.6581 12.9479 4.6415 13.0654 4.59909 13.1853C4.55667 13.3052 4.49627 13.4071 4.41789 13.491C4.33951 13.574 4.24683 13.6372 4.13986 13.6805C4.0329 13.7238 3.91349 13.7446 3.78162 13.7427C3.65068 13.7409 3.51097 13.7142 3.36251 13.6625L3.2643 13.6279C3.11584 13.5754 2.98951 13.5085 2.8853 13.4274C2.78203 13.3462 2.7018 13.2559 2.64463 13.1563C2.58746 13.0558 2.55427 12.9483 2.54504 12.834C2.53674 12.7196 2.55334 12.6025 2.59484 12.4827C2.63725 12.3628 2.69812 12.2604 2.77742 12.1756C2.8558 12.0917 2.94848 12.029 3.05544 11.9875C3.16241 11.945 3.28182 11.9252 3.41369 11.928C3.54555 11.9308 3.68526 11.958 3.8328 12.0096L3.93239 12.0456ZM3.71246 12.3485C3.60273 12.3107 3.50267 12.2876 3.4123 12.2793C3.32101 12.271 3.24032 12.277 3.17024 12.2973C3.10016 12.3176 3.04022 12.3517 2.99043 12.3997C2.94063 12.4476 2.90283 12.5089 2.87701 12.5836C2.85119 12.6555 2.84289 12.7256 2.85211 12.7939C2.86041 12.8621 2.8853 12.9267 2.9268 12.9875C2.96922 13.0475 3.02824 13.1032 3.10385 13.1549C3.17947 13.2056 3.27168 13.2503 3.38049 13.2891L3.48285 13.325C3.59166 13.3628 3.69171 13.3859 3.783 13.3942C3.87521 13.4016 3.95682 13.3946 4.02783 13.3734C4.09883 13.3522 4.15923 13.3176 4.20902 13.2697C4.25882 13.2217 4.29617 13.1613 4.32106 13.0885C4.37362 12.9382 4.35703 12.8026 4.27127 12.6818C4.18551 12.561 4.0329 12.4619 3.81343 12.3844L3.71246 12.3485Z" fill="white"/>
<path d="M5.76398 10.5945L5.59662 10.9127L3.87039 11.0455L5.16783 11.7274L5.00046 12.0455L3.17188 11.0828L3.33924 10.7661L5.07238 10.6333L3.76942 9.9472L3.9354 9.63184L5.76398 10.5945Z" fill="white"/>
<path d="M6.72477 8.38935C6.69158 8.36353 6.65839 8.34508 6.62519 8.33402C6.59291 8.32295 6.55557 8.32157 6.51315 8.32987C6.47165 8.33817 6.42324 8.35661 6.36792 8.3852C6.31167 8.41379 6.24481 8.45436 6.16735 8.50692C6.08252 8.56501 5.99952 8.61481 5.91838 8.65631C5.83631 8.69688 5.757 8.725 5.68046 8.74068C5.60393 8.75635 5.52923 8.75682 5.45639 8.74206C5.38446 8.72731 5.31576 8.69365 5.25029 8.64109C5.18574 8.58853 5.13733 8.52629 5.10506 8.45436C5.07278 8.38336 5.05664 8.30682 5.05664 8.22475C5.05756 8.14268 5.07508 8.05738 5.1092 7.96886C5.14332 7.88125 5.19496 7.79504 5.26412 7.7102C5.33697 7.61983 5.41535 7.54929 5.49927 7.49857C5.5841 7.44693 5.66894 7.41466 5.75378 7.40175C5.83861 7.38791 5.9216 7.3916 6.00275 7.41281C6.08298 7.43402 6.15674 7.47183 6.22406 7.52623L5.99998 7.80426C5.96033 7.7729 5.91929 7.75031 5.87687 7.73648C5.83446 7.72173 5.79112 7.71712 5.74685 7.72265C5.70259 7.7291 5.65833 7.7457 5.61407 7.77244C5.56981 7.8001 5.52693 7.84022 5.48544 7.89278C5.44486 7.94257 5.41581 7.9896 5.39829 8.03387C5.37985 8.07905 5.37109 8.12193 5.37201 8.1625C5.37201 8.20215 5.38124 8.23858 5.39968 8.27178C5.41812 8.30497 5.44302 8.33448 5.47437 8.3603C5.53431 8.40825 5.6067 8.42024 5.69153 8.39626C5.77729 8.37229 5.88333 8.31604 6.00966 8.22751C6.10925 8.15835 6.20239 8.10349 6.28907 8.06291C6.37483 8.02326 6.45552 7.9979 6.53113 7.98684C6.60767 7.97577 6.68006 7.98038 6.7483 8.00067C6.81653 8.02095 6.88292 8.05692 6.94747 8.10856C7.01478 8.16297 7.06504 8.22521 7.09824 8.29529C7.13051 8.36629 7.14527 8.44191 7.1425 8.52214C7.14066 8.60236 7.1213 8.68581 7.08441 8.77249C7.04753 8.8601 6.99404 8.94723 6.92396 9.03392C6.86217 9.11137 6.79025 9.17915 6.70818 9.23725C6.62703 9.29534 6.54127 9.3373 6.4509 9.36312C6.35961 9.38801 6.26786 9.39355 6.17565 9.37971C6.08251 9.36496 5.99353 9.32301 5.90869 9.25385L6.13416 8.97444C6.18487 9.01501 6.23559 9.04129 6.2863 9.05328C6.33702 9.06435 6.38682 9.06343 6.43569 9.05052C6.48456 9.03853 6.53113 9.01548 6.5754 8.98136C6.62058 8.94724 6.66346 8.90528 6.70403 8.85549C6.78241 8.75866 6.8216 8.66967 6.8216 8.58853C6.8216 8.5083 6.78932 8.44191 6.72477 8.38935Z" fill="white"/>
<path d="M7.82023 6.70042L7.21024 7.29105L7.65425 7.7475L8.36521 7.05591L8.56578 7.262L7.59477 8.20258L6.15625 6.71979L7.11895 5.78613L7.3209 5.99361L6.61547 6.67691L7.01383 7.08634L7.62243 6.49571L7.82023 6.70042Z" fill="white"/>
<path d="M9.6572 5.57902C9.71068 5.6657 9.74756 5.75468 9.76785 5.84597C9.78906 5.93726 9.79183 6.02809 9.77615 6.11846C9.75955 6.20883 9.72313 6.29689 9.66688 6.38265C9.60971 6.46933 9.5304 6.55048 9.42897 6.6261C9.32753 6.70263 9.22195 6.75335 9.11222 6.77824C9.00248 6.80314 8.89321 6.80314 8.7844 6.77824C8.67651 6.75427 8.57092 6.70586 8.46764 6.63301C8.36436 6.56016 8.26801 6.4638 8.17856 6.34392L8.07759 6.20975C7.98814 6.0908 7.92313 5.97138 7.88255 5.85151C7.84198 5.73071 7.82585 5.61406 7.83415 5.50156C7.84152 5.38906 7.87334 5.28301 7.92959 5.18342C7.98584 5.08383 8.0656 4.99485 8.16888 4.91646C8.26754 4.84269 8.36529 4.79198 8.46211 4.76431C8.55894 4.73573 8.65254 4.72696 8.74291 4.73803C8.83328 4.74817 8.91949 4.77722 9.00156 4.82517C9.08363 4.8722 9.16017 4.93398 9.23117 5.01052L8.94485 5.22492C8.89966 5.17697 8.85402 5.13778 8.80791 5.10735C8.76181 5.07692 8.71432 5.05709 8.66545 5.04787C8.61565 5.03957 8.56447 5.04326 8.51191 5.05893C8.45842 5.07553 8.40218 5.10596 8.34316 5.15022C8.27861 5.1991 8.23112 5.25396 8.20069 5.31483C8.17026 5.37569 8.15596 5.44162 8.15781 5.51262C8.16057 5.58363 8.17948 5.6597 8.21452 5.74085C8.24864 5.82107 8.29843 5.90453 8.3639 5.99121L8.46627 6.12815C8.52805 6.21021 8.59168 6.27937 8.65715 6.33562C8.7217 6.3928 8.78717 6.43383 8.85356 6.45873C8.91995 6.48455 8.98681 6.49285 9.05413 6.48363C9.12144 6.47441 9.18875 6.4449 9.25607 6.3951C9.31785 6.34807 9.36488 6.3015 9.39716 6.2554C9.42851 6.20837 9.44787 6.16042 9.45525 6.11155C9.46262 6.06267 9.45848 6.01196 9.4428 5.9594C9.42805 5.90683 9.40407 5.8515 9.37087 5.79341L9.6572 5.57902Z" fill="white"/>
<path d="M10.6586 3.40332L11.3308 4.61085C11.388 4.71413 11.4207 4.81464 11.429 4.91239C11.4373 5.00921 11.4253 5.10096 11.3931 5.18764C11.3608 5.2734 11.311 5.35225 11.2437 5.42417C11.1764 5.49518 11.0957 5.55696 11.0016 5.60952C10.9048 5.663 10.808 5.69942 10.7112 5.71879C10.6143 5.73908 10.5217 5.74 10.4331 5.72156C10.3437 5.70312 10.2602 5.66439 10.1828 5.60537C10.1053 5.54635 10.038 5.46521 9.98083 5.36193L9.30859 4.15301L9.6212 3.98011L10.2934 5.18764C10.3294 5.25219 10.3686 5.30291 10.411 5.33979C10.4543 5.3776 10.5005 5.40296 10.5493 5.41587C10.5973 5.42878 10.6475 5.43017 10.7001 5.42002C10.7527 5.40988 10.8071 5.38913 10.8633 5.35778C10.9186 5.32735 10.9647 5.2923 11.0016 5.25265C11.0385 5.213 11.0639 5.1692 11.0777 5.12125C11.0915 5.0733 11.0938 5.02166 11.0846 4.96633C11.0763 4.91008 11.0542 4.84968 11.0182 4.78513L10.346 3.57622L10.6586 3.40332Z" fill="white"/>
<path fill-rule="evenodd" clip-rule="evenodd" d="M12.4352 4.02668L12.0618 4.17329L12.3522 4.91469L12.0189 5.04609L11.2637 3.12206L11.9401 2.85649C12.0498 2.81315 12.1531 2.78733 12.2499 2.77903C12.3458 2.76981 12.4329 2.77811 12.5113 2.80393C12.5906 2.82883 12.6598 2.87171 12.7188 2.93257C12.7778 2.99251 12.8258 3.06996 12.8626 3.16494C12.9134 3.29404 12.9249 3.41392 12.8972 3.52457C12.8686 3.63615 12.8082 3.73666 12.716 3.82611L13.463 4.45962L13.4699 4.47621L13.1116 4.6173L12.4352 4.02668ZM11.9567 3.90495L12.3011 3.7694C12.361 3.74635 12.4103 3.71776 12.4491 3.68364C12.4878 3.65044 12.5164 3.61402 12.5348 3.57437C12.5533 3.53379 12.5625 3.49138 12.5625 3.44712C12.5625 3.40193 12.5533 3.35629 12.5348 3.31018C12.5155 3.26039 12.491 3.21843 12.4615 3.18431C12.4311 3.14927 12.3961 3.12345 12.3564 3.10685C12.3158 3.08933 12.2697 3.08195 12.2181 3.08472C12.1664 3.08656 12.1093 3.09993 12.0466 3.12483L11.7035 3.259L11.9567 3.90495Z" fill="white"/>
<path d="M14.13 4.30837L13.7856 4.40658L13.2227 2.41754L13.5671 2.31934L14.13 4.30837Z" fill="white"/>
<path d="M15.7089 2.16483L15.0754 2.28101L15.3977 4.02937L15.0477 4.093L14.7255 2.34602L14.0975 2.46221L14.0449 2.17727L15.6563 1.87988L15.7089 2.16483Z" fill="white"/>
<path d="M16.9521 2.76421L17.374 1.76L17.771 1.73926L17.1499 3.07958L17.19 3.84033L16.8304 3.8597L16.7903 3.09894L16.0254 1.83331L16.4238 1.81118L16.9521 2.76421Z" fill="white"/>
<path d="M19.6889 1.86392L20.0333 3.52099L20.8646 2.0465L21.3238 2.11842L21.0043 4.16002L20.6516 4.10608L20.7567 3.43246L20.9324 2.53753L20.0831 4.01617L19.83 3.97744L19.4731 2.31069L19.368 3.2153L19.2629 3.88892L18.9102 3.83359L19.2283 1.79199L19.6889 1.86392Z" fill="white"/>
<path fill-rule="evenodd" clip-rule="evenodd" d="M22.6688 4.18742L21.9081 3.93844L21.5996 4.34372L21.2441 4.22753L22.6287 2.50684L22.9358 2.60642L23.0354 4.81401L22.6799 4.69782L22.6688 4.18742ZM22.0934 3.69362L22.6633 3.88035L22.6453 2.97297L22.0934 3.69362Z" fill="white"/>
<path d="M24.719 5.63825L24.3967 5.47919L24.2224 3.75711L23.5709 5.06976L23.25 4.91069L24.1671 3.05859L24.4893 3.21905L24.6636 4.94804L25.3165 3.62847L25.636 3.78754L24.719 5.63825Z" fill="white"/>
<path fill-rule="evenodd" clip-rule="evenodd" d="M26.3288 6.13128L25.6691 5.67759L25.2582 5.97775L24.9512 5.76612L26.7687 4.50879L27.0329 4.69137L26.5017 6.83671L26.1933 6.6237L26.3288 6.13128ZM25.918 5.49501L26.4104 5.83666L26.6511 4.95971L25.918 5.49501Z" fill="white"/>
<path d="M28.0085 7.85012C27.9735 7.85565 27.9301 7.85842 27.8785 7.85842C27.8259 7.85749 27.7674 7.84735 27.7028 7.82799C27.6374 7.80862 27.5664 7.77773 27.4898 7.73531C27.4124 7.69197 27.3312 7.63158 27.2464 7.55412C27.1505 7.46651 27.0776 7.36969 27.0278 7.26364C26.9781 7.1576 26.9531 7.04694 26.9531 6.93168C26.9522 6.81733 26.9776 6.70022 27.0292 6.58035C27.0809 6.46047 27.1602 6.34244 27.2671 6.22625L27.3584 6.12527C27.4645 6.01001 27.5737 5.9201 27.6862 5.85555C27.7978 5.79008 27.9094 5.75089 28.021 5.73798C28.1326 5.72415 28.2418 5.73614 28.3488 5.77394C28.4567 5.81267 28.56 5.87676 28.6586 5.96621C28.7508 6.05196 28.8205 6.13818 28.8675 6.22486C28.9145 6.31247 28.9422 6.39961 28.9505 6.48629C28.9579 6.57297 28.9477 6.65873 28.9201 6.74356C28.8933 6.8284 28.8518 6.91047 28.7956 6.98977L28.5355 6.75186C28.566 6.70668 28.589 6.66057 28.6047 6.61354C28.6213 6.56651 28.6277 6.51902 28.6241 6.47107C28.6213 6.42312 28.6075 6.37517 28.5826 6.32722C28.5586 6.27927 28.5208 6.23132 28.4691 6.18337C28.4064 6.12712 28.3419 6.08931 28.2755 6.06995C28.2082 6.0515 28.139 6.05058 28.068 6.06718C27.997 6.08378 27.9246 6.11743 27.8508 6.16815C27.7771 6.21887 27.7024 6.28526 27.6268 6.36733L27.5327 6.46969C27.4562 6.5536 27.3972 6.63613 27.3557 6.71728C27.3151 6.79843 27.2916 6.87635 27.2851 6.95104C27.2787 7.02666 27.2893 7.09812 27.3169 7.16544C27.3437 7.23275 27.3879 7.29454 27.4497 7.35079C27.4949 7.39228 27.5364 7.42502 27.5742 7.44899C27.612 7.47297 27.6461 7.49049 27.6766 7.50155C27.7079 7.51262 27.7356 7.51953 27.7596 7.5223C27.7835 7.52415 27.8047 7.52461 27.8232 7.52369L28.0957 7.22491L27.7817 6.93721L27.9656 6.73665L28.5438 7.26503L28.0085 7.85012Z" fill="white"/>
<path d="M29.5844 8.67977L29.038 8.02967L28.5511 8.44048L29.1901 9.19847L28.9716 9.38382L28.1016 8.34919L29.6826 7.01855L30.5457 8.04488L30.3244 8.23162L29.6922 7.48054L29.2552 7.84709L29.8015 8.49719L29.5844 8.67977Z" fill="white"/>
<path d="M31.1605 8.91553L30.1245 10.2531L31.7843 9.92941L32.0278 10.325L30.267 11.408L30.0802 11.1024L30.6598 10.7455L31.4551 10.2987L29.7787 10.6127L29.6445 10.3942L30.6805 9.04279L29.9239 9.54903L29.3444 9.9059L29.1562 9.6016L30.9171 8.51855L31.1605 8.91553Z" fill="white"/>
<path d="M31.754 12.5462L31.422 11.766L30.8355 12.0136L31.2242 12.9279L30.96 13.04L30.4316 11.7951L32.3335 10.9873L32.8591 12.2225L32.5922 12.3359L32.2077 11.4313L31.6834 11.654L32.0154 12.4355L31.754 12.5462Z" fill="white"/>
<path d="M31.4968 14.9018L31.4014 14.556L32.5716 13.2793L31.1579 13.6666L31.0625 13.3208L33.0557 12.7744L33.1511 13.1202L31.9754 14.4011L33.396 14.011L33.49 14.3554L31.4968 14.9018Z" fill="white"/>
<path d="M33.5258 16.5341L33.4401 15.8951L31.6793 16.1302L31.6309 15.7775L33.393 15.5424L33.3087 14.9088L33.595 14.8701L33.8122 16.4954L33.5258 16.5341Z" fill="white"/>
<path d="M32.2772 18.8919C32.3187 18.8928 32.3561 18.8882 32.3892 18.878C32.4224 18.867 32.4538 18.8458 32.4833 18.8144C32.5119 18.7831 32.54 18.7393 32.5677 18.683C32.5953 18.6268 32.6249 18.5544 32.6562 18.4658C32.6894 18.369 32.7268 18.2796 32.7683 18.1975C32.8097 18.1164 32.8572 18.0467 32.9107 17.9886C32.9633 17.9315 33.0228 17.8872 33.0891 17.8559C33.1565 17.8245 33.2321 17.8107 33.316 17.8144C33.399 17.8181 33.4746 17.8393 33.5428 17.878C33.6111 17.9167 33.6696 17.9693 33.7185 18.0357C33.7665 18.1021 33.8024 18.1809 33.8264 18.2722C33.8513 18.3626 33.8614 18.4622 33.8568 18.571C33.8513 18.6881 33.8296 18.7918 33.7918 18.8822C33.754 18.9735 33.7051 19.05 33.6452 19.1118C33.5843 19.1727 33.5152 19.2183 33.4377 19.2487C33.3603 19.2801 33.2786 19.2935 33.1929 19.2889L33.2081 18.932C33.2579 18.9338 33.3045 18.9283 33.3478 18.9154C33.3902 18.9016 33.4276 18.879 33.4598 18.8476C33.4921 18.8172 33.5179 18.778 33.5373 18.73C33.5557 18.6812 33.5668 18.6231 33.5705 18.5558C33.5733 18.4931 33.5682 18.4382 33.5553 18.3912C33.5433 18.3441 33.5253 18.3045 33.5013 18.2722C33.4774 18.2409 33.4483 18.2169 33.4142 18.2003C33.3792 18.1837 33.3414 18.1749 33.3008 18.174C33.2242 18.1703 33.1588 18.2035 33.1044 18.2736C33.0509 18.3437 32.9988 18.452 32.9481 18.5986C32.9093 18.713 32.8674 18.8116 32.8222 18.8946C32.777 18.9786 32.7268 19.0473 32.6714 19.1007C32.6161 19.1551 32.5552 19.1943 32.4888 19.2183C32.4215 19.2432 32.3468 19.2538 32.2648 19.2501C32.1781 19.2464 32.1006 19.2257 32.0324 19.1879C31.9642 19.1501 31.9074 19.0984 31.8623 19.033C31.8161 18.9666 31.782 18.8877 31.7599 18.7964C31.7378 18.7042 31.729 18.6023 31.7336 18.4908C31.7382 18.3912 31.7562 18.2939 31.7876 18.1989C31.8189 18.1039 31.8632 18.0191 31.9204 17.9444C31.9784 17.8706 32.049 17.8121 32.132 17.7687C32.2159 17.7254 32.3127 17.706 32.4225 17.7106L32.4059 18.0703C32.3413 18.0675 32.2851 18.0763 32.2371 18.0965C32.1891 18.1177 32.1495 18.1482 32.1181 18.1878C32.0868 18.2266 32.0628 18.2731 32.0462 18.3275C32.0305 18.381 32.0209 18.4396 32.0172 18.5032C32.0116 18.6277 32.0328 18.7227 32.0808 18.7881C32.1287 18.8536 32.1942 18.8882 32.2772 18.8919Z" fill="white"/>
<path d="M32.6454 20.4057L33.5306 21.0406L33.4628 21.432L32.294 20.5274L31.543 20.3988L31.6052 20.0433L32.3549 20.1719L33.7589 19.71L33.6925 20.1028L32.6454 20.4057Z" fill="white"/>
<path d="M31.5568 22.4785C31.5964 22.4905 31.6338 22.4956 31.6688 22.4938C31.7029 22.491 31.738 22.4781 31.7739 22.455C31.8099 22.432 31.8481 22.3969 31.8887 22.3499C31.9293 22.302 31.9759 22.2393 32.0284 22.1618C32.0856 22.076 32.1446 21.999 32.2055 21.9308C32.2654 21.8616 32.3281 21.8058 32.3936 21.7634C32.46 21.7201 32.5291 21.692 32.6011 21.6791C32.6739 21.6652 32.7505 21.6708 32.8307 21.6957C32.91 21.7196 32.9782 21.7588 33.0354 21.8132C33.0916 21.8676 33.135 21.9331 33.1654 22.0096C33.1949 22.0862 33.2101 22.1715 33.2111 22.2655C33.212 22.3605 33.1963 22.4601 33.164 22.5643C33.1299 22.675 33.0833 22.7699 33.0243 22.8492C32.9653 22.9276 32.8989 22.9889 32.8251 23.0332C32.7514 23.0775 32.673 23.1047 32.59 23.1148C32.507 23.125 32.4245 23.1176 32.3424 23.0927L32.4462 22.751C32.4941 22.7658 32.5407 22.7718 32.5859 22.769C32.631 22.7663 32.673 22.7538 32.7117 22.7317C32.7505 22.7105 32.785 22.6786 32.8155 22.6362C32.8459 22.5947 32.8713 22.5417 32.8915 22.4772C32.91 22.4163 32.9192 22.3619 32.9192 22.3139C32.9192 22.2651 32.9114 22.2222 32.8957 22.1853C32.88 22.1484 32.8579 22.118 32.8293 22.094C32.7998 22.0691 32.7657 22.0507 32.7269 22.0387C32.6532 22.0166 32.5812 22.0327 32.5112 22.0871C32.4411 22.1415 32.3636 22.2333 32.2788 22.3624C32.2124 22.4638 32.1469 22.5491 32.0824 22.6182C32.0178 22.6874 31.9519 22.7414 31.8846 22.7801C31.8182 22.8188 31.7495 22.8414 31.6785 22.8479C31.6075 22.8552 31.5328 22.8469 31.4544 22.823C31.3705 22.7971 31.3004 22.7575 31.2442 22.704C31.1879 22.6505 31.1459 22.5864 31.1183 22.5117C31.0906 22.4361 31.0772 22.3508 31.0782 22.2558C31.08 22.1618 31.0975 22.0613 31.1307 21.9543C31.1593 21.8593 31.2008 21.7699 31.2552 21.686C31.3087 21.6011 31.3728 21.5301 31.4475 21.473C31.5222 21.4158 31.6052 21.3766 31.6965 21.3554C31.7878 21.3342 31.886 21.3397 31.9911 21.372L31.886 21.715C31.8242 21.6957 31.7675 21.6906 31.7158 21.6998C31.6642 21.7081 31.6181 21.727 31.5775 21.7565C31.5369 21.786 31.5023 21.8252 31.4738 21.8741C31.4443 21.923 31.4203 21.9774 31.4018 22.0373C31.365 22.1572 31.3617 22.2545 31.3922 22.3292C31.4217 22.4039 31.4765 22.4537 31.5568 22.4785Z" fill="white"/>
<path d="M31.8229 25.0671L32.0885 24.4806L30.4688 23.7475L30.6154 23.4238L32.2351 24.1555L32.4979 23.5732L32.7621 23.6922L32.0857 25.1874L31.8229 25.0671Z" fill="white"/>
<path d="M30.2152 26.0958L30.6579 25.371L30.1156 25.0404L29.5983 25.887L29.3535 25.7376L30.0576 24.584L31.8211 25.6615L31.1226 26.8054L30.8764 26.6546L31.3868 25.8164L30.8999 25.519L30.4587 26.2438L30.2152 26.0958Z" fill="white"/>
<path d="M30.4931 27.6663L28.8956 27.1089L29.7296 28.5806L29.4322 28.9361L27.8457 27.611L28.0753 27.3371L28.5982 27.7742L29.2745 28.3856L28.4446 26.8959L28.6092 26.6981L30.2206 27.2514L29.5 26.6953L28.9772 26.2582L29.2068 25.9844L30.7919 27.3095L30.4931 27.6663Z" fill="white"/>
<path d="M13.4216 22.8163C13.4151 22.9058 13.3953 22.9874 13.3621 23.0612C13.328 23.1359 13.2814 23.1999 13.2224 23.2534C13.1634 23.3069 13.0915 23.3489 13.0066 23.3793C12.9218 23.4088 12.8254 23.4236 12.7175 23.4236C12.605 23.4236 12.5041 23.4042 12.4146 23.3655C12.3252 23.3267 12.2496 23.2709 12.1878 23.1981C12.126 23.1253 12.0781 23.0367 12.0439 22.9325C12.0107 22.8283 11.9941 22.7117 11.9941 22.5826V22.4678C11.9941 22.3387 12.0117 22.222 12.0467 22.1178C12.0808 22.0136 12.1292 21.9251 12.1919 21.8523C12.2556 21.7794 12.3321 21.7232 12.4215 21.6835C12.511 21.6439 12.611 21.624 12.7217 21.624C12.8314 21.624 12.9283 21.6397 13.0122 21.6711C13.0952 21.7015 13.1662 21.7444 13.2252 21.7997C13.2833 21.8541 13.3289 21.9196 13.3621 21.9961C13.3953 22.0717 13.4161 22.1538 13.4244 22.2423H13.0633C13.0597 22.1907 13.0509 22.1446 13.0371 22.104C13.0232 22.0643 13.0029 22.0307 12.9762 22.003C12.9495 21.9763 12.9153 21.956 12.8739 21.9422C12.8324 21.9274 12.7816 21.92 12.7217 21.92C12.6 21.92 12.5091 21.9643 12.4492 22.0528C12.3902 22.1413 12.3607 22.2787 12.3607 22.465V22.5826C12.3607 22.6739 12.3671 22.7532 12.38 22.8205C12.393 22.8887 12.4137 22.9459 12.4423 22.992C12.4709 23.0381 12.5078 23.0722 12.5529 23.0944C12.5981 23.1174 12.653 23.1289 12.7175 23.1289C12.7747 23.1289 12.8236 23.1225 12.8642 23.1096C12.9057 23.0967 12.9402 23.0773 12.9679 23.0515C12.9956 23.0257 13.0172 22.9929 13.0329 22.9533C13.0477 22.9146 13.0574 22.8689 13.062 22.8163H13.4216Z" fill="#2E343D"/>
<path d="M14.7128 22.6402H14.0212V23.1091H14.8331V23.3996H13.6602V21.6484H14.8317V21.9403H14.0212V22.358H14.7128V22.6402Z" fill="#2E343D"/>
<path fill-rule="evenodd" clip-rule="evenodd" d="M15.6936 22.7578H15.4059V23.3996H15.0449V21.6484H15.6964C15.7969 21.6484 15.8873 21.66 15.9675 21.683C16.0477 21.7051 16.1155 21.7388 16.1708 21.784C16.2262 21.8283 16.2686 21.8831 16.2981 21.9486C16.3276 22.0141 16.3424 22.0901 16.3424 22.1768C16.3424 22.2414 16.3354 22.299 16.3216 22.3497C16.3069 22.4004 16.2861 22.4456 16.2594 22.4853C16.2317 22.5249 16.1985 22.56 16.1598 22.5904C16.122 22.6199 16.0786 22.6453 16.0298 22.6665L16.4088 23.383V23.3996H16.0215L15.6936 22.7578ZM15.4073 22.4659H15.6978C15.7448 22.4659 15.7863 22.4594 15.8223 22.4465C15.8582 22.4345 15.8878 22.417 15.9108 22.394C15.9348 22.3709 15.9528 22.3437 15.9647 22.3124C15.9767 22.2801 15.9827 22.2446 15.9827 22.2059C15.9827 22.1229 15.9592 22.0579 15.9122 22.0108C15.8652 21.9638 15.7932 21.9403 15.6964 21.9403H15.4073V22.4659Z" fill="#2E343D"/>
<path d="M17.8733 21.9403H17.3367V23.3996H16.977V21.9403H16.4473V21.6484H17.8733V21.9403Z" fill="#2E343D"/>
<path d="M18.4626 23.3996H18.1016V21.6484H18.4626V23.3996Z" fill="#2E343D"/>
<path d="M19.8528 22.6831H19.1598V23.3996H18.7988V21.6484H19.9386V21.9403H19.1598V22.3926H19.8528V22.6831Z" fill="#2E343D"/>
<path d="M20.5309 23.3996H20.1699V21.6484H20.5309V23.3996Z" fill="#2E343D"/>
<path d="M21.9179 22.6402H21.2249V23.1091H22.0382V23.3996H20.8652V21.6484H22.0354V21.9403H21.2249V22.358H21.9179V22.6402Z" fill="#2E343D"/>
<path fill-rule="evenodd" clip-rule="evenodd" d="M22.25 23.3996V21.6484H22.7894C22.9075 21.6484 23.0154 21.6687 23.1131 21.7093C23.2118 21.7499 23.2962 21.8066 23.3662 21.8794C23.4363 21.9532 23.4907 22.0413 23.5295 22.1436C23.5691 22.246 23.5889 22.3599 23.5889 22.4853V22.5641C23.5889 22.6895 23.5696 22.8034 23.5308 22.9058C23.4921 23.0081 23.4372 23.0957 23.3662 23.1686C23.2952 23.2423 23.2104 23.299 23.1117 23.3387C23.0131 23.3793 22.9043 23.3996 22.7853 23.3996H22.25ZM22.611 21.9403V23.1091H22.7853C22.9282 23.1091 23.037 23.0621 23.1117 22.968C23.1864 22.8739 23.2238 22.7393 23.2238 22.5641V22.4825C23.2238 22.3045 23.1869 22.1699 23.1131 22.0786C23.0393 21.9864 22.9315 21.9403 22.7894 21.9403H22.611Z" fill="#2E343D"/>
</svg>
