<svg width="36" height="36" viewBox="0 0 36 36" fill="none" xmlns="http://www.w3.org/2000/svg">
<path d="M18.0563 0.000932666C8.19683 -0.100041 -0.00138302 8.01102 1.75003e-07 17.8718C1.75003e-07 25.5513 4.84395 32.0994 11.6437 34.6265V28.4076C8.04467 26.2748 5.63099 22.352 5.63376 17.8635C5.63652 11.209 11.0407 5.72737 17.6966 5.63469C24.5351 5.53925 30.108 11.0541 30.108 17.8718C30.108 22.3562 27.6944 26.2761 24.0967 28.4076V34.6265C30.8965 32.0994 35.7418 25.5513 35.7418 17.8718C35.7418 8.06358 27.841 0.100523 18.0563 0.000932666Z" fill="#CE2B4B"/>
<path d="M12.6113 34.8933V26.2179C12.6113 25.6079 13.1065 25.1113 13.7179 25.1113H22.0226C22.6326 25.1113 23.1292 25.6079 23.1292 26.2179V34.8933C23.1292 35.5047 22.6326 35.9999 22.0226 35.9999H13.7179C13.1065 35.9999 12.6113 35.5047 12.6113 34.8933Z" fill="#CE2B4B"/>
<path d="M14.2773 13.3446V9.65428C14.2773 9.60448 14.3105 9.57129 14.3603 9.57129H14.7241C14.7725 9.57129 14.8057 9.60448 14.8057 9.65428V13.3446C14.8057 13.3944 14.7725 13.4276 14.7241 13.4276H14.3603C14.3105 13.4276 14.2773 13.3944 14.2773 13.3446Z" fill="black"/>
<path d="M15.5332 12.3965V12.2637C15.5332 12.2153 15.5664 12.1821 15.6162 12.1821H15.9689C16.0173 12.1821 16.0505 12.2153 16.0505 12.2637V12.3688C16.0505 12.7326 16.3866 13.0134 16.9372 13.0134C17.4614 13.0134 17.7034 12.7658 17.7034 12.4352C17.7034 12.088 17.4061 11.9345 16.7615 11.6745C16.1335 11.4324 15.583 11.2125 15.583 10.5403C15.583 9.90121 16.0727 9.52637 16.8389 9.52637C17.6647 9.52637 18.1986 9.96761 18.1986 10.6232V10.7049C18.1986 10.7546 18.1668 10.7878 18.117 10.7878H17.7588C17.709 10.7878 17.6758 10.7602 17.6758 10.7159V10.6509C17.6758 10.2816 17.3729 9.9842 16.8168 9.9842C16.359 9.9842 16.1003 10.1765 16.1003 10.5292C16.1003 10.8985 16.3866 11.0188 17.0367 11.2678C17.6481 11.5043 18.2318 11.7464 18.2318 12.4186C18.2318 13.0466 17.7311 13.4712 16.8998 13.4712C16.0671 13.4712 15.5332 13.0466 15.5332 12.3965Z" fill="black"/>
<path fill-rule="evenodd" clip-rule="evenodd" d="M18.8418 12.1544V10.8432C18.8418 10.0561 19.3868 9.52637 20.2029 9.52637C21.0231 9.52637 21.5681 10.0561 21.5681 10.8432V12.1544C21.5681 12.947 21.0231 13.4768 20.2029 13.4768C19.3868 13.4768 18.8418 12.947 18.8418 12.1544ZM21.0397 12.1766V10.8376C21.0397 10.3259 20.7036 9.9842 20.2029 9.9842C19.7063 9.9842 19.3702 10.3259 19.3702 10.8376V12.1766C19.3702 12.6828 19.7063 13.0189 20.2029 13.0189C20.7036 13.0189 21.0397 12.6828 21.0397 12.1766Z" fill="black"/>
<path d="M14.2773 13.3446V9.65428C14.2773 9.60448 14.3105 9.57129 14.3603 9.57129H14.7241C14.7725 9.57129 14.8057 9.60448 14.8057 9.65428V13.3446C14.8057 13.3944 14.7725 13.4276 14.7241 13.4276H14.3603C14.3105 13.4276 14.2773 13.3944 14.2773 13.3446Z" fill="#2E343D"/>
<path d="M15.5332 12.3965V12.2637C15.5332 12.2153 15.5664 12.1821 15.6162 12.1821H15.9689C16.0173 12.1821 16.0505 12.2153 16.0505 12.2637V12.3688C16.0505 12.7326 16.3866 13.0134 16.9372 13.0134C17.4614 13.0134 17.7034 12.7658 17.7034 12.4352C17.7034 12.088 17.4061 11.9345 16.7615 11.6745C16.1335 11.4324 15.583 11.2125 15.583 10.5403C15.583 9.90121 16.0727 9.52637 16.8389 9.52637C17.6647 9.52637 18.1986 9.96761 18.1986 10.6232V10.7049C18.1986 10.7546 18.1668 10.7878 18.117 10.7878H17.7588C17.709 10.7878 17.6758 10.7602 17.6758 10.7159V10.6509C17.6758 10.2816 17.3729 9.9842 16.8168 9.9842C16.359 9.9842 16.1003 10.1765 16.1003 10.5292C16.1003 10.8985 16.3866 11.0188 17.0367 11.2678C17.6481 11.5043 18.2318 11.7464 18.2318 12.4186C18.2318 13.0466 17.7311 13.4712 16.8998 13.4712C16.0671 13.4712 15.5332 13.0466 15.5332 12.3965Z" fill="#2E343D"/>
<path fill-rule="evenodd" clip-rule="evenodd" d="M18.8418 12.1544V10.8432C18.8418 10.0561 19.3868 9.52637 20.2029 9.52637C21.0231 9.52637 21.5681 10.0561 21.5681 10.8432V12.1544C21.5681 12.947 21.0231 13.4768 20.2029 13.4768C19.3868 13.4768 18.8418 12.947 18.8418 12.1544ZM21.0397 12.1766V10.8376C21.0397 10.3259 20.7036 9.9842 20.2029 9.9842C19.7063 9.9842 19.3702 10.3259 19.3702 10.8376V12.1766C19.3702 12.6828 19.7063 13.0189 20.2029 13.0189C20.7036 13.0189 21.0397 12.6828 21.0397 12.1766Z" fill="#2E343D"/>
<path d="M12.0646 17.9947V18.7056C12.0646 18.7914 12.0176 18.8384 11.9319 18.8384H11.6511C11.6197 18.8384 11.604 18.8541 11.604 18.8854V20.1109C11.604 20.1967 11.557 20.2437 11.4712 20.2437H10.6358C10.55 20.2437 10.503 20.1967 10.503 20.1109V18.8854C10.503 18.8541 10.4873 18.8384 10.456 18.8384H8.09763C8.01187 18.8384 7.96484 18.7914 7.96484 18.7056V18.1427C7.96484 18.0804 7.97176 18.0417 7.99527 17.9794L9.38538 14.8797C9.41719 14.8161 9.47114 14.7773 9.54168 14.7773H10.4325C10.5334 14.7773 10.5722 14.8479 10.5334 14.9336L9.2526 17.8079C9.23738 17.8467 9.2609 17.8619 9.29271 17.8619H10.456C10.4873 17.8619 10.503 17.8462 10.503 17.8148V16.8936C10.503 16.8079 10.55 16.7608 10.6358 16.7608H11.4712C11.557 16.7608 11.604 16.8079 11.604 16.8936V17.8148C11.604 17.8384 11.6192 17.8619 11.6511 17.8619H11.9319C12.0176 17.8619 12.0646 17.9089 12.0646 17.9947Z" fill="#2E343D"/>
<path d="M16.3424 18.494C16.3424 18.7526 16.3036 18.9947 16.2179 19.2133C15.9841 19.8689 15.3437 20.2991 14.5235 20.2991C13.7267 20.2991 13.0946 19.8841 12.8443 19.2368C12.7903 19.1109 12.7585 18.9795 12.735 18.8467C12.7198 18.7596 12.7737 18.7056 12.8595 18.7056H13.7267C13.8056 18.7056 13.8512 18.7444 13.8747 18.8149C13.883 18.8536 13.8982 18.8854 13.9148 18.9242C14.0075 19.1897 14.2261 19.346 14.5235 19.346C14.7973 19.346 14.9993 19.205 15.1016 18.9864C15.1251 18.9325 15.1487 18.8924 15.1639 18.8384C15.2026 18.7291 15.2178 18.6046 15.2178 18.5175C15.2261 18.3847 15.2026 18.2298 15.1487 18.0887C15.0781 17.8148 14.843 17.6668 14.5235 17.6668C14.2814 17.6668 14.0476 17.7526 13.9218 17.9559C13.883 18.0265 13.836 18.0569 13.7655 18.0569H12.8678C12.782 18.0569 12.735 18.0099 12.735 17.9241V14.9101C12.735 14.8244 12.782 14.7773 12.8678 14.7773H16.0145C16.1003 14.7773 16.1473 14.8244 16.1473 14.9101V15.5893C16.1473 15.675 16.1003 15.7221 16.0145 15.7221H13.883C13.8595 15.7221 13.836 15.7456 13.836 15.7691L13.8277 16.9019C13.8277 16.9407 13.8512 16.9559 13.883 16.9324C14.1251 16.7844 14.4059 16.7138 14.6881 16.7138C15.4142 16.7138 15.9993 17.1122 16.2262 17.7526C16.3036 18.0117 16.3424 18.2588 16.3424 18.494Z" fill="#2E343D"/>
<path fill-rule="evenodd" clip-rule="evenodd" d="M16.9219 18.5408V16.4798C16.9219 15.394 17.6328 14.7148 18.7809 14.7148C19.9276 14.7148 20.6468 15.394 20.6468 16.4798V18.5408C20.6468 19.6418 19.9276 20.3292 18.7809 20.3292C17.6328 20.3292 16.9219 19.6418 16.9219 18.5408ZM19.5458 18.5961V16.448C19.5458 15.9639 19.2484 15.6596 18.7809 15.6596C18.3189 15.6596 18.0229 15.9639 18.0229 16.448V18.5961C18.0229 19.0802 18.3189 19.3845 18.7809 19.3845C19.2484 19.3845 19.5458 19.0802 19.5458 18.5961Z" fill="#2E343D"/>
<path fill-rule="evenodd" clip-rule="evenodd" d="M21.332 18.5408V16.4798C21.332 15.394 22.043 14.7148 23.191 14.7148C24.3391 14.7148 25.057 15.394 25.057 16.4798V18.5408C25.057 19.6418 24.3391 20.3292 23.191 20.3292C22.043 20.3292 21.332 19.6418 21.332 18.5408ZM23.956 18.5961V16.448C23.956 15.9639 23.66 15.6596 23.191 15.6596C22.7304 15.6596 22.4331 15.9639 22.4331 16.448V18.5961C22.4331 19.0802 22.7304 19.3845 23.191 19.3845C23.66 19.3845 23.956 19.0802 23.956 18.5961Z" fill="#2E343D"/>
<path d="M26.5019 14.7773H27.3844C27.4702 14.7773 27.5172 14.8244 27.5172 14.9101V20.1109C27.5172 20.1967 27.4702 20.2437 27.3844 20.2437H26.549C26.4632 20.2437 26.4162 20.1967 26.4162 20.1109V15.8549C26.4162 15.8244 26.3927 15.8009 26.3608 15.8078L25.6734 15.9489C25.5876 15.9641 25.5254 15.9171 25.5254 15.8313V15.2379C25.5254 15.1674 25.5572 15.1135 25.6264 15.0899L26.3373 14.8092C26.3927 14.7856 26.4397 14.7773 26.5019 14.7773Z" fill="#2E343D"/>
<path d="M17.2728 33.3969C17.0861 33.3969 16.9408 33.2461 16.8481 33.1327C16.0763 32.1907 15.541 31.8754 15.2201 31.6859C14.9781 31.5434 14.6392 31.4314 14.7083 31.1395C14.7222 31.0828 14.7291 31.0275 14.7443 30.9749C14.8522 30.6208 15.0832 30.2639 15.382 30.2971C15.5064 30.3096 15.6738 30.3649 15.8619 30.4631C16.4553 30.7716 16.7347 31.1437 16.9436 31.4092C17.0861 31.1699 17.3821 30.7162 17.9381 30.015C19.2867 28.3136 20.616 27.5999 20.8691 27.474C20.9087 27.4537 20.9516 27.4422 20.9977 27.4395H21.0171C21.154 27.4395 21.1513 27.5211 21.2025 27.6469C21.2536 27.7728 21.3477 27.9153 21.2495 28.0107C20.9701 28.2846 20.4694 28.8171 19.6768 29.7978C18.8884 30.7743 18.4361 31.6859 18.1055 32.3512C17.7707 33.0248 17.7334 33.3969 17.4208 33.3969H17.2728Z" fill="white"/>
<path fill-rule="evenodd" clip-rule="evenodd" d="M4.64063 25.0722C4.77342 24.9892 4.90344 24.9316 5.0307 24.8993C5.15795 24.868 5.27829 24.861 5.39171 24.8786C5.50421 24.8952 5.60841 24.9357 5.70431 25.0003C5.79929 25.0648 5.8809 25.1511 5.94914 25.2589C6.01646 25.3659 6.05841 25.4761 6.07501 25.5895C6.09161 25.7039 6.08377 25.8164 6.0515 25.927C6.01922 26.0368 5.96159 26.1428 5.8786 26.2452C5.79561 26.3475 5.68771 26.4402 5.55493 26.5232L5.46502 26.5799C5.33224 26.6638 5.20175 26.721 5.07358 26.7514C4.9454 26.7828 4.8246 26.7897 4.71118 26.7722C4.59776 26.7546 4.49309 26.7141 4.39719 26.6504C4.30221 26.5859 4.22107 26.5001 4.15376 26.3932C4.08552 26.2853 4.04309 26.1742 4.0265 26.0598C4.00897 25.9455 4.01727 25.8334 4.05139 25.7237C4.08459 25.614 4.14315 25.5084 4.22706 25.4069C4.31097 25.3055 4.41932 25.2128 4.55211 25.1289L4.64063 25.0722ZM4.74023 25.4332C4.64248 25.495 4.56226 25.5586 4.49955 25.6241C4.43685 25.6905 4.3912 25.7574 4.36261 25.8247C4.33495 25.8929 4.32481 25.9616 4.33218 26.0308C4.33956 26.099 4.36399 26.1663 4.40549 26.2327C4.44606 26.2982 4.49586 26.3484 4.55488 26.3835C4.61389 26.4194 4.67982 26.4397 4.75267 26.4443C4.82644 26.449 4.90667 26.4374 4.99335 26.4098C5.08095 26.3821 5.17363 26.3378 5.27137 26.277L5.36267 26.2189C5.46041 26.1571 5.54064 26.093 5.60334 26.0266C5.66605 25.9593 5.71123 25.8911 5.73889 25.8219C5.76656 25.7537 5.77716 25.685 5.7707 25.6158C5.76333 25.5466 5.73936 25.4798 5.69878 25.4152C5.61395 25.2806 5.49729 25.2096 5.34883 25.2022C5.20129 25.1939 5.02885 25.252 4.83152 25.3765L4.74023 25.4332Z" fill="white"/>
<path d="M3.89886 22.6651C3.99661 22.6347 4.09205 22.6204 4.18518 22.6222C4.27924 22.625 4.36776 22.6453 4.45075 22.6831C4.53467 22.7218 4.61121 22.779 4.68037 22.8546C4.74953 22.9311 4.80854 23.028 4.85741 23.1451C4.90629 23.2622 4.92888 23.377 4.92519 23.4895C4.92242 23.602 4.89569 23.7076 4.84497 23.8062C4.79425 23.9058 4.72094 23.9967 4.62504 24.0787C4.52914 24.1608 4.41203 24.2304 4.27371 24.2876L4.11879 24.3512C3.98139 24.4084 3.84952 24.4416 3.72319 24.4508C3.59686 24.46 3.47975 24.4471 3.37186 24.4121C3.26582 24.3761 3.1713 24.3189 3.08831 24.2406C3.00532 24.1613 2.93892 24.0617 2.88913 23.9418C2.8421 23.8284 2.81674 23.7214 2.81305 23.6209C2.80936 23.5195 2.82411 23.4263 2.85731 23.3415C2.89051 23.2567 2.9403 23.1801 3.0067 23.1119C3.07217 23.0446 3.15055 22.9865 3.24184 22.9376L3.37878 23.2668C3.3216 23.2991 3.27273 23.3337 3.23216 23.3705C3.19066 23.4074 3.15977 23.4489 3.13949 23.495C3.11828 23.5402 3.10905 23.5905 3.11182 23.6458C3.11459 23.7011 3.1298 23.7629 3.15747 23.8311C3.18882 23.9058 3.23031 23.9658 3.28195 24.011C3.33359 24.0552 3.39445 24.0852 3.46453 24.1009C3.53369 24.1156 3.61161 24.1161 3.69829 24.1022C3.78405 24.0884 3.87719 24.0608 3.9777 24.0193L4.13539 23.9542C4.23037 23.9146 4.31336 23.8703 4.38436 23.8215C4.45537 23.7726 4.51161 23.7191 4.55311 23.661C4.59368 23.6029 4.61812 23.5402 4.62642 23.4729C4.6338 23.4047 4.62181 23.3323 4.59046 23.2557C4.56003 23.1838 4.52637 23.1266 4.48949 23.0842C4.4526 23.0418 4.4111 23.0114 4.365 22.9929C4.31981 22.9736 4.26955 22.9648 4.21422 22.9666C4.15982 22.9685 4.10034 22.9782 4.03579 22.9957L3.89886 22.6651Z" fill="white"/>
<path d="M3.29637 20.3236C3.39689 20.3098 3.49324 20.3116 3.58546 20.3291C3.67767 20.3467 3.76158 20.3812 3.8372 20.4329C3.91281 20.4845 3.97875 20.5537 4.035 20.6404C4.09125 20.727 4.13367 20.8322 4.16226 20.9557C4.18992 21.0793 4.19314 21.1964 4.17193 21.3071C4.15072 21.4168 4.10693 21.5164 4.04053 21.6058C3.97414 21.6953 3.88653 21.7727 3.77772 21.8382C3.66983 21.9028 3.54304 21.9521 3.39734 21.9862L3.23413 22.0236C3.08935 22.0568 2.9538 22.0674 2.82747 22.0554C2.70021 22.0443 2.58725 22.0125 2.48858 21.9599C2.38899 21.9064 2.30462 21.8341 2.23546 21.7428C2.16722 21.6515 2.11834 21.5427 2.08884 21.4163C2.06117 21.2965 2.0538 21.1863 2.06671 21.0857C2.08054 20.9862 2.11051 20.8972 2.15662 20.8188C2.20365 20.7404 2.26496 20.6731 2.34058 20.6168C2.41712 20.5615 2.50472 20.5173 2.60339 20.4841L2.68362 20.8312C2.62184 20.8534 2.56742 20.8797 2.52039 20.9101C2.47429 20.9396 2.4374 20.9751 2.40974 21.0166C2.38208 21.0581 2.36455 21.106 2.35718 21.1604C2.35072 21.2158 2.3558 21.2794 2.3724 21.3513C2.39084 21.4306 2.42173 21.4966 2.46507 21.5491C2.50933 21.6017 2.5642 21.6413 2.62967 21.6681C2.69514 21.6939 2.77168 21.7073 2.85928 21.7082C2.94688 21.7091 3.04371 21.6971 3.14975 21.6722L3.31573 21.6349C3.41624 21.6109 3.50569 21.5809 3.58407 21.545C3.66153 21.5081 3.72562 21.4647 3.77634 21.4149C3.82613 21.3642 3.86025 21.3061 3.87869 21.2407C3.89806 21.1752 3.89852 21.1019 3.88008 21.0207C3.86256 20.9451 3.83904 20.8833 3.80953 20.8354C3.78003 20.7874 3.74407 20.7501 3.70165 20.7233C3.66015 20.6975 3.6122 20.6809 3.55779 20.6736C3.50338 20.6662 3.44299 20.6657 3.37659 20.6722L3.29637 20.3236Z" fill="white"/>
<path d="M1.69922 18.0594L3.07826 17.9736C3.19629 17.9662 3.30096 17.9801 3.39225 18.0151C3.48354 18.0492 3.561 18.0995 3.62463 18.1659C3.68917 18.2323 3.73897 18.3111 3.77401 18.4024C3.80998 18.4946 3.83118 18.5942 3.83764 18.7012C3.84409 18.8109 3.83533 18.9137 3.81135 19.0096C3.78738 19.1055 3.74773 19.1899 3.6924 19.2627C3.638 19.3356 3.56745 19.3941 3.48077 19.4384C3.39409 19.4827 3.29174 19.508 3.1737 19.5145L1.79328 19.6002L1.77252 19.2434L3.15157 19.1576C3.22535 19.153 3.28851 19.1396 3.34107 19.1175C3.39271 19.0945 3.43513 19.064 3.46832 19.0262C3.5006 18.9884 3.52365 18.9432 3.53748 18.8907C3.55039 18.839 3.555 18.7814 3.55131 18.7178C3.54762 18.6551 3.53563 18.5983 3.51535 18.5476C3.49598 18.4969 3.46786 18.455 3.43097 18.4218C3.39317 18.3886 3.34706 18.3641 3.29266 18.3484C3.23825 18.3319 3.17416 18.3259 3.10039 18.3305L1.72135 18.4162L1.69922 18.0594Z" fill="white"/>
<path fill-rule="evenodd" clip-rule="evenodd" d="M3.05247 16.6984L3.81739 16.7745L3.78142 17.1313L1.72461 16.9266L1.80345 16.1396C1.81544 16.0197 1.84218 15.9151 1.88367 15.8256C1.92609 15.7362 1.97958 15.6624 2.04413 15.6043C2.10868 15.5462 2.18291 15.5042 2.26682 15.4784C2.34981 15.4535 2.43833 15.4457 2.53239 15.4549C2.63198 15.4651 2.71959 15.4909 2.7952 15.5324C2.87174 15.5729 2.93398 15.6283 2.98193 15.6984C3.02988 15.7675 3.064 15.85 3.08429 15.9459C3.10365 16.0418 3.10734 16.1493 3.09535 16.2682L3.05247 16.6984ZM2.76615 16.6707L2.80903 16.2406C2.81641 16.1723 2.8141 16.1124 2.80212 16.0608C2.79013 16.01 2.76984 15.9672 2.74126 15.9321C2.71359 15.8971 2.67901 15.8699 2.63752 15.8505C2.59602 15.8321 2.54991 15.8201 2.4992 15.8145C2.45125 15.8099 2.40468 15.8127 2.35949 15.8228C2.31339 15.833 2.27143 15.8523 2.23362 15.8809C2.19674 15.9095 2.16539 15.9473 2.13957 15.9944C2.11467 16.0423 2.09853 16.1004 2.09115 16.1686L2.04827 16.5988L2.76615 16.6707Z" fill="white"/>
<path fill-rule="evenodd" clip-rule="evenodd" d="M3.84107 13.8739L3.64328 14.6512L4.0693 14.9306L3.97801 15.293L2.16602 14.0288L2.24486 13.7162L4.43999 13.4658L4.3487 13.8296L3.84107 13.8739ZM3.38876 14.4811L3.53538 13.9001L2.63078 13.9804L3.38876 14.4811Z" fill="white"/>
<path d="M3.5589 10.9402L3.30855 11.5349L4.94625 12.2252L4.80793 12.553L3.17023 11.8628L2.92125 12.4506L2.6543 12.3386L3.29195 10.8281L3.5589 10.9402Z" fill="white"/>
<path d="M5.74563 10.6704L5.56582 10.9802L3.77734 9.94558L3.95577 9.63574L5.74563 10.6704Z" fill="white"/>
<path fill-rule="evenodd" clip-rule="evenodd" d="M6.43555 8.00955C6.56004 8.10545 6.65916 8.20735 6.73294 8.31524C6.80671 8.42405 6.85465 8.5347 6.87678 8.6472C6.89984 8.75878 6.89753 8.87036 6.86987 8.98194C6.84313 9.09352 6.79057 9.20002 6.71219 9.30146C6.63473 9.40197 6.54574 9.47943 6.44523 9.53383C6.34379 9.58916 6.23545 9.62051 6.12018 9.62789C6.00584 9.63527 5.88642 9.61775 5.76193 9.57533C5.63744 9.53199 5.51296 9.46237 5.38847 9.36647L5.30548 9.30284C5.18099 9.20694 5.08232 9.10412 5.00947 8.99439C4.93662 8.88465 4.88867 8.77354 4.86562 8.66104C4.84257 8.54761 4.84441 8.43557 4.87115 8.32492C4.89881 8.21334 4.95138 8.1073 5.02884 8.00678C5.10722 7.90535 5.19713 7.82697 5.29856 7.77164C5.39907 7.71631 5.50697 7.68542 5.62223 7.67897C5.73658 7.67251 5.85599 7.69141 5.98048 7.73568C6.10404 7.77902 6.22807 7.84864 6.35256 7.94454L6.43555 8.00955ZM6.13125 8.22809C6.03996 8.15801 5.95235 8.10453 5.86844 8.06764C5.78452 8.03168 5.70614 8.01232 5.63329 8.00955C5.56044 8.00678 5.49267 8.02062 5.42997 8.05105C5.36818 8.08148 5.31332 8.12758 5.26537 8.18937C5.21834 8.25023 5.18836 8.31431 5.17545 8.38163C5.16162 8.44895 5.16531 8.51811 5.18652 8.58911C5.20773 8.65919 5.246 8.73066 5.30133 8.80351C5.35758 8.87543 5.43135 8.9469 5.52264 9.0179L5.6084 9.08291C5.69969 9.15391 5.78775 9.2074 5.87259 9.24336C5.9565 9.27932 6.0358 9.29823 6.1105 9.30007C6.18427 9.30284 6.2525 9.28901 6.31521 9.25858C6.37699 9.22815 6.4314 9.1825 6.47843 9.12164C6.57526 8.99623 6.60199 8.86252 6.55865 8.72051C6.51531 8.57851 6.40143 8.4365 6.21701 8.29449L6.13125 8.22809Z" fill="white"/>
<path d="M8.9405 6.94128L8.67492 7.18333L7.00541 6.72273L7.99439 7.80577L7.7302 8.04783L6.33594 6.52217L6.60012 6.28011L8.27518 6.74348L7.28205 5.65629L7.54485 5.41699L8.9405 6.94128Z" fill="white"/>
<path fill-rule="evenodd" clip-rule="evenodd" d="M10.3407 5.39641L9.66573 5.82659L9.7833 6.32177L9.46793 6.52372L9.01562 4.3604L9.28673 4.1875L11.0572 5.50984L10.7419 5.7104L10.3407 5.39641ZM9.59518 5.5292L10.1001 5.20692L9.38632 4.64534L9.59518 5.5292Z" fill="white"/>
<path d="M11.8671 4.81829L12.7261 4.44206L12.8409 4.70487L11.6528 5.22495L10.8242 3.33135L11.1534 3.1875L11.8671 4.81829Z" fill="white"/>
<path d="M16.2859 3.88356L15.9332 3.94165L15.7838 3.03566L14.8723 3.18643L15.0217 4.09242L14.6676 4.1519L14.3301 2.11307L14.6842 2.05359L14.8253 2.90287L15.7368 2.7521L15.5957 1.90282L15.9498 1.84473L16.2859 3.88356Z" fill="white"/>
<path d="M18.331 2.89667L17.4831 2.9105L17.4928 3.54539L18.4845 3.53017L18.49 3.81649L17.1387 3.83863L17.1055 1.77213L18.4458 1.75L18.4513 2.04047L17.4693 2.05569L17.4789 2.62556L18.3268 2.61311L18.331 2.89667Z" fill="white"/>
<path fill-rule="evenodd" clip-rule="evenodd" d="M20.4062 3.57927L19.615 3.45755L19.3771 3.90709L19.0078 3.85038L20.095 1.92773L20.4131 1.97615L20.871 4.13808L20.5003 4.08137L20.4062 3.57927ZM19.7589 3.18644L20.3509 3.27773L20.1863 2.38419L19.7589 3.18644Z" fill="white"/>
<path d="M23.3007 3.02158L22.6866 2.82932L22.1527 4.52373L21.8138 4.41723L22.3463 2.72143L21.7363 2.53055L21.8235 2.25391L23.3879 2.74632L23.3007 3.02158Z" fill="white"/>
<path d="M24.8624 5.72134L24.5443 5.55951L24.9606 4.74066L24.1376 4.32155L23.7213 5.13902L23.4004 4.9758L24.3396 3.13477L24.6605 3.29798L24.269 4.06427L25.092 4.48477L25.4835 3.71847L25.8016 3.88031L24.8624 5.72134Z" fill="white"/>
<path fill-rule="evenodd" clip-rule="evenodd" d="M27.7278 7.29926L27.1316 6.76535L26.6862 7.01156L26.4082 6.76258L28.3682 5.74316L28.6075 5.95756L27.8122 8.01991L27.5327 7.76955L27.7278 7.29926ZM27.4 6.61734L27.8467 7.01709L28.1953 6.17749L27.4 6.61734Z" fill="white"/>
<path d="M29.2641 9.78149L29.0414 9.49931L29.6182 7.86714L28.4688 8.77729L28.2461 8.4965L29.8658 7.21289L30.0885 7.49368L29.509 9.13277L30.6625 8.21847L30.8839 8.49788L29.2641 9.78149Z" fill="white"/>
<path fill-rule="evenodd" clip-rule="evenodd" d="M29.7188 10.4787L31.5321 9.48828L31.8254 10.0236C31.8918 10.1453 31.9319 10.267 31.9457 10.3887C31.9595 10.5114 31.9485 10.629 31.9125 10.7415C31.8765 10.8549 31.8161 10.9605 31.7313 11.0582C31.6474 11.156 31.5395 11.2408 31.4076 11.3127L31.3177 11.3611C31.1868 11.4331 31.0577 11.4782 30.9304 11.4967C30.8032 11.5151 30.6824 11.5082 30.568 11.4759C30.4537 11.4446 30.3481 11.3888 30.2513 11.3086C30.1545 11.2283 30.0719 11.1255 30.0037 11.0001L29.7188 10.4787ZM31.4505 9.94197L30.142 10.6557L30.254 10.8618C30.3011 10.9466 30.3559 11.0139 30.4186 11.0637C30.4823 11.1135 30.5519 11.1454 30.6275 11.1592C30.7031 11.1739 30.7847 11.1712 30.8723 11.1509C30.9599 11.1315 31.0508 11.096 31.1448 11.0444L31.2375 10.9946C31.4339 10.8867 31.5607 10.7617 31.6179 10.6197C31.6751 10.4777 31.6594 10.3251 31.5709 10.1619L31.4505 9.94197Z" fill="white"/>
<path d="M31.9584 14.6007C31.998 14.5906 32.0321 14.5753 32.0607 14.5551C32.0893 14.5357 32.1128 14.5066 32.1313 14.4679C32.1497 14.4292 32.164 14.3789 32.1741 14.3172C32.1843 14.2554 32.1917 14.1779 32.1963 14.0848C32.2 13.9815 32.2097 13.8851 32.2253 13.7957C32.241 13.7053 32.2659 13.6246 32.3 13.5536C32.3332 13.4835 32.3775 13.4236 32.4328 13.3738C32.4872 13.3249 32.5555 13.2899 32.6375 13.2687C32.7178 13.2484 32.7961 13.2466 32.8727 13.2632C32.9492 13.2798 33.0202 13.313 33.0857 13.3627C33.1512 13.4125 33.2088 13.4776 33.2586 13.5578C33.3093 13.638 33.348 13.7307 33.3748 13.8358C33.4034 13.9483 33.413 14.0539 33.4038 14.1526C33.3946 14.2503 33.3697 14.3374 33.3291 14.414C33.2895 14.4896 33.2369 14.5537 33.1714 14.6062C33.106 14.6579 33.0317 14.6943 32.9487 14.7155L32.8602 14.3697C32.9082 14.3568 32.9506 14.3379 32.9875 14.313C33.0244 14.2872 33.0539 14.2549 33.076 14.2162C33.0981 14.1775 33.111 14.1318 33.1147 14.0792C33.1193 14.0276 33.1133 13.969 33.0967 13.9036C33.0811 13.8427 33.0603 13.7915 33.0345 13.75C33.0096 13.7085 32.981 13.6763 32.9487 13.6532C32.9155 13.6292 32.8805 13.6145 32.8436 13.609C32.8058 13.6034 32.7671 13.6057 32.7274 13.6159C32.6537 13.6352 32.6011 13.6864 32.5698 13.7694C32.5375 13.8524 32.519 13.9714 32.5144 14.1263C32.5098 14.2471 32.4983 14.354 32.4798 14.4472C32.4605 14.5394 32.4324 14.6196 32.3955 14.6878C32.3586 14.7552 32.3115 14.8105 32.2544 14.8538C32.1981 14.8963 32.1299 14.9276 32.0497 14.9479C31.9658 14.97 31.8855 14.9728 31.809 14.9562C31.7334 14.9405 31.6642 14.9078 31.6015 14.858C31.5379 14.8082 31.4821 14.7423 31.4341 14.6602C31.3862 14.579 31.3484 14.4845 31.3207 14.3766C31.2958 14.2798 31.2848 14.1816 31.2875 14.082C31.2894 13.9815 31.3074 13.8874 31.3415 13.7998C31.3747 13.7122 31.4249 13.6357 31.4922 13.5702C31.5596 13.5038 31.6462 13.4573 31.7523 13.4305L31.8422 13.7777C31.7786 13.7943 31.7269 13.8197 31.6873 13.8538C31.6476 13.8879 31.6186 13.928 31.6001 13.9741C31.5808 14.0202 31.5715 14.0719 31.5725 14.129C31.5725 14.1853 31.5803 14.2443 31.596 14.3061C31.6273 14.4269 31.6753 14.5113 31.7398 14.5592C31.8044 14.6081 31.8772 14.6219 31.9584 14.6007Z" fill="white"/>
<path fill-rule="evenodd" clip-rule="evenodd" d="M32.2356 16.9124L32.1651 16.1143L31.6699 15.9912L31.6367 15.6191L33.7655 16.2111L33.7945 16.5321L31.8055 17.4961L31.7723 17.1227L32.2356 16.9124ZM32.4611 16.1904L32.5151 16.7866L33.3422 16.4117L32.4611 16.1904Z" fill="white"/>
<path d="M32.5833 19.4011L32.6359 18.5712L31.7617 18.5145L31.7852 18.1562L33.8476 18.289L33.7632 19.6003L33.4741 19.5809L33.5364 18.6293L32.9222 18.5892L32.8683 19.4191L32.5833 19.4011Z" fill="white"/>
<path d="M32.2448 21.5477L32.4218 20.7178L31.8008 20.5837L31.5933 21.5547L31.3125 21.4938L31.5947 20.1729L33.6169 20.6058L33.3361 21.9171L33.0526 21.8562L33.2587 20.8963L32.6998 20.7773L32.5228 21.6072L32.2448 21.5477Z" fill="white"/>
<path d="M32.2218 24.2383L32.4514 23.6366L30.793 23.0003L30.9202 22.667L32.5801 23.3033L32.8083 22.7071L33.078 22.8108L32.4915 24.342L32.2218 24.2383Z" fill="white"/>
<path d="M30.8469 25.3688L31.4569 26.2721L31.2577 26.6151L30.4748 25.3619L29.8164 24.9815L29.9962 24.6689L30.6546 25.0493L32.1333 25.1033L31.9327 25.4491L30.8469 25.3688Z" fill="white"/>
<path d="M13.4216 22.8159C13.4151 22.9054 13.3953 22.9874 13.3621 23.0621C13.328 23.1368 13.2814 23.2005 13.2224 23.253C13.1634 23.3065 13.0915 23.3485 13.0066 23.3789C12.9218 23.4084 12.8254 23.4232 12.7175 23.4232C12.605 23.4232 12.5041 23.4038 12.4146 23.3651C12.3252 23.3263 12.2496 23.2705 12.1878 23.1977C12.126 23.1248 12.0781 23.0363 12.0439 22.9321C12.0107 22.8288 11.9941 22.7127 11.9941 22.5836V22.4674C11.9941 22.3383 12.0117 22.2216 12.0467 22.1174C12.0808 22.0132 12.1292 21.9247 12.1919 21.8518C12.2556 21.779 12.3321 21.7227 12.4215 21.6831C12.511 21.6444 12.611 21.625 12.7217 21.625C12.8314 21.625 12.9283 21.6402 13.0122 21.6706C13.0952 21.702 13.1662 21.7449 13.2252 21.7993C13.2833 21.8546 13.3289 21.9201 13.3621 21.9957C13.3953 22.0713 13.4161 22.1538 13.4244 22.2433H13.0633C13.0597 22.1907 13.0509 22.1446 13.0371 22.105C13.0232 22.0644 13.0029 22.0307 12.9762 22.004C12.9495 21.9763 12.9153 21.9556 12.8739 21.9418C12.8324 21.9279 12.7816 21.921 12.7217 21.921C12.6 21.921 12.5091 21.9653 12.4492 22.0538C12.3902 22.1423 12.3607 22.2793 12.3607 22.4646V22.5836C12.3607 22.6739 12.3671 22.7532 12.38 22.8215C12.393 22.8897 12.4137 22.9464 12.4423 22.9916C12.4709 23.0377 12.5078 23.0723 12.5529 23.0953C12.5981 23.1175 12.653 23.1285 12.7175 23.1285C12.7747 23.1285 12.8236 23.1221 12.8642 23.1092C12.9057 23.0972 12.9402 23.0778 12.9679 23.0511C12.9956 23.0253 13.0172 22.9925 13.0329 22.9529C13.0477 22.9141 13.0574 22.8685 13.062 22.8159H13.4216Z" fill="#2E343D"/>
<path d="M14.7128 22.6402H14.0212V23.1091H14.8331V23.3996H13.6602V21.6484H14.8317V21.9403H14.0212V22.358H14.7128V22.6402Z" fill="#2E343D"/>
<path fill-rule="evenodd" clip-rule="evenodd" d="M15.6936 22.7591H15.4059V23.3996H15.0449V21.6484H15.6964C15.7969 21.6484 15.8873 21.66 15.9675 21.683C16.0477 21.7061 16.1155 21.7397 16.1708 21.784C16.2262 21.8283 16.2686 21.8831 16.2981 21.9486C16.3276 22.015 16.3424 22.0915 16.3424 22.1782C16.3424 22.2418 16.3354 22.299 16.3216 22.3497C16.3069 22.4014 16.2861 22.447 16.2594 22.4867C16.2317 22.5263 16.1985 22.5609 16.1598 22.5904C16.122 22.6199 16.0786 22.6453 16.0298 22.6665L16.4088 23.383V23.3996H16.0215L15.6936 22.7591ZM15.4073 22.4673H15.6978C15.7448 22.4673 15.7863 22.4608 15.8223 22.4479C15.8582 22.4359 15.8878 22.4184 15.9108 22.3954C15.9348 22.3723 15.9528 22.3451 15.9647 22.3138C15.9767 22.2815 15.9827 22.246 15.9827 22.2073C15.9827 22.1243 15.9592 22.0592 15.9122 22.0122C15.8652 21.9652 15.7932 21.9417 15.6964 21.9417H15.4073V22.4673Z" fill="#2E343D"/>
<path d="M17.8733 21.9403H17.3367V23.3996H16.977V21.9403H16.4473V21.6484H17.8733V21.9403Z" fill="#2E343D"/>
<path d="M18.4626 23.3996H18.1016V21.6484H18.4626V23.3996Z" fill="#2E343D"/>
<path d="M19.8528 22.6845H19.1598V23.3996H18.7988V21.6484H19.9386V21.9403H19.1598V22.3926H19.8528V22.6845Z" fill="#2E343D"/>
<path d="M20.5309 23.3996H20.1699V21.6484H20.5309V23.3996Z" fill="#2E343D"/>
<path d="M21.9179 22.6402H21.2249V23.1091H22.0382V23.3996H20.8652V21.6484H22.0354V21.9403H21.2249V22.358H21.9179V22.6402Z" fill="#2E343D"/>
<path fill-rule="evenodd" clip-rule="evenodd" d="M22.25 23.3996V21.6484H22.7894C22.9075 21.6484 23.0154 21.6687 23.1131 21.7093C23.2118 21.7499 23.2962 21.8066 23.3662 21.8794C23.4363 21.9532 23.4907 22.0413 23.5295 22.1436C23.5691 22.2469 23.5889 22.3608 23.5889 22.4853V22.5655C23.5889 22.69 23.5696 22.8034 23.5308 22.9058C23.4921 23.0081 23.4372 23.0957 23.3662 23.1686C23.2952 23.2423 23.2104 23.2995 23.1117 23.3401C23.0131 23.3797 22.9043 23.3996 22.7853 23.3996H22.25ZM22.611 21.9403V23.1091H22.7853C22.9282 23.1091 23.037 23.0621 23.1117 22.968C23.1864 22.874 23.2238 22.7398 23.2238 22.5655V22.4825C23.2238 22.3045 23.1869 22.1699 23.1131 22.0786C23.0393 21.9864 22.9315 21.9403 22.7894 21.9403H22.611Z" fill="#2E343D"/>
</svg>
