<svg width="36" height="36" viewBox="0 0 36 36" fill="none" xmlns="http://www.w3.org/2000/svg">
<path d="M18.0562 0.000932664C8.1968 -0.10004 0 8.011 0 17.8718C0 25.5513 4.84394 32.0993 11.6451 34.6264V28.4076C8.04465 26.2747 5.63098 22.352 5.63375 17.8635C5.6379 11.2089 11.0406 5.72735 17.6966 5.63468C24.5351 5.53924 30.108 11.054 30.108 17.8718C30.108 22.3561 27.6943 26.2761 24.0966 28.4076V34.6264C30.8964 32.0993 35.7417 25.5513 35.7417 17.8718C35.7417 8.06357 27.8409 0.100523 18.0562 0.000932664Z" fill="#3462A6"/>
<path d="M12.6113 34.8933V26.2179C12.6113 25.6079 13.1065 25.1113 13.7179 25.1113H22.0226C22.6326 25.1113 23.1291 25.6079 23.1291 26.2179V34.8933C23.1291 35.5046 22.6326 35.9998 22.0226 35.9998H13.7179C13.1065 35.9998 12.6113 35.5046 12.6113 34.8933Z" fill="#3462A6"/>
<path d="M14.2773 13.3446V9.65428C14.2773 9.60448 14.3105 9.57129 14.3603 9.57129H14.7241C14.7739 9.57129 14.8057 9.60448 14.8057 9.65428V13.3446C14.8057 13.3944 14.7739 13.4276 14.7241 13.4276H14.3603C14.3105 13.4276 14.2773 13.3944 14.2773 13.3446Z" fill="black"/>
<path d="M15.5332 12.3984V12.2657C15.5332 12.2172 15.5664 12.1841 15.6162 12.1841H15.9689C16.0173 12.1841 16.0505 12.2172 16.0505 12.2657V12.3708C16.0505 12.7346 16.3866 13.0154 16.9385 13.0154C17.4614 13.0154 17.7034 12.7678 17.7034 12.4372C17.7034 12.09 17.406 11.9365 16.7615 11.6764C16.1335 11.4344 15.583 11.2144 15.583 10.5422C15.583 9.90317 16.0726 9.52832 16.8389 9.52832C17.6647 9.52832 18.1986 9.96956 18.1986 10.6252V10.7068C18.1986 10.7566 18.1668 10.7898 18.117 10.7898H17.7588C17.709 10.7898 17.6758 10.7621 17.6758 10.7179V10.6529C17.6758 10.2835 17.3729 9.98616 16.8168 9.98616C16.359 9.98616 16.1003 10.1784 16.1003 10.5311C16.1003 10.9004 16.3866 11.0208 17.0367 11.2698C17.6481 11.5063 18.2318 11.7483 18.2318 12.4206C18.2318 13.0485 17.7311 13.4732 16.8998 13.4732C16.0671 13.4732 15.5332 13.0485 15.5332 12.3984Z" fill="black"/>
<path fill-rule="evenodd" clip-rule="evenodd" d="M18.8438 12.1564V10.8451C18.8438 10.0581 19.3887 9.52832 20.2048 9.52832C21.025 9.52832 21.5714 10.0581 21.5714 10.8451V12.1564C21.5714 12.949 21.025 13.4787 20.2048 13.4787C19.3887 13.4787 18.8438 12.949 18.8438 12.1564ZM21.0416 12.1785V10.8396C21.0416 10.3278 20.7055 9.98616 20.2048 9.98616C19.7082 9.98616 19.3721 10.3278 19.3721 10.8396V12.1785C19.3721 12.6848 19.7082 13.0209 20.2048 13.0209C20.7055 13.0209 21.0416 12.6848 21.0416 12.1785Z" fill="black"/>
<path d="M14.2773 13.3446V9.65428C14.2773 9.60448 14.3105 9.57129 14.3603 9.57129H14.7241C14.7739 9.57129 14.8057 9.60448 14.8057 9.65428V13.3446C14.8057 13.3944 14.7739 13.4276 14.7241 13.4276H14.3603C14.3105 13.4276 14.2773 13.3944 14.2773 13.3446Z" fill="#2E343D"/>
<path d="M15.5332 12.3984V12.2657C15.5332 12.2172 15.5664 12.1841 15.6162 12.1841H15.9689C16.0173 12.1841 16.0505 12.2172 16.0505 12.2657V12.3708C16.0505 12.7346 16.3866 13.0154 16.9385 13.0154C17.4614 13.0154 17.7034 12.7678 17.7034 12.4372C17.7034 12.09 17.406 11.9365 16.7615 11.6764C16.1335 11.4344 15.583 11.2144 15.583 10.5422C15.583 9.90317 16.0726 9.52832 16.8389 9.52832C17.6647 9.52832 18.1986 9.96956 18.1986 10.6252V10.7068C18.1986 10.7566 18.1668 10.7898 18.117 10.7898H17.7588C17.709 10.7898 17.6758 10.7621 17.6758 10.7179V10.6529C17.6758 10.2835 17.3729 9.98616 16.8168 9.98616C16.359 9.98616 16.1003 10.1784 16.1003 10.5311C16.1003 10.9004 16.3866 11.0208 17.0367 11.2698C17.6481 11.5063 18.2318 11.7483 18.2318 12.4206C18.2318 13.0485 17.7311 13.4732 16.8998 13.4732C16.0671 13.4732 15.5332 13.0485 15.5332 12.3984Z" fill="#2E343D"/>
<path fill-rule="evenodd" clip-rule="evenodd" d="M18.8438 12.1564V10.8451C18.8438 10.0581 19.3887 9.52832 20.2048 9.52832C21.025 9.52832 21.5714 10.0581 21.5714 10.8451V12.1564C21.5714 12.949 21.025 13.4787 20.2048 13.4787C19.3887 13.4787 18.8438 12.949 18.8438 12.1564ZM21.0416 12.1785V10.8396C21.0416 10.3278 20.7055 9.98616 20.2048 9.98616C19.7082 9.98616 19.3721 10.3278 19.3721 10.8396V12.1785C19.3721 12.6848 19.7082 13.0209 20.2048 13.0209C20.7055 13.0209 21.0416 12.6848 21.0416 12.1785Z" fill="#2E343D"/>
<path fill-rule="evenodd" clip-rule="evenodd" d="M13.6425 16.5342V18.8857C13.6425 19.7446 12.9233 20.3062 11.8859 20.3062C10.8623 20.3062 10.1679 19.7446 10.1679 18.9092V18.7294C10.1679 18.6436 10.2136 18.5966 10.2993 18.5966H11.1362C11.2219 18.5966 11.269 18.627 11.269 18.674V18.7598C11.269 19.1042 11.5179 19.3615 11.8859 19.3615C12.2676 19.3615 12.5415 19.1042 12.5415 18.7363V18.0184C12.5415 17.9797 12.518 17.9645 12.4862 17.9949C12.2372 18.1982 11.9398 18.2605 11.6438 18.2605C11.0269 18.2605 10.5027 17.9714 10.2219 17.425C10.0891 17.1747 10.0352 16.8703 10.0352 16.5273C10.0352 16.2147 10.0891 15.9408 10.1832 15.7154C10.4487 15.1054 11.0421 14.7236 11.8305 14.7236C12.6356 14.7236 13.2442 15.1137 13.5014 15.7693C13.5955 15.9962 13.6425 16.2617 13.6425 16.5342ZM12.5332 16.4955C12.5332 16.3157 12.5028 16.1525 12.4322 16.0197C12.323 15.8011 12.1279 15.6753 11.8388 15.6753C11.5498 15.6753 11.3616 15.8081 11.2524 16.0197C11.1749 16.1525 11.1362 16.324 11.1362 16.5107C11.1362 16.6905 11.1749 16.8856 11.2607 17.0266C11.3852 17.23 11.5733 17.3393 11.8305 17.3393C12.1118 17.3383 12.3068 17.2314 12.4156 17.0184C12.5028 16.8703 12.5332 16.667 12.5332 16.4955Z" fill="#2E343D"/>
<path fill-rule="evenodd" clip-rule="evenodd" d="M14.3281 18.5417V16.4808C14.3281 15.395 15.0391 14.7158 16.1871 14.7158C17.3352 14.7158 18.0531 15.395 18.0531 16.4808V18.5417C18.0531 19.6428 17.3352 20.3302 16.1871 20.3302C15.0391 20.3302 14.3281 19.6428 14.3281 18.5417ZM16.952 18.5971V16.449C16.952 15.9648 16.656 15.6605 16.1871 15.6605C15.7265 15.6605 15.4291 15.9648 15.4291 16.449V18.5971C15.4291 19.0812 15.7265 19.3855 16.1871 19.3855C16.656 19.3855 16.952 19.0812 16.952 18.5971Z" fill="#2E343D"/>
<path fill-rule="evenodd" clip-rule="evenodd" d="M18.7773 18.5417V16.4808C18.7773 15.395 19.4883 14.7158 20.6364 14.7158C21.7844 14.7158 22.5023 15.395 22.5023 16.4808V18.5417C22.5023 19.6428 21.7844 20.3302 20.6364 20.3302C19.4883 20.3302 18.7773 19.6428 18.7773 18.5417ZM21.4013 18.5971V16.449C21.4013 15.9648 21.1053 15.6605 20.6364 15.6605C20.1758 15.6605 19.8784 15.9648 19.8784 16.449V18.5971C19.8784 19.0812 20.1758 19.3855 20.6364 19.3855C21.1053 19.3855 21.4013 19.0812 21.4013 18.5971Z" fill="#2E343D"/>
<path d="M23.9883 14.7783H24.8707C24.9565 14.7783 25.0035 14.8253 25.0035 14.9111V20.1119C25.0035 20.1977 24.9565 20.2447 24.8707 20.2447H24.0353C23.9481 20.2447 23.9025 20.1977 23.9025 20.1119V15.8558C23.9025 15.8254 23.879 15.8019 23.8472 15.8088L23.1597 15.9499C23.074 15.9651 23.0117 15.9181 23.0117 15.8323V15.2389C23.0117 15.1684 23.0435 15.1144 23.1127 15.0909L23.8237 14.8101C23.879 14.7866 23.926 14.7783 23.9883 14.7783Z" fill="#2E343D"/>
<path d="M17.2747 33.3969C17.088 33.3969 16.9428 33.2461 16.8501 33.1327C16.0797 32.1907 15.543 31.8754 15.2221 31.6859C14.98 31.5434 14.6411 31.4313 14.7103 31.1395C14.7241 31.0828 14.731 31.0275 14.7463 30.9749C14.8541 30.6208 15.0851 30.2639 15.3839 30.2971C15.5084 30.3096 15.6758 30.3649 15.8639 30.4631C16.4573 30.7716 16.7367 31.1436 16.9455 31.4092C17.088 31.1699 17.384 30.7162 17.9401 30.015C19.2887 28.3136 20.6179 27.5999 20.871 27.474C20.9107 27.4537 20.9536 27.4422 20.9997 27.4395H21.0204C21.156 27.4395 21.1532 27.5211 21.2044 27.6469C21.2556 27.7728 21.3496 27.9153 21.2514 28.0107C20.972 28.2846 20.4713 28.8171 19.6801 29.7978C18.8903 30.7743 18.438 31.6859 18.1074 32.3512C17.7727 33.0248 17.7353 33.3969 17.4227 33.3969H17.2747Z" fill="white"/>
<path fill-rule="evenodd" clip-rule="evenodd" d="M6.46528 27.6751C6.60545 27.5387 6.74838 27.4423 6.89407 27.3861C7.04069 27.3307 7.18316 27.3137 7.32148 27.3349L7.27169 26.8867L7.58429 26.9075L7.64238 27.4649C7.69125 27.4981 7.73874 27.5382 7.78485 27.5852C7.87337 27.6756 7.93746 27.7743 7.97711 27.8812C8.01769 27.9891 8.03336 28.1007 8.02414 28.216C8.01584 28.3303 7.98173 28.446 7.92179 28.5632C7.86185 28.6803 7.77563 28.7937 7.66313 28.9034L7.58844 28.9767C7.47594 29.0865 7.36021 29.1699 7.24126 29.2271C7.1223 29.2843 7.00565 29.3161 6.89131 29.3225C6.77604 29.3299 6.66493 29.3119 6.55796 29.2686C6.45191 29.2262 6.35509 29.1598 6.26749 29.0694C6.17712 28.9772 6.11165 28.8771 6.07107 28.7692C6.0305 28.6604 6.01482 28.5489 6.02405 28.4345C6.03419 28.3202 6.06969 28.2044 6.13055 28.0873C6.19141 27.9711 6.27809 27.8582 6.39059 27.7484L6.46528 27.6751ZM6.63957 28.0085C6.47266 28.1708 6.37676 28.3252 6.35186 28.4719C6.32604 28.6176 6.36892 28.7476 6.4805 28.8619C6.53398 28.9163 6.593 28.9546 6.65755 28.9767C6.7221 28.9989 6.7908 29.0048 6.86364 28.9947C6.93649 28.9836 7.01257 28.9555 7.09187 28.9103C7.17117 28.8651 7.25232 28.8024 7.33531 28.7222L7.41277 28.6461C7.49484 28.5659 7.55939 28.4862 7.60642 28.4068C7.65437 28.3275 7.6848 28.2519 7.69771 28.18C7.71062 28.1072 7.70647 28.038 7.68526 27.9725C7.66405 27.9061 7.62671 27.8457 7.57322 27.7913C7.46164 27.677 7.33255 27.6313 7.18593 27.6544C7.03931 27.6774 6.88301 27.7701 6.71703 27.9324L6.63957 28.0085Z" fill="white"/>
<path d="M4.28516 26.5782L5.40693 25.7704C5.50283 25.7012 5.59873 25.6569 5.69463 25.6376C5.78961 25.6182 5.88182 25.6196 5.97127 25.6417C6.06072 25.6639 6.14509 25.704 6.22439 25.7621C6.30277 25.8211 6.37332 25.8939 6.43602 25.9806C6.50057 26.0701 6.54852 26.1618 6.57987 26.2559C6.6103 26.3499 6.62137 26.4421 6.61307 26.5325C6.60569 26.6238 6.57711 26.7109 6.52731 26.7939C6.47752 26.8778 6.40467 26.9544 6.30877 27.0235L5.187 27.8313L4.97814 27.5409L6.09991 26.7331C6.15984 26.6897 6.20595 26.6445 6.23823 26.5975C6.2705 26.5505 6.28986 26.5025 6.29632 26.4537C6.30462 26.4039 6.30047 26.3532 6.28387 26.3015C6.26727 26.2508 6.24053 26.1996 6.20365 26.148C6.16676 26.0963 6.12619 26.0544 6.08193 26.0221C6.03859 25.9908 5.99248 25.9705 5.94361 25.9612C5.89381 25.9529 5.84171 25.9566 5.7873 25.9723C5.7329 25.988 5.67573 26.0175 5.61579 26.0608L4.49402 26.8686L4.28516 26.5782Z" fill="white"/>
<path fill-rule="evenodd" clip-rule="evenodd" d="M4.74275 24.1455L5.11206 24.855L5.61554 24.7817L5.78844 25.1137L3.5947 25.3737L3.44531 25.0888L4.91841 23.4414L5.09131 23.7734L4.74275 24.1455ZM4.80914 24.8993L4.5325 24.3681L3.91007 25.0293L4.80914 24.8993Z" fill="white"/>
<path d="M4.39713 22.8362L4.08177 21.9523L4.35149 21.8555L4.78719 23.0768L2.84104 23.7726L2.7207 23.4337L4.39713 22.8362Z" fill="white"/>
<path d="M4.15211 21.0391L4.23926 21.3862L2.23224 21.8828L2.14648 21.5356L4.15211 21.0391Z" fill="white"/>
<path d="M2.04747 19.2393L2.13738 19.8769L3.8968 19.6279L3.94659 19.9806L2.18717 20.2296L2.2757 20.8617L1.98938 20.9019L1.75977 19.2794L2.04747 19.2393Z" fill="white"/>
<path d="M2.69821 17.8718L1.71061 17.4126L1.70508 17.0156L3.02188 17.6865L3.78264 17.674L3.78817 18.035L3.02741 18.0475L1.73274 18.7626L1.72721 18.3629L2.69821 17.8718Z" fill="white"/>
<path fill-rule="evenodd" clip-rule="evenodd" d="M3.69019 14.4568L3.52697 15.2411L3.96268 15.5025L3.8866 15.8676L2.02344 14.6809L2.08983 14.3655L4.27251 14.0225L4.19643 14.3904L3.69019 14.4568ZM3.26278 15.082L3.38588 14.4955L2.48542 14.6131L3.26278 15.082Z" fill="white"/>
<path d="M4.26521 12.464C4.22648 12.4502 4.18959 12.4432 4.15455 12.4432C4.11951 12.4442 4.08355 12.4552 4.04666 12.4764C4.00978 12.4976 3.96967 12.5308 3.92633 12.576C3.88299 12.6212 3.83319 12.6811 3.77694 12.7558C3.71608 12.8388 3.65338 12.9131 3.58883 12.9785C3.5252 13.0431 3.45927 13.0952 3.39103 13.1348C3.32371 13.1745 3.25363 13.1989 3.18079 13.2081C3.10794 13.2174 3.03186 13.2077 2.95256 13.1791C2.87418 13.1505 2.80824 13.1076 2.75476 13.0505C2.70036 12.9933 2.66024 12.9255 2.63442 12.8471C2.6086 12.7697 2.598 12.6839 2.60261 12.5899C2.6063 12.4958 2.62659 12.3976 2.66347 12.2952C2.70404 12.1855 2.75568 12.0928 2.81839 12.0172C2.88202 11.9416 2.9521 11.8835 3.02863 11.8429C3.10425 11.8033 3.18355 11.7802 3.26654 11.7738C3.35046 11.7682 3.43253 11.7802 3.51275 11.8097L3.39103 12.1459C3.344 12.1283 3.2979 12.12 3.25271 12.121C3.20753 12.121 3.16511 12.1306 3.12546 12.15C3.08581 12.1703 3.04938 12.2003 3.01618 12.2399C2.98299 12.2805 2.95532 12.3326 2.93319 12.3962C2.91106 12.4552 2.89861 12.5092 2.89585 12.558C2.89308 12.606 2.89861 12.6489 2.91245 12.6867C2.92628 12.7245 2.94703 12.7563 2.97469 12.7821C3.00235 12.8079 3.03555 12.8278 3.07428 12.8416C3.1462 12.8674 3.21859 12.8554 3.29144 12.8056C3.36429 12.7549 3.44636 12.6673 3.53765 12.5428C3.60958 12.4451 3.67966 12.363 3.74789 12.2966C3.81613 12.2311 3.88483 12.1809 3.95399 12.1459C4.02223 12.1108 4.09185 12.0919 4.16285 12.0891C4.23386 12.0855 4.30809 12.0979 4.38555 12.1265C4.46762 12.156 4.53539 12.1989 4.58888 12.2551C4.64236 12.3114 4.68109 12.3778 4.70506 12.4543C4.72904 12.5308 4.7378 12.6166 4.73135 12.7116C4.72397 12.8056 4.70138 12.9052 4.66357 13.0103C4.62945 13.1035 4.58334 13.1906 4.52525 13.2718C4.46623 13.3538 4.39846 13.4212 4.32192 13.4737C4.24446 13.5272 4.15916 13.5622 4.06603 13.5788C3.97382 13.5945 3.87607 13.5839 3.77279 13.547L3.8959 13.2095C3.95768 13.2317 4.01439 13.24 4.06603 13.2344C4.11767 13.2289 4.1647 13.2123 4.20711 13.1846C4.24861 13.157 4.28503 13.1196 4.31639 13.0726C4.34866 13.0256 4.3754 12.9721 4.39661 12.9121C4.43995 12.795 4.44825 12.6982 4.42151 12.6217C4.39569 12.5451 4.34359 12.4926 4.26521 12.464Z" fill="white"/>
<path d="M5.118 10.6848C5.08111 10.6645 5.04561 10.6526 5.01149 10.6489C4.97645 10.6443 4.93911 10.6498 4.89945 10.6655C4.8598 10.6821 4.81554 10.7097 4.76667 10.7485C4.71779 10.7872 4.66016 10.8397 4.59377 10.9061C4.52276 10.9799 4.45084 11.0449 4.37799 11.1012C4.30606 11.1565 4.23368 11.1989 4.16083 11.2284C4.0889 11.2589 4.01605 11.2736 3.94228 11.2727C3.86851 11.2727 3.79428 11.2529 3.71959 11.2132C3.64582 11.1745 3.58634 11.1228 3.54116 11.0583C3.49597 10.9947 3.46554 10.9223 3.44987 10.8411C3.43511 10.7609 3.43604 10.6742 3.45263 10.5811C3.47015 10.4889 3.50427 10.3944 3.55499 10.2975C3.6094 10.1952 3.67302 10.1108 3.74587 10.0444C3.81872 9.97801 3.89572 9.93006 3.97686 9.90055C4.05801 9.87105 4.14008 9.85906 4.22307 9.86459C4.30606 9.87012 4.38583 9.89272 4.46237 9.93237L4.295 10.2491C4.25074 10.2261 4.20647 10.2113 4.16221 10.2049C4.11703 10.1993 4.07369 10.2035 4.03219 10.2173C3.98977 10.2311 3.9492 10.256 3.91047 10.292C3.87266 10.328 3.83808 10.3755 3.80673 10.4345C3.77722 10.4907 3.75786 10.5424 3.74864 10.5894C3.73942 10.6373 3.73895 10.6807 3.74725 10.7194C3.75555 10.7591 3.77169 10.7936 3.79567 10.8231C3.81964 10.8527 3.84961 10.8766 3.88557 10.8951C3.95381 10.931 4.02758 10.9287 4.10688 10.8882C4.18527 10.8485 4.2784 10.7734 4.38629 10.6627C4.47113 10.5751 4.55181 10.5036 4.62835 10.4483C4.70488 10.392 4.77958 10.3515 4.85243 10.3266C4.92527 10.3008 4.9972 10.2911 5.0682 10.2975C5.13921 10.304 5.21113 10.3266 5.28398 10.3653C5.36052 10.4059 5.42138 10.4575 5.46656 10.5202C5.51267 10.5839 5.54218 10.6553 5.55509 10.7346C5.568 10.8139 5.56477 10.8997 5.5454 10.9919C5.52604 11.0841 5.49054 11.1795 5.4389 11.2782C5.39187 11.3667 5.33378 11.447 5.26462 11.5189C5.19638 11.5917 5.1203 11.6494 5.03639 11.6918C4.95248 11.7342 4.86349 11.7573 4.76943 11.761C4.67538 11.7646 4.57994 11.7407 4.48311 11.689L4.65048 11.3709C4.70857 11.4013 4.76344 11.4175 4.81508 11.4193C4.86764 11.4202 4.91651 11.4101 4.9617 11.3889C5.00688 11.3677 5.04838 11.3358 5.08618 11.2934C5.12399 11.251 5.15765 11.2017 5.18716 11.1454C5.24525 11.0357 5.26692 10.9412 5.25217 10.8619C5.23649 10.7826 5.19177 10.7236 5.118 10.6848Z" fill="white"/>
<path d="M5.21654 7.78809L6.33693 8.59864C6.4319 8.66872 6.50383 8.74618 6.5527 8.83101C6.60158 8.91493 6.62924 9.00299 6.6357 9.0952C6.64307 9.18649 6.63155 9.27871 6.60112 9.37184C6.56976 9.4659 6.52273 9.55627 6.46003 9.64295C6.39548 9.73239 6.32355 9.80663 6.24425 9.86564C6.16495 9.92374 6.08057 9.96339 5.99113 9.9846C5.9026 10.0058 5.81085 10.0058 5.71587 9.9846C5.62181 9.96431 5.52684 9.91959 5.43093 9.85043L4.31055 9.03849L4.52079 8.7494L5.6398 9.55996C5.69973 9.6033 5.75691 9.63281 5.81131 9.64848C5.86664 9.66416 5.91874 9.66784 5.96761 9.65955C6.01741 9.65032 6.06398 9.63004 6.10732 9.59869C6.15066 9.56733 6.19077 9.52584 6.22765 9.4742C6.26546 9.42256 6.29266 9.37138 6.30926 9.32066C6.32586 9.26903 6.33047 9.21831 6.32309 9.16851C6.31572 9.11964 6.29589 9.07169 6.26362 9.02466C6.23226 8.97763 6.18662 8.93245 6.12668 8.88911L5.00629 8.07856L5.21654 7.78809Z" fill="white"/>
<path fill-rule="evenodd" clip-rule="evenodd" d="M7.19129 7.4987L6.91327 7.7864L7.48591 8.33968L7.23555 8.59695L5.75 7.1612L6.25625 6.63835C6.33832 6.55351 6.42131 6.48712 6.50522 6.43917C6.58914 6.39122 6.67213 6.36263 6.7542 6.35341C6.83627 6.34327 6.91695 6.35341 6.99626 6.38384C7.07464 6.41427 7.15071 6.46499 7.22448 6.53599C7.32315 6.6319 7.38309 6.7361 7.4043 6.8486C7.42459 6.96202 7.41122 7.07867 7.36419 7.19854L8.30614 7.46412L8.31997 7.47795L8.05163 7.75321L7.19129 7.4987ZM6.70579 7.58722L6.96306 7.32165C7.00825 7.27554 7.04144 7.22897 7.06265 7.18195C7.08386 7.13584 7.09446 7.09066 7.09446 7.04639C7.09539 7.00213 7.08663 6.95971 7.06818 6.91914C7.04882 6.87857 7.02115 6.84076 6.98519 6.80572C6.94738 6.76883 6.90773 6.74117 6.86624 6.72273C6.82474 6.70336 6.78232 6.69414 6.73898 6.69506C6.69472 6.69598 6.64954 6.70843 6.60343 6.73241C6.55825 6.75546 6.51168 6.79142 6.46373 6.8403L6.20922 7.10449L6.70579 7.58722Z" fill="white"/>
<path fill-rule="evenodd" clip-rule="evenodd" d="M9.24175 6.12649L8.60963 6.61753L8.77146 7.10026L8.47546 7.32849L7.82812 5.21635L8.08263 5.01855L9.96654 6.1749L9.67054 6.40451L9.24175 6.12649ZM8.51142 6.32567L8.98447 5.95913L8.22234 5.46394L8.51142 6.32567Z" fill="white"/>
<path d="M11.7151 5.18243L11.4011 5.35671L9.88375 4.52126L10.5961 5.80348L10.2821 5.97776L9.2793 4.17131L9.59328 3.99703L11.1148 4.83525L10.4011 3.54888L10.7123 3.37598L11.7151 5.18243Z" fill="white"/>
<path d="M13.4715 3.77569C13.4982 3.87436 13.5088 3.97026 13.5033 4.06339C13.4978 4.15745 13.4742 4.24505 13.4328 4.3262C13.3913 4.40827 13.3313 4.4825 13.2529 4.54889C13.1736 4.61621 13.0745 4.67154 12.9556 4.71488C12.8366 4.75914 12.7213 4.77758 12.6098 4.77021C12.4973 4.76283 12.3921 4.73194 12.2944 4.67753C12.1976 4.62313 12.11 4.54659 12.0316 4.44792C11.9532 4.34833 11.8882 4.22845 11.8365 4.08829L11.7785 3.93199C11.7268 3.79275 11.6987 3.6595 11.6941 3.53225C11.6895 3.40499 11.707 3.28881 11.7466 3.18368C11.7863 3.07764 11.8472 2.98496 11.9292 2.90566C12.0104 2.82544 12.1118 2.76273 12.2335 2.71755C12.3488 2.67513 12.4571 2.65438 12.5586 2.6553C12.66 2.6553 12.7522 2.67328 12.8352 2.70925C12.9191 2.74521 12.9938 2.79777 13.0593 2.86693C13.1238 2.93517 13.1792 3.01586 13.2253 3.10899L12.8892 3.23348C12.8597 3.17538 12.8274 3.12513 12.7923 3.08271C12.7564 3.04029 12.7163 3.00756 12.672 2.9845C12.6277 2.96237 12.5775 2.95177 12.5212 2.95269C12.4659 2.95269 12.4037 2.9656 12.3345 2.99142C12.2589 3.01908 12.1976 3.05827 12.1505 3.10899C12.1044 3.15879 12.0722 3.2178 12.0537 3.28604C12.0362 3.3552 12.0325 3.43312 12.0426 3.5198C12.0537 3.60648 12.0781 3.701 12.116 3.80335L12.174 3.9638C12.21 4.06063 12.251 4.145 12.2972 4.21693C12.3433 4.28978 12.3944 4.34787 12.4507 4.39121C12.5079 4.43455 12.5701 4.46129 12.6374 4.47144C12.7047 4.48158 12.7771 4.47236 12.8546 4.44377C12.9274 4.41703 12.986 4.38568 13.0302 4.34971C13.0745 4.31467 13.1068 4.27456 13.1271 4.22938C13.1474 4.18419 13.158 4.1344 13.1589 4.07999C13.1589 4.02559 13.1515 3.96565 13.1367 3.90018L13.4715 3.77569Z" fill="white"/>
<path d="M15.1409 3.12771L14.3124 3.31029L14.4493 3.93134L15.4176 3.71833L15.4798 3.99773L14.1602 4.28959L13.7148 2.27013L15.0247 1.98242L15.087 2.26459L14.1284 2.47622L14.2515 3.03365L15.0801 2.85107L15.1409 3.12771Z" fill="white"/>
<path d="M17.3294 1.75399L17.8993 3.34743L18.5203 1.77335L18.9837 1.78165L18.9505 3.84676L18.5936 3.84123L18.6047 3.16069L18.6545 2.24917L18.0182 3.83293L17.761 3.82878L17.1786 2.22704L17.1994 3.13718L17.1883 3.81909L16.8301 3.81356L16.8633 1.74707L17.3294 1.75399Z" fill="white"/>
<path fill-rule="evenodd" clip-rule="evenodd" d="M20.7491 3.64714L19.9607 3.50605L19.7117 3.95006L19.3438 3.88366L20.4766 1.9873L20.7947 2.04402L21.1986 4.21701L20.8307 4.15062L20.7491 3.64714ZM20.1114 3.23771L20.7007 3.34422L20.5568 2.44791L20.1114 3.23771Z" fill="white"/>
<path d="M23.1052 4.85124L22.765 4.73505L22.3708 3.04894L21.895 4.43628L21.5547 4.31871L22.2269 2.36426L22.5658 2.48183L22.9614 4.17347L23.44 2.78198L23.7775 2.89679L23.1052 4.85124Z" fill="white"/>
<path fill-rule="evenodd" clip-rule="evenodd" d="M24.8874 5.20207L24.1792 4.82861L23.8058 5.17579L23.4766 5.0015L25.1322 3.53809L25.4172 3.68885L25.1433 5.88122L24.8113 5.70693L24.8874 5.20207ZM24.4047 4.61836L24.9344 4.89915L25.07 4.00007L24.4047 4.61836Z" fill="white"/>
<path d="M26.8652 6.79719C26.8302 6.80734 26.7868 6.81471 26.7352 6.81932C26.6836 6.82393 26.6245 6.82025 26.5581 6.80826C26.4908 6.79627 26.4166 6.77322 26.3354 6.7391C26.2543 6.70498 26.1672 6.65334 26.074 6.58418C25.9698 6.50764 25.8873 6.41958 25.8264 6.31999C25.7656 6.21948 25.7287 6.11251 25.7158 5.99909C25.7029 5.88567 25.7158 5.76625 25.7545 5.64084C25.7923 5.51636 25.8578 5.39049 25.9509 5.26323L26.0325 5.15396C26.1247 5.02671 26.2234 4.92481 26.3285 4.84827C26.4327 4.77174 26.5392 4.72102 26.6481 4.69612C26.7569 4.6703 26.8671 4.6703 26.9786 4.69612C27.0893 4.72286 27.1986 4.77589 27.3065 4.85519C27.4079 4.92896 27.4867 5.00688 27.543 5.08895C27.5992 5.17102 27.6357 5.25447 27.6522 5.33931C27.6698 5.42506 27.6693 5.51128 27.6509 5.59796C27.6333 5.68557 27.6006 5.77179 27.5527 5.85662L27.2691 5.64776C27.294 5.59981 27.312 5.5514 27.3231 5.50252C27.3341 5.45457 27.3355 5.40708 27.3272 5.36005C27.3189 5.31303 27.3 5.26692 27.2705 5.22174C27.241 5.17655 27.1981 5.13321 27.1419 5.09172C27.0736 5.041 27.0054 5.01011 26.9371 4.99904C26.8689 4.98705 26.8002 4.99351 26.731 5.01841C26.6628 5.04238 26.5946 5.08342 26.5263 5.14151C26.4581 5.20053 26.3908 5.27476 26.3244 5.3642L26.2414 5.47624C26.175 5.56846 26.1257 5.65698 26.0934 5.74182C26.0611 5.82665 26.0459 5.90688 26.0477 5.98249C26.0496 6.05718 26.0676 6.12681 26.1017 6.19135C26.1367 6.25498 26.1879 6.31169 26.2552 6.36149C26.3041 6.39745 26.3488 6.42511 26.3894 6.44448C26.43 6.46477 26.4659 6.4786 26.4973 6.48597C26.5286 6.49427 26.5568 6.49842 26.5817 6.49842C26.6056 6.4975 26.6264 6.49566 26.6439 6.49289L26.8832 6.16646L26.5402 5.91472L26.702 5.69479L27.3341 6.15816L26.8652 6.79719Z" fill="white"/>
<path d="M28.6204 7.55713L28.0118 6.96374L27.5678 7.42019L28.2787 8.11179L28.0782 8.31789L27.1113 7.37455L28.5526 5.89453L29.5139 6.82957L29.312 7.03705L28.6079 6.35237L28.2096 6.76041L28.8182 7.3538L28.6204 7.55713Z" fill="white"/>
<path d="M30.312 7.75587L29.3991 9.18056L31.0244 8.71165L31.301 9.08373L29.644 10.3189L29.4309 10.0312L29.9773 9.62456L30.7284 9.10863L29.0865 9.57062L28.933 9.36452L29.8459 7.926L29.1363 8.49726L28.5913 8.9053L28.377 8.61898L30.034 7.38379L30.312 7.75587Z" fill="white"/>
<path d="M31.2859 11.4484L30.8917 10.696L30.3287 10.9906L30.7893 11.8689L30.5348 12.0031L29.9082 10.8052L31.7396 9.84668L32.3606 11.0362L32.1047 11.1704L31.6496 10.299L31.1434 10.5646L31.5376 11.3156L31.2859 11.4484Z" fill="white"/>
<path d="M31.2598 13.9473L31.1395 13.6084L32.217 12.2529L30.8338 12.7398L30.7148 12.4009L32.6638 11.7148L32.7827 12.0537L31.7024 13.4134L33.0898 12.9251L33.2087 13.2613L31.2598 13.9473Z" fill="white"/>
<path d="M33.4189 15.582L33.2944 14.9498L31.5502 15.2915L31.4824 14.9415L33.2266 14.5999L33.1035 13.9733L33.3871 13.918L33.7024 15.5266L33.4189 15.582Z" fill="white"/>
<path d="M32.3049 18.2876C32.3463 18.2886 32.3837 18.283 32.4169 18.271C32.4501 18.259 32.4805 18.2369 32.5082 18.2046C32.5358 18.1724 32.5626 18.1281 32.5884 18.0719C32.6152 18.0147 32.6428 17.9414 32.6714 17.8519C32.7018 17.7542 32.7369 17.6638 32.7765 17.5808C32.8153 17.4988 32.8604 17.4278 32.9121 17.3678C32.9628 17.3088 33.0213 17.2627 33.0877 17.2295C33.1532 17.1972 33.2284 17.1815 33.3132 17.1825C33.3962 17.1834 33.4723 17.2023 33.5414 17.2392C33.6106 17.2761 33.6705 17.3272 33.7212 17.3927C33.771 17.4573 33.8093 17.5347 33.836 17.6251C33.8628 17.7155 33.8752 17.815 33.8734 17.9239C33.8715 18.04 33.8531 18.1442 33.8181 18.2365C33.783 18.3287 33.7365 18.4066 33.6784 18.4702C33.6193 18.5329 33.5516 18.5804 33.475 18.6127C33.3976 18.6459 33.316 18.662 33.2302 18.6611L33.2357 18.3029C33.2865 18.3038 33.333 18.2969 33.3754 18.2821C33.4169 18.2664 33.4534 18.2429 33.4847 18.2116C33.5161 18.1802 33.541 18.1401 33.5594 18.0912C33.5769 18.0423 33.5861 17.9843 33.5871 17.9169C33.588 17.8533 33.582 17.7984 33.5691 17.7523C33.5553 17.7053 33.5359 17.6661 33.511 17.6348C33.4861 17.6034 33.4561 17.5804 33.4211 17.5656C33.386 17.5499 33.3482 17.5421 33.3077 17.5421C33.2311 17.5402 33.1666 17.5753 33.114 17.6472C33.0624 17.7182 33.0135 17.828 32.9674 17.9764C32.9314 18.0917 32.8918 18.1917 32.8484 18.2766C32.806 18.3614 32.7581 18.4315 32.7046 18.4868C32.6511 18.5421 32.5912 18.5832 32.5248 18.6099C32.4584 18.6357 32.3842 18.6482 32.3021 18.6473C32.2154 18.6454 32.1375 18.6265 32.0683 18.5906C31.9992 18.5555 31.9406 18.5057 31.8927 18.4412C31.8456 18.3766 31.8097 18.2987 31.7848 18.2074C31.7599 18.1161 31.7483 18.0147 31.7502 17.9031C31.752 17.8035 31.7673 17.7058 31.7958 17.6099C31.8244 17.513 31.8664 17.4268 31.9217 17.3512C31.978 17.2756 32.0471 17.2152 32.1292 17.17C32.2113 17.1239 32.3072 17.1018 32.4169 17.1036L32.4114 17.4633C32.3459 17.4623 32.2896 17.4729 32.2426 17.4951C32.1947 17.5172 32.1555 17.5481 32.125 17.5877C32.0946 17.6283 32.072 17.6758 32.0573 17.7302C32.0434 17.7846 32.0356 17.8436 32.0337 17.9073C32.0319 18.0317 32.0559 18.1258 32.1057 18.1894C32.1555 18.254 32.2219 18.2867 32.3049 18.2876Z" fill="white"/>
<path d="M32.7215 19.9364L33.6248 20.5436L33.5694 20.9364L32.373 20.0692L31.6191 19.964L31.6689 19.6072L32.4228 19.7123L33.8115 19.2061L33.7562 19.6016L32.7215 19.9364Z" fill="white"/>
<path d="M31.6566 22.1772C31.6962 22.1883 31.7336 22.1924 31.7686 22.1897C31.8036 22.186 31.8387 22.1726 31.8737 22.1496C31.9088 22.1256 31.9461 22.0892 31.9858 22.0403C32.0254 21.9923 32.0706 21.9287 32.1213 21.8494C32.1766 21.7627 32.2338 21.6843 32.2928 21.6143C32.3518 21.5442 32.4136 21.487 32.4782 21.4427C32.5427 21.3985 32.611 21.369 32.6829 21.3542C32.7548 21.3395 32.8314 21.3432 32.9125 21.3653C32.9927 21.3883 33.0619 21.4266 33.12 21.4801C33.1781 21.5327 33.2228 21.5972 33.2542 21.6737C33.2855 21.7494 33.303 21.8342 33.3067 21.9282C33.3095 22.0223 33.2961 22.1219 33.2666 22.227C33.2343 22.3386 33.1896 22.4345 33.1324 22.5147C33.0753 22.5949 33.0102 22.6581 32.9374 22.7042C32.8646 22.7494 32.7866 22.778 32.7036 22.79C32.6216 22.8029 32.539 22.7974 32.456 22.7734L32.5529 22.429C32.6008 22.4428 32.6474 22.4479 32.6926 22.4442C32.7368 22.4405 32.7783 22.4276 32.8171 22.4054C32.8549 22.3824 32.889 22.3497 32.9194 22.3072C32.9489 22.2648 32.9729 22.2109 32.9913 22.1454C33.0079 22.0845 33.0158 22.0301 33.0149 21.9822C33.0139 21.9333 33.0052 21.8904 32.9886 21.8536C32.9729 21.8176 32.9503 21.7876 32.9208 21.7636C32.8904 21.7406 32.8558 21.7235 32.8171 21.7125C32.7433 21.6913 32.6718 21.7088 32.6027 21.765C32.5344 21.8204 32.4593 21.9135 32.3772 22.0444C32.3127 22.1477 32.2486 22.2349 32.1849 22.3059C32.1222 22.3759 32.0577 22.4313 31.9913 22.4718C31.9258 22.5115 31.8576 22.5355 31.7866 22.5438C31.7156 22.5521 31.6409 22.5451 31.5625 22.523C31.4786 22.5 31.4076 22.4622 31.3495 22.4096C31.2923 22.358 31.249 22.2948 31.2195 22.2201C31.19 22.1445 31.1748 22.0596 31.1738 21.9656C31.1738 21.8715 31.189 21.7706 31.2195 21.6627C31.2462 21.5668 31.2854 21.4759 31.337 21.3902C31.3896 21.3053 31.4523 21.2334 31.5252 21.1744C31.5989 21.1154 31.681 21.0744 31.7714 21.0513C31.8627 21.0282 31.9613 21.0315 32.0674 21.061L31.9692 21.4068C31.9065 21.3893 31.8493 21.3851 31.7976 21.3943C31.7469 21.4045 31.7017 21.4248 31.6621 21.4552C31.6224 21.4856 31.5883 21.5253 31.5597 21.5741C31.5321 21.623 31.5095 21.6783 31.492 21.7401C31.4578 21.86 31.4569 21.9573 31.4892 22.032C31.5205 22.1058 31.5763 22.1542 31.6566 22.1772Z" fill="white"/>
<path d="M31.9137 24.895L32.171 24.3044L30.543 23.5921L30.6854 23.2656L32.3135 23.978L32.5693 23.3929L32.8349 23.5091L32.1779 25.0112L31.9137 24.895Z" fill="white"/>
<path d="M30.2381 26.0655L30.678 25.3394L30.1344 25.0102L29.6198 25.8581L29.375 25.7087L30.0763 24.5537L31.8426 25.6257L31.1469 26.7724L30.8993 26.623L31.4097 25.782L30.9214 25.4874L30.4816 26.2122L30.2381 26.0655Z" fill="white"/>
<path d="M30.4234 27.7581L28.83 27.1882L29.653 28.6668L29.3528 29.0209L27.7773 27.6834L28.0083 27.4109L28.5284 27.8521L29.2007 28.4676L28.3804 26.9724L28.5464 26.776L30.1537 27.3417L29.4372 26.7801L28.9171 26.3389L29.1495 26.0664L30.7249 27.4026L30.4234 27.7581Z" fill="white"/>
<path d="M13.4236 22.8169C13.4171 22.9064 13.3973 22.9884 13.3641 23.0631C13.33 23.1378 13.2834 23.2014 13.2244 23.254C13.1654 23.3075 13.0934 23.3494 13.0086 23.3799C12.9238 23.4094 12.8274 23.4241 12.7195 23.4241C12.607 23.4241 12.506 23.4048 12.4166 23.366C12.3271 23.3273 12.2515 23.2715 12.1897 23.1987C12.128 23.1258 12.08 23.0373 12.0459 22.9331C12.0127 22.8298 11.9961 22.7136 11.9961 22.5845V22.4683C11.9961 22.3392 12.0136 22.2226 12.0487 22.1184C12.0828 22.0142 12.1312 21.9257 12.1939 21.8528C12.2575 21.78 12.3341 21.7237 12.4235 21.6841C12.5129 21.6453 12.613 21.626 12.7237 21.626C12.8334 21.626 12.9302 21.6412 13.0141 21.6716C13.0971 21.703 13.1681 21.7459 13.2271 21.8003C13.2852 21.8556 13.3309 21.9211 13.3641 21.9967C13.3973 22.0723 13.418 22.1548 13.4263 22.2443H13.0653C13.0616 22.1917 13.0529 22.1456 13.039 22.1059C13.0252 22.0654 13.0049 22.0317 12.9782 22.005C12.9514 21.9773 12.9173 21.9566 12.8758 21.9427C12.8343 21.9289 12.7836 21.922 12.7237 21.922C12.6019 21.922 12.5111 21.9662 12.4512 22.0548C12.3921 22.1433 12.3626 22.2802 12.3626 22.4656V22.5845C12.3626 22.6749 12.3691 22.7542 12.382 22.8224C12.3949 22.8907 12.4157 22.9474 12.4442 22.9926C12.4728 23.0387 12.5097 23.0733 12.5549 23.0963C12.6001 23.1184 12.655 23.1295 12.7195 23.1295C12.7767 23.1295 12.8255 23.1231 12.8661 23.1101C12.9076 23.0982 12.9422 23.0788 12.9699 23.052C12.9975 23.0262 13.0192 22.9935 13.0349 22.9538C13.0496 22.9151 13.0593 22.8695 13.0639 22.8169H13.4236Z" fill="#2E343D"/>
<path d="M14.7128 22.6421H14.0212V23.111H14.8331V23.4015H13.6602V21.6504H14.8317V21.9422H14.0212V22.36H14.7128V22.6421Z" fill="#2E343D"/>
<path fill-rule="evenodd" clip-rule="evenodd" d="M15.6936 22.7611H15.4059V23.4015H15.0449V21.6504H15.6964C15.7969 21.6504 15.8873 21.6619 15.9675 21.685C16.0477 21.708 16.1155 21.7417 16.1708 21.7859C16.2262 21.8302 16.2686 21.8851 16.2981 21.9505C16.3285 22.0169 16.3437 22.0935 16.3437 22.1802C16.3437 22.2438 16.3364 22.301 16.3216 22.3517C16.3069 22.4033 16.2861 22.449 16.2594 22.4886C16.2317 22.5283 16.1985 22.5628 16.1598 22.5923C16.122 22.6219 16.0791 22.6472 16.0311 22.6684L16.4088 23.3849V23.4015H16.0215L15.6936 22.7611ZM15.4073 22.4692H15.6978C15.7448 22.4692 15.7863 22.4628 15.8223 22.4499C15.8582 22.4379 15.8877 22.4204 15.9108 22.3973C15.9348 22.3743 15.9528 22.3471 15.9647 22.3157C15.9767 22.2834 15.9827 22.2479 15.9827 22.2092C15.9827 22.1262 15.9592 22.0612 15.9122 22.0142C15.8652 21.9671 15.7932 21.9436 15.6964 21.9436H15.4073V22.4692Z" fill="#2E343D"/>
<path d="M17.8753 21.9422H17.3386V23.4015H16.979V21.9422H16.4492V21.6504H17.8753V21.9422Z" fill="#2E343D"/>
<path d="M18.4645 23.4015H18.1035V21.6504H18.4645V23.4015Z" fill="#2E343D"/>
<path d="M19.8528 22.6864H19.1598V23.4015H18.7988V21.6504H19.9386V21.9422H19.1598V22.3945H19.8528V22.6864Z" fill="#2E343D"/>
<path d="M20.5329 23.4015H20.1719V21.6504H20.5329V23.4015Z" fill="#2E343D"/>
<path d="M21.9218 22.6421H21.2288V23.111H22.0421V23.4015H20.8691V21.6504H22.0407V21.9422H21.2288V22.36H21.9218V22.6421Z" fill="#2E343D"/>
<path fill-rule="evenodd" clip-rule="evenodd" d="M22.2539 23.4015V21.6504H22.7934C22.9114 21.6504 23.0193 21.6707 23.117 21.7113C23.2157 21.7518 23.3001 21.8085 23.3701 21.8814C23.4402 21.9552 23.4946 22.0432 23.5334 22.1456C23.573 22.2489 23.5928 22.3627 23.5928 22.4872V22.5674C23.5928 22.6919 23.5735 22.8054 23.5347 22.9077C23.496 23.0101 23.4411 23.0977 23.3701 23.1705C23.2991 23.2443 23.2143 23.3015 23.1156 23.342C23.017 23.3817 22.9082 23.4015 22.7892 23.4015H22.2539ZM22.6149 21.9422V23.111H22.7892C22.9321 23.111 23.0409 23.064 23.1156 22.97C23.1903 22.8759 23.2277 22.7417 23.2277 22.5674V22.4845C23.2277 22.3065 23.1908 22.1719 23.117 22.0806C23.0432 21.9884 22.9354 21.9422 22.7934 21.9422H22.6149Z" fill="#2E343D"/>
</svg>
