<svg width="48" height="48" viewBox="0 0 48 48" fill="none" xmlns="http://www.w3.org/2000/svg">
<path d="M0 8C0 3.58172 3.58172 0 8 0H40C44.4183 0 48 3.58172 48 8V40C48 44.4183 44.4183 48 40 48H8C3.58172 48 0 44.4183 0 40V8Z" fill="#E8EC67"/>
<path d="M24.002 20C28.9725 20 33.002 18.6569 33.002 17C33.002 15.3431 28.9725 14 24.002 14C19.0314 14 15.002 15.3431 15.002 17C15.002 18.6569 19.0314 20 24.002 20Z" stroke="#4A6117" stroke-width="2" stroke-linecap="round" stroke-linejoin="round"/>
<path d="M15.002 17V31C15.002 31.7956 15.9502 32.5587 17.638 33.1213C19.3258 33.6839 21.615 34 24.002 34C26.3889 34 28.6781 33.6839 30.3659 33.1213C32.0537 32.5587 33.002 31.7956 33.002 31V17" stroke="#4A6117" stroke-width="2" stroke-linecap="round" stroke-linejoin="round"/>
<path d="M15.002 24C15.002 24.7956 15.9502 25.5587 17.638 26.1213C19.3258 26.6839 21.615 27 24.002 27C26.3889 27 28.6781 26.6839 30.3659 26.1213C32.0537 25.5587 33.002 24.7956 33.002 24" stroke="#4A6117" stroke-width="2" stroke-linecap="round" stroke-linejoin="round"/>
</svg>
