<svg width="48" height="48" viewBox="0 0 48 48" fill="none" xmlns="http://www.w3.org/2000/svg">
<path d="M0 8C0 3.58172 3.58172 0 8 0H40C44.4183 0 48 3.58172 48 8V40C48 44.4183 44.4183 48 40 48H8C3.58172 48 0 44.4183 0 40V8Z" fill="#E8EC67"/>
<path d="M31.002 23H17.002C15.8974 23 15.002 23.8954 15.002 25V32C15.002 33.1046 15.8974 34 17.002 34H31.002C32.1065 34 33.002 33.1046 33.002 32V25C33.002 23.8954 32.1065 23 31.002 23Z" stroke="#4A6117" stroke-width="2" stroke-linecap="round" stroke-linejoin="round"/>
<path d="M19 23V19C19 17.6739 19.5268 16.4021 20.4645 15.4645C21.4021 14.5268 22.6739 14 24 14C25.3261 14 26.5979 14.5268 27.5355 15.4645C28.4732 16.4021 29 17.6739 29 19V23" stroke="#4A6117" stroke-width="2" stroke-linecap="round" stroke-linejoin="round"/>
</svg>
