<svg width="48" height="48" viewBox="0 0 48 48" fill="none" xmlns="http://www.w3.org/2000/svg">
<path d="M0 8C0 3.58172 3.58172 0 8 0H40C44.4183 0 48 3.58172 48 8V40C48 44.4183 44.4183 48 40 48H8C3.58172 48 0 44.4183 0 40V8Z" fill="#4A6117"/>
<path d="M14 34L28 20" stroke="white" stroke-width="2" stroke-linecap="round" stroke-linejoin="round"/>
<path d="M15.4695 24.53L16.9995 23L18.5295 24.53C19.1829 25.186 19.5497 26.0741 19.5497 27C19.5497 27.9259 19.1829 28.814 18.5295 29.47L16.9995 31L15.4695 29.47C14.8161 28.814 14.4492 27.9259 14.4492 27C14.4492 26.0741 14.8161 25.186 15.4695 24.53Z" stroke="white" stroke-width="2" stroke-linecap="round" stroke-linejoin="round"/>
<path d="M19.4695 20.53L20.9995 19L22.5295 20.53C23.1829 21.186 23.5497 22.0741 23.5497 23C23.5497 23.9259 23.1829 24.814 22.5295 25.47L20.9995 27L19.4695 25.47C18.8161 24.814 18.4492 23.9259 18.4492 23C18.4492 22.0741 18.8161 21.186 19.4695 20.53Z" stroke="white" stroke-width="2" stroke-linecap="round" stroke-linejoin="round"/>
<path d="M23.4714 16.528L25.0014 14.998L26.5314 16.528C27.1848 17.184 27.5517 18.0722 27.5517 18.998C27.5517 19.9239 27.1848 20.8121 26.5314 21.468L25.0014 22.998L23.4714 21.468C22.818 20.8121 22.4512 19.9239 22.4512 18.998C22.4512 18.0722 22.818 17.184 23.4714 16.528Z" stroke="white" stroke-width="2" stroke-linecap="round" stroke-linejoin="round"/>
<path d="M32 14H34V16C34 17.0609 33.5786 18.0783 32.8284 18.8284C32.0783 19.5786 31.0609 20 30 20H28V18C28 16.9391 28.4214 15.9217 29.1716 15.1716C29.9217 14.4214 30.9391 14 32 14Z" stroke="white" stroke-width="2" stroke-linecap="round" stroke-linejoin="round"/>
<path d="M23.47 29.4714L25 31.0014L23.47 32.5314C22.814 33.1848 21.9259 33.5517 21 33.5517C20.0741 33.5517 19.186 33.1848 18.53 32.5314L17 31.0014L18.53 29.4714C19.186 28.818 20.0741 28.4512 21 28.4512C21.9259 28.4512 22.814 28.818 23.47 29.4714Z" stroke="white" stroke-width="2" stroke-linecap="round" stroke-linejoin="round"/>
<path d="M27.468 25.4695L28.998 26.9995L27.468 28.5295C26.8121 29.1829 25.9239 29.5497 24.998 29.5497C24.0722 29.5497 23.184 29.1829 22.528 28.5295L20.998 26.9995L22.528 25.4695C23.184 24.8161 24.0722 24.4492 24.998 24.4492C25.9239 24.4492 26.8121 24.8161 27.468 25.4695Z" stroke="white" stroke-width="2" stroke-linecap="round" stroke-linejoin="round"/>
<path d="M31.47 21.4695L33 22.9995L31.47 24.5295C30.814 25.1829 29.9259 25.5497 29 25.5497C28.0741 25.5497 27.186 25.1829 26.53 24.5295L25 22.9995L26.53 21.4695C27.186 20.8161 28.0741 20.4492 29 20.4492C29.9259 20.4492 30.814 20.8161 31.47 21.4695Z" stroke="white" stroke-width="2" stroke-linecap="round" stroke-linejoin="round"/>
</svg>
