<svg width="48" height="48" viewBox="0 0 48 48" fill="none" xmlns="http://www.w3.org/2000/svg">
<path d="M0 8C0 3.58172 3.58172 0 8 0H40C44.4183 0 48 3.58172 48 8V40C48 44.4183 44.4183 48 40 48H8C3.58172 48 0 44.4183 0 40V8Z" fill="#4A6117"/>
<path d="M14 19L18.41 14.59C18.5961 14.4028 18.8173 14.2543 19.061 14.1531C19.3047 14.0518 19.5661 13.9998 19.83 14H28.17C28.4339 13.9998 28.6953 14.0518 28.939 14.1531C29.1827 14.2543 29.4039 14.4028 29.59 14.59L34 19" stroke="white" stroke-width="2" stroke-linecap="round" stroke-linejoin="round"/>
<path d="M16 24V32C16 32.5304 16.2107 33.0391 16.5858 33.4142C16.9609 33.7893 17.4696 34 18 34H30C30.5304 34 31.0391 33.7893 31.4142 33.4142C31.7893 33.0391 32 32.5304 32 32V24" stroke="white" stroke-width="2" stroke-linecap="round" stroke-linejoin="round"/>
<path d="M26.998 34V30C26.998 29.4696 26.7873 28.9609 26.4123 28.5858C26.0372 28.2107 25.5285 28 24.998 28H22.998C22.4676 28 21.9589 28.2107 21.5838 28.5858C21.2088 28.9609 20.998 29.4696 20.998 30V34" stroke="white" stroke-width="2" stroke-linecap="round" stroke-linejoin="round"/>
<path d="M14 19H34" stroke="white" stroke-width="2" stroke-linecap="round" stroke-linejoin="round"/>
<path d="M34 19V22C34 22.5304 33.7893 23.0391 33.4142 23.4142C33.0391 23.7893 32.5304 24 32 24C31.4157 23.9678 30.8577 23.7467 30.41 23.37C30.2907 23.2838 30.1472 23.2374 30 23.2374C29.8528 23.2374 29.7093 23.2838 29.59 23.37C29.1423 23.7467 28.5843 23.9678 28 24C27.4157 23.9678 26.8577 23.7467 26.41 23.37C26.2907 23.2838 26.1472 23.2374 26 23.2374C25.8528 23.2374 25.7093 23.2838 25.59 23.37C25.1423 23.7467 24.5843 23.9678 24 24C23.4157 23.9678 22.8577 23.7467 22.41 23.37C22.2907 23.2838 22.1472 23.2374 22 23.2374C21.8528 23.2374 21.7093 23.2838 21.59 23.37C21.1423 23.7467 20.5843 23.9678 20 24C19.4157 23.9678 18.8577 23.7467 18.41 23.37C18.2907 23.2838 18.1472 23.2374 18 23.2374C17.8528 23.2374 17.7093 23.2838 17.59 23.37C17.1423 23.7467 16.5843 23.9678 16 24C15.4696 24 14.9609 23.7893 14.5858 23.4142C14.2107 23.0391 14 22.5304 14 22V19" stroke="white" stroke-width="2" stroke-linecap="round" stroke-linejoin="round"/>
</svg>
