<svg width="1440" height="376" viewBox="0 0 1440 376" fill="none" xmlns="http://www.w3.org/2000/svg">
<g clip-path="url(#clip0_46_433)">
<path d="M-96.5547 440.396C-97.0494 440.642 -97.6501 440.439 -97.8955 439.944C-98.1406 439.449 -97.9381 438.849 -97.4434 438.604L-96.5547 440.396ZM1537.45 438.604C1537.94 438.849 1538.14 439.45 1537.9 439.944C1537.65 440.439 1537.05 440.641 1536.56 440.396L1537.45 438.604ZM720.001 198.5C886.459 198.5 1090.85 258.555 1253.55 318.562C1334.92 348.571 1405.89 378.579 1456.51 401.086C1481.83 412.339 1502.06 421.718 1515.96 428.283C1522.91 431.566 1528.28 434.145 1531.92 435.904C1533.73 436.784 1535.11 437.458 1536.04 437.913C1536.5 438.14 1536.86 438.313 1537.09 438.429C1537.21 438.486 1537.3 438.53 1537.36 438.56L1537.44 438.602C1537.44 438.608 1537.41 438.672 1537 439.5C1536.57 440.361 1536.56 440.394 1536.55 440.394C1536.55 440.392 1536.54 440.389 1536.54 440.386C1536.52 440.379 1536.5 440.367 1536.47 440.353C1536.41 440.324 1536.32 440.28 1536.21 440.223C1535.97 440.108 1535.62 439.937 1535.16 439.71C1534.24 439.257 1532.86 438.583 1531.04 437.705C1527.42 435.949 1522.05 433.371 1515.11 430.092C1501.22 423.532 1481 414.16 1455.7 402.914C1405.1 380.421 1334.17 350.429 1252.86 320.438C1090.19 260.445 886.083 200.5 720.001 200.5C553.919 200.5 349.81 260.445 187.145 320.438C105.828 350.429 34.8992 380.421 -15.7002 402.914C-40.9991 414.16 -61.2152 423.532 -75.1055 430.092C-82.0505 433.372 -87.4143 435.949 -91.041 437.705C-92.8542 438.583 -94.2337 439.257 -95.1592 439.71C-95.6217 439.937 -95.9716 440.108 -96.2051 440.223C-96.3216 440.28 -96.4093 440.324 -96.4678 440.353C-96.4969 440.367 -96.5186 440.379 -96.5332 440.386C-96.5404 440.389 -96.5461 440.392 -96.5498 440.394C-96.5534 440.395 -96.5568 440.393 -96.999 439.5C-97.4136 438.663 -97.439 438.607 -97.4375 438.602L-97.3535 438.56C-97.2944 438.53 -97.206 438.486 -97.0889 438.429C-96.8541 438.313 -96.503 438.14 -96.0391 437.913C-95.1109 437.458 -93.729 436.784 -91.9131 435.904C-88.2808 434.145 -82.9111 431.566 -75.96 428.283C-62.0574 421.718 -41.8272 412.339 -16.5127 401.086C34.116 378.579 105.086 348.571 186.452 318.562C349.152 258.555 553.543 198.5 720.001 198.5ZM-96.7637 316.472C-97.3001 316.602 -97.8403 316.272 -97.9707 315.735C-98.1007 315.199 -97.7709 314.659 -97.2344 314.528L-96.7637 316.472ZM1537.24 314.528C1537.77 314.659 1538.1 315.199 1537.97 315.735C1537.84 316.272 1537.3 316.601 1536.77 316.472L1537 315.5L1537.24 314.528ZM720.001 194.5C881.337 194.5 1085.66 224.515 1249.61 254.517C1331.59 269.519 1403.5 284.522 1454.91 295.773C1480.61 301.399 1501.19 306.087 1515.35 309.369C1522.43 311.01 1527.9 312.3 1531.6 313.18C1533.45 313.619 1534.86 313.956 1535.81 314.184C1536.28 314.297 1536.64 314.384 1536.88 314.441C1537 314.47 1537.09 314.491 1537.15 314.506C1537.18 314.513 1537.2 314.519 1537.21 314.522C1537.22 314.524 1537.23 314.525 1537.23 314.526C1537.23 314.531 1537.22 314.591 1537 315.5C1536.77 316.431 1536.76 316.47 1536.76 316.471C1536.76 316.47 1536.75 316.469 1536.74 316.467C1536.73 316.463 1536.71 316.457 1536.68 316.45C1536.62 316.436 1536.53 316.414 1536.41 316.385C1536.17 316.327 1535.81 316.241 1535.34 316.128C1534.39 315.901 1532.99 315.564 1531.14 315.125C1527.44 314.247 1521.97 312.958 1514.9 311.318C1500.75 308.038 1480.17 303.351 1454.48 297.727C1403.09 286.478 1331.21 271.481 1249.25 256.483C1085.32 226.485 881.146 196.5 720.001 196.5C558.856 196.5 354.679 226.485 190.75 256.483C108.794 271.481 36.9138 286.478 -14.4775 297.727C-40.1729 303.351 -60.7463 308.038 -74.8945 311.318C-81.9684 312.958 -87.4367 314.246 -91.1357 315.125C-92.9849 315.564 -94.3922 315.901 -95.3369 316.128C-95.8088 316.241 -96.1658 316.327 -96.4043 316.385C-96.5234 316.414 -96.614 316.436 -96.6738 316.45C-96.7034 316.457 -96.7263 316.463 -96.7412 316.467C-96.7483 316.469 -96.7541 316.47 -96.7578 316.471C-96.7615 316.471 -96.7667 316.458 -96.999 315.5C-97.2295 314.55 -97.233 314.528 -97.2295 314.526C-97.2257 314.525 -97.2193 314.524 -97.2119 314.522C-97.1968 314.519 -97.1734 314.513 -97.1436 314.506C-97.0833 314.491 -96.9931 314.47 -96.874 314.441C-96.6347 314.384 -96.2767 314.297 -95.8037 314.184C-94.8574 313.956 -93.4484 313.619 -91.5977 313.18C-87.8954 312.3 -82.4241 311.01 -75.3467 309.369C-61.1912 306.087 -40.6095 301.399 -14.9053 295.773C36.503 284.522 108.407 269.519 190.391 254.517C354.341 224.515 558.665 194.5 720.001 194.5ZM-96.8789 252.493C-97.427 252.559 -97.9257 252.168 -97.9922 251.62C-98.0584 251.072 -97.6673 250.573 -97.1191 250.507L-96.8789 252.493ZM1537.12 250.507C1537.67 250.573 1538.06 251.072 1537.99 251.62C1537.93 252.168 1537.43 252.559 1536.88 252.493L1537.12 250.507ZM720.001 190.5C880.008 190.5 1084.3 205.503 1248.56 220.504C1330.7 228.005 1402.84 235.505 1454.44 241.131C1480.24 243.944 1500.91 246.288 1515.13 247.929C1522.24 248.749 1527.74 249.393 1531.46 249.833C1533.32 250.053 1534.73 250.221 1535.68 250.335C1536.16 250.392 1536.52 250.435 1536.76 250.464C1536.88 250.478 1536.97 250.489 1537.03 250.496C1537.06 250.5 1537.08 250.503 1537.1 250.505C1537.11 250.506 1537.11 250.506 1537.12 250.507C1537.12 250.511 1537.11 250.569 1537 251.5C1536.89 252.441 1536.88 252.49 1536.88 252.492C1536.87 252.492 1536.87 252.491 1536.86 252.49C1536.84 252.488 1536.82 252.485 1536.79 252.481C1536.73 252.474 1536.64 252.464 1536.52 252.449C1536.28 252.42 1535.92 252.378 1535.45 252.321C1534.5 252.208 1533.08 252.039 1531.22 251.819C1527.5 251.38 1522.01 250.735 1514.9 249.915C1500.69 248.275 1480.02 245.931 1454.22 243.119C1402.63 237.495 1330.5 229.995 1248.38 222.496C1084.12 207.497 879.912 192.5 720.001 192.5C560.09 192.5 355.878 207.497 191.623 222.496C109.5 229.995 37.3731 237.495 -14.2227 243.119C-40.0202 245.931 -60.6854 248.275 -74.9004 249.915C-82.0075 250.735 -87.5027 251.38 -91.2207 251.819C-93.0793 252.039 -94.4945 252.208 -95.4443 252.321C-95.9191 252.378 -96.2786 252.42 -96.5186 252.449C-96.6382 252.464 -96.7288 252.474 -96.7891 252.481C-96.8188 252.485 -96.8414 252.488 -96.8564 252.49C-96.8638 252.491 -96.8702 252.492 -96.874 252.492C-96.8777 252.491 -96.8838 252.455 -96.999 251.5C-97.1162 250.53 -97.1169 250.508 -97.1133 250.507C-97.1095 250.506 -97.1031 250.506 -97.0957 250.505C-97.0806 250.503 -97.058 250.5 -97.0283 250.496C-96.9679 250.489 -96.8767 250.478 -96.7568 250.464C-96.5165 250.435 -96.1568 250.392 -95.6816 250.335C-94.731 250.221 -93.3154 250.053 -91.4561 249.833C-87.7364 249.393 -82.239 248.749 -75.1299 247.929C-60.9111 246.288 -40.2416 243.944 -14.4395 241.131C37.1651 235.505 109.304 228.005 191.441 220.504C355.707 205.503 559.995 190.5 720.001 190.5ZM1537 186.5C1537.55 186.5 1538 186.948 1538 187.5C1538 188.052 1537.55 188.5 1537 188.5H-96.999C-97.5512 188.5 -97.9988 188.052 -97.999 187.5C-97.999 186.948 -97.5513 186.5 -96.999 186.5H1537ZM1537 123.5C1537.12 124.46 1537.12 124.492 1537.12 124.493C1537.11 124.494 1537.11 124.494 1537.1 124.495C1537.08 124.497 1537.06 124.5 1537.03 124.504C1536.97 124.511 1536.88 124.522 1536.76 124.536C1536.52 124.565 1536.16 124.608 1535.68 124.665C1534.73 124.779 1533.32 124.947 1531.46 125.167C1527.74 125.607 1522.24 126.251 1515.13 127.071C1500.91 128.712 1480.24 131.056 1454.44 133.869C1402.84 139.495 1330.7 146.995 1248.56 154.496C1084.3 169.497 880.008 184.5 720.001 184.5C559.995 184.5 355.707 169.497 191.441 154.496C109.304 146.995 37.1651 139.495 -14.4395 133.869C-40.2416 131.056 -60.9111 128.712 -75.1299 127.071C-82.239 126.251 -87.7364 125.607 -91.4561 125.167C-93.3153 124.947 -94.731 124.779 -95.6816 124.665C-96.1567 124.608 -96.5165 124.565 -96.7568 124.536C-96.8767 124.522 -96.9679 124.511 -97.0283 124.504C-97.0579 124.5 -97.0806 124.497 -97.0957 124.495C-97.103 124.494 -97.1095 124.494 -97.1133 124.493C-97.1169 124.492 -97.1161 124.47 -96.999 123.5C-96.8837 122.545 -96.8777 122.509 -96.874 122.508C-96.8702 122.508 -96.8637 122.509 -96.8564 122.51C-96.8414 122.512 -96.8187 122.515 -96.7891 122.519C-96.7288 122.526 -96.6381 122.536 -96.5186 122.551C-96.2786 122.58 -95.919 122.622 -95.4443 122.679C-94.4945 122.792 -93.0792 122.961 -91.2207 123.181C-87.5027 123.62 -82.0074 124.265 -74.9004 125.085C-60.6854 126.725 -40.0201 129.069 -14.2227 131.881C37.3731 137.505 109.5 145.005 191.623 152.504C355.878 167.503 560.09 182.5 720.001 182.5C879.912 182.5 1084.12 167.503 1248.38 152.504C1330.5 145.005 1402.63 137.505 1454.22 131.881C1480.02 129.069 1500.69 126.725 1514.9 125.085C1522.01 124.265 1527.5 123.62 1531.22 123.181C1533.08 122.961 1534.5 122.792 1535.45 122.679C1535.92 122.622 1536.28 122.58 1536.52 122.551C1536.64 122.536 1536.73 122.526 1536.79 122.519C1536.82 122.515 1536.84 122.512 1536.86 122.51C1536.87 122.509 1536.87 122.508 1536.88 122.508C1536.88 122.513 1536.89 122.584 1537 123.5ZM1537 59.5C1537.23 60.4373 1537.23 60.4716 1537.23 60.4736C1537.23 60.4745 1537.22 60.4757 1537.21 60.4775C1537.2 60.4812 1537.18 60.4869 1537.15 60.4941C1537.09 60.5087 1537 60.5298 1536.88 60.5586C1536.64 60.6164 1536.28 60.7028 1535.81 60.8164C1534.86 61.0436 1533.45 61.3807 1531.6 61.8203C1527.9 62.6996 1522.43 63.9899 1515.35 65.6309C1501.19 68.9129 1480.61 73.6006 1454.91 79.2266C1403.5 90.4784 1331.59 105.481 1249.61 120.483C1085.66 150.485 881.337 180.5 720.001 180.5C558.665 180.5 354.341 150.485 190.391 120.483C108.407 105.481 36.503 90.4784 -14.9053 79.2266C-40.6094 73.6006 -61.1913 68.9129 -75.3467 65.6309C-82.424 63.9899 -87.8954 62.6996 -91.5977 61.8203C-93.4483 61.3808 -94.8574 61.0436 -95.8037 60.8164C-96.2766 60.7029 -96.6347 60.6164 -96.874 60.5586C-96.993 60.5299 -97.0833 60.5087 -97.1436 60.4941C-97.1733 60.4869 -97.1968 60.4812 -97.2119 60.4775C-97.2192 60.4758 -97.2257 60.4745 -97.2295 60.4736C-97.233 60.4723 -97.2295 60.4496 -96.999 59.5C-96.7666 58.542 -96.7615 58.5286 -96.7578 58.5293C-96.7541 58.5302 -96.7482 58.5315 -96.7412 58.5332C-96.7263 58.5368 -96.7033 58.5427 -96.6738 58.5498C-96.614 58.5643 -96.5233 58.5865 -96.4043 58.6152C-96.1658 58.6728 -95.8087 58.7588 -95.3369 58.8721C-94.3922 59.0989 -92.9848 59.4359 -91.1357 59.875C-87.4367 60.7535 -81.9683 62.0415 -74.8945 63.6816C-60.7463 66.9621 -40.1728 71.6495 -14.4775 77.2734C36.9137 88.5215 108.794 103.519 190.75 118.517C354.679 148.515 558.856 178.5 720.001 178.5C881.146 178.5 1085.32 148.515 1249.25 118.517C1331.21 103.519 1403.09 88.5215 1454.48 77.2734C1480.17 71.6494 1500.75 66.962 1514.9 63.6816C1521.97 62.0415 1527.44 60.7535 1531.14 59.875C1532.99 59.4358 1534.39 59.0989 1535.34 58.8721C1535.81 58.7587 1536.17 58.6728 1536.41 58.6152C1536.53 58.5865 1536.62 58.5643 1536.68 58.5498C1536.71 58.5426 1536.73 58.5368 1536.74 58.5332C1536.75 58.5315 1536.76 58.5302 1536.76 58.5293C1536.76 58.532 1536.78 58.5882 1537 59.5ZM1537 -64.5C1537.44 -63.6207 1537.44 -63.6027 1537.44 -63.6006C1537.44 -63.5988 1537.43 -63.5964 1537.42 -63.5928C1537.41 -63.5854 1537.38 -63.5741 1537.36 -63.5596C1537.3 -63.5304 1537.21 -63.4865 1537.09 -63.4287C1536.86 -63.313 1536.51 -63.1404 1536.04 -62.9131C1535.11 -62.4583 1533.73 -61.7838 1531.92 -60.9043C1528.28 -59.1451 1522.91 -56.5659 1515.96 -53.2832C1502.06 -46.7178 1481.83 -37.3393 1456.51 -26.0859C1405.89 -3.57946 1334.92 26.4293 1253.55 56.4385C1090.85 116.445 886.459 176.5 720.001 176.5C553.543 176.5 349.152 116.445 186.452 56.4385C105.086 26.4294 34.116 -3.57946 -16.5127 -26.0859C-41.8271 -37.3392 -62.0574 -46.7178 -75.96 -53.2832C-82.9109 -56.5658 -88.2808 -59.1451 -91.9131 -60.9043C-93.7288 -61.7837 -95.1109 -62.4583 -96.0391 -62.9131C-96.5028 -63.1403 -96.8541 -63.313 -97.0889 -63.4287C-97.2058 -63.4863 -97.2944 -63.5304 -97.3535 -63.5596C-97.3826 -63.5739 -97.405 -63.5854 -97.4199 -63.5928C-97.4271 -63.5963 -97.4337 -63.5988 -97.4375 -63.6006C-97.4412 -63.6025 -97.4398 -63.6103 -96.999 -64.5C-96.5566 -65.393 -96.5534 -65.3953 -96.5498 -65.3936C-96.5461 -65.3918 -96.5402 -65.3892 -96.5332 -65.3857C-96.5186 -65.3785 -96.4967 -65.3668 -96.4678 -65.3525C-96.4093 -65.3236 -96.3214 -65.28 -96.2051 -65.2227C-95.9716 -65.1076 -95.6215 -64.9365 -95.1592 -64.71C-94.2337 -64.2565 -92.8541 -63.5832 -91.041 -62.7051C-87.4143 -60.9486 -82.0503 -58.3714 -75.1055 -55.0918C-61.2153 -48.5322 -40.999 -39.1604 -15.7002 -27.9141C34.8992 -5.42061 105.829 24.5708 187.145 54.5615C349.81 114.555 553.919 174.5 720.001 174.5C886.083 174.5 1090.19 114.555 1252.86 54.5615C1334.17 24.5708 1405.1 -5.42061 1455.7 -27.9141C1481 -39.1605 1501.22 -48.5323 1515.11 -55.0918C1522.05 -58.3715 1527.42 -60.9486 1531.04 -62.7051C1532.86 -63.5833 1534.24 -64.2565 1535.16 -64.71C1535.62 -64.9366 1535.97 -65.1076 1536.21 -65.2227C1536.32 -65.2801 1536.41 -65.3237 1536.47 -65.3525C1536.5 -65.3669 1536.52 -65.3785 1536.54 -65.3857C1536.54 -65.3893 1536.55 -65.3918 1536.55 -65.3936C1536.56 -65.3947 1536.57 -65.3733 1537 -64.5ZM-96.8789 122.507L-97.1191 124.493C-97.6672 124.427 -98.0582 123.928 -97.9922 123.38C-97.9259 122.832 -97.4271 122.441 -96.8789 122.507ZM1536.88 122.507C1537.43 122.441 1537.93 122.832 1537.99 123.38C1538.06 123.928 1537.67 124.427 1537.12 124.493L1536.88 122.507ZM-97.9707 59.2646C-97.8405 58.7281 -97.3002 58.3984 -96.7637 58.5283L-97.2344 60.4717C-97.7709 60.3415 -98.1005 59.8011 -97.9707 59.2646ZM1536.77 58.5283C1537.3 58.3985 1537.84 58.7282 1537.97 59.2646C1538.1 59.8008 1537.77 60.3412 1537.24 60.4717L1537 59.5L1536.77 58.5283ZM-97.8955 -64.9443C-97.6503 -65.4391 -97.0495 -65.6416 -96.5547 -65.3965L-97.4434 -63.6035C-97.9381 -63.8487 -98.1405 -64.4495 -97.8955 -64.9443ZM1536.56 -65.3965C1537.05 -65.6415 1537.65 -65.439 1537.9 -64.9443C1538.14 -64.4496 1537.94 -63.8487 1537.45 -63.6035L1536.56 -65.3965Z" fill="url(#paint0_linear_46_433)"/>
<g filter="url(#filter0_d_46_433)">
<path d="M690 164C690 157.373 695.373 152 702 152H738C744.627 152 750 157.373 750 164V200C750 206.627 744.627 212 738 212H702C695.373 212 690 206.627 690 200V164Z" fill="#4A6117"/>
<path d="M715.828 175.313H724.168C724.074 174.134 723.609 173.015 722.84 172.116H717.162C716.391 173.014 715.924 174.133 715.828 175.313Z" fill="white"/>
<path d="M726.635 172.31C727.189 173.406 727.475 174.618 727.472 175.847C727.473 175.92 727.465 175.993 727.447 176.065C728.056 176.474 728.555 177.027 728.9 177.675C729.245 178.323 729.425 179.046 729.424 179.78V188.352C729.428 189.528 728.965 190.658 728.137 191.493C727.31 192.329 726.184 192.803 725.008 192.81H714.989C713.812 192.803 712.686 192.33 711.858 191.494C711.03 190.658 710.567 189.528 710.57 188.352V179.772C710.57 179.038 710.75 178.315 711.094 177.667C711.439 177.02 711.938 176.467 712.548 176.057C712.531 175.986 712.523 175.912 712.522 175.839C712.521 174.613 712.807 173.404 713.359 172.31C711.667 172.695 710.157 173.645 709.076 175.002C707.994 176.36 707.407 178.044 707.41 179.78V188.352C707.404 190.37 708.198 192.309 709.618 193.742C711.039 195.176 712.97 195.988 714.989 196H725.016C727.034 195.988 728.965 195.176 730.385 193.742C731.806 192.308 732.599 190.37 732.592 188.352V179.772C732.593 178.037 732.004 176.353 730.922 174.997C729.839 173.641 728.328 172.693 726.635 172.31Z" fill="white"/>
<path d="M714.163 177.455C714.889 177.455 715.479 176.958 715.479 176.346C715.479 173.025 717.549 170.219 720 170.219C722.45 170.219 724.52 173.025 724.52 176.346C724.52 176.958 725.1 177.455 725.835 177.455C726.569 177.455 727.151 176.958 727.151 176.346C727.178 174.268 726.496 172.242 725.218 170.603C723.865 168.924 722.012 168 720 168C717.988 168 716.134 168.924 714.781 170.603C713.504 172.243 712.822 174.268 712.848 176.346C712.848 176.958 713.436 177.455 714.163 177.455Z" fill="white"/>
</g>
<g filter="url(#filter1_d_46_433)">
<path d="M1144 45C1144 38.3726 1149.37 33 1156 33H1188C1194.63 33 1200 38.3726 1200 45V77C1200 83.6274 1194.63 89 1188 89H1156C1149.37 89 1144 83.6274 1144 77V45Z" fill="white"/>
<mask id="mask0_46_433" style="mask-type:luminance" maskUnits="userSpaceOnUse" x="1162" y="51" width="20" height="19">
<path d="M1163 68.5V53C1163 52.45 1163.45 52 1164 52H1180C1180.55 52 1181 52.45 1181 53V65C1181 65.55 1180.55 66 1180 66H1165.5L1163 68.5Z" fill="white" stroke="white" stroke-width="2" stroke-linecap="round" stroke-linejoin="round"/>
<path d="M1168 56H1176" stroke="black" stroke-width="2" stroke-linecap="round" stroke-linejoin="round"/>
<path d="M1168 59H1176" stroke="black" stroke-width="2" stroke-linecap="round" stroke-linejoin="round"/>
<path d="M1168 62H1172" stroke="black" stroke-width="2" stroke-linecap="round" stroke-linejoin="round"/>
</mask>
<g mask="url(#mask0_46_433)">
<path d="M1184 49H1160V73H1184V49Z" fill="#C84C09"/>
</g>
</g>
<g filter="url(#filter2_d_46_433)">
<path d="M326 222C326 215.373 331.373 210 338 210H370C376.627 210 382 215.373 382 222V254C382 260.627 376.627 266 370 266H338C331.373 266 326 260.627 326 254V222Z" fill="white"/>
<path d="M348.012 239.856C348.014 239.907 348.006 239.957 347.989 240.005C347.971 240.053 347.944 240.096 347.909 240.133C347.874 240.17 347.831 240.199 347.785 240.219C347.738 240.239 347.688 240.25 347.637 240.25H343.5C343.331 240.25 343.167 240.193 343.034 240.088C342.901 239.983 342.808 239.836 342.769 239.671C342.745 239.558 342.746 239.442 342.773 239.329C342.799 239.217 342.85 239.112 342.921 239.022C343.583 238.144 344.461 237.453 345.469 237.016C345.026 236.613 344.687 236.109 344.479 235.547C344.271 234.985 344.201 234.381 344.274 233.787C344.347 233.192 344.562 232.623 344.9 232.129C345.238 231.634 345.69 231.228 346.217 230.944C346.745 230.659 347.333 230.506 347.932 230.496C348.531 230.485 349.124 230.619 349.661 230.885C350.198 231.151 350.663 231.542 351.018 232.025C351.372 232.507 351.606 233.068 351.7 233.66C351.712 233.74 351.698 233.821 351.659 233.892C351.621 233.962 351.56 234.019 351.487 234.052C350.447 234.533 349.566 235.301 348.948 236.266C348.33 237.232 348.001 238.354 348 239.5C348 239.62 348 239.738 348.012 239.856ZM365.074 239.021C364.414 238.144 363.538 237.454 362.532 237.016C362.975 236.613 363.314 236.109 363.522 235.547C363.73 234.985 363.8 234.381 363.727 233.787C363.654 233.192 363.439 232.623 363.101 232.129C362.763 231.634 362.311 231.228 361.784 230.944C361.256 230.659 360.668 230.506 360.069 230.496C359.47 230.485 358.877 230.619 358.34 230.885C357.803 231.151 357.338 231.542 356.983 232.025C356.629 232.507 356.395 233.068 356.301 233.66C356.289 233.74 356.303 233.821 356.342 233.892C356.38 233.962 356.441 234.019 356.514 234.052C357.554 234.533 358.435 235.301 359.053 236.266C359.671 237.232 360 238.354 360 239.5C360 239.62 360 239.738 359.989 239.856C359.987 239.907 359.995 239.957 360.012 240.005C360.03 240.053 360.057 240.096 360.092 240.133C360.127 240.17 360.17 240.199 360.216 240.219C360.263 240.239 360.313 240.25 360.364 240.25H364.5C364.67 240.25 364.834 240.193 364.967 240.088C365.1 239.983 365.193 239.836 365.232 239.671C365.256 239.558 365.255 239.441 365.228 239.329C365.202 239.216 365.151 239.111 365.079 239.021H365.074ZM356.73 243.069C357.477 242.497 358.026 241.705 358.3 240.805C358.573 239.905 358.558 238.942 358.256 238.052C357.954 237.161 357.381 236.387 356.616 235.839C355.852 235.291 354.935 234.996 353.994 234.996C353.054 234.996 352.137 235.291 351.372 235.839C350.608 236.387 350.034 237.161 349.733 238.052C349.431 238.942 349.415 239.905 349.689 240.805C349.963 241.705 350.512 242.497 351.258 243.069C349.933 243.643 348.827 244.626 348.101 245.875C348.035 245.989 348 246.118 348 246.25C348 246.381 348.035 246.511 348.101 246.625C348.167 246.739 348.261 246.833 348.375 246.899C348.489 246.965 348.619 247 348.75 247H359.25C359.382 247 359.512 246.965 359.626 246.899C359.74 246.833 359.834 246.739 359.9 246.625C359.966 246.511 360.001 246.381 360.001 246.25C360.001 246.118 359.966 245.989 359.9 245.875C359.173 244.625 358.064 243.642 356.737 243.069H356.73Z" fill="#C84C09"/>
</g>
<path d="M150 222C150 215.373 155.373 210 162 210H194C200.627 210 206 215.373 206 222V254C206 260.627 200.627 266 194 266H162C155.373 266 150 260.627 150 254V222Z" fill="#121113"/>
<g clip-path="url(#clip1_46_433)">
<path d="M174.25 245.5C174.847 245.5 175.419 245.737 175.841 246.159C176.263 246.581 176.5 247.153 176.5 247.75C176.5 248.347 176.263 248.919 175.841 249.341C175.419 249.763 174.847 250 174.25 250C173.653 250 173.081 249.763 172.659 249.341C172.237 248.919 172 248.347 172 247.75C172 247.153 172.237 246.581 172.659 246.159C173.081 245.737 173.653 245.5 174.25 245.5ZM186.25 245.5C186.847 245.5 187.419 245.737 187.841 246.159C188.263 246.581 188.5 247.153 188.5 247.75C188.5 248.347 188.263 248.919 187.841 249.341C187.419 249.763 186.847 250 186.25 250C185.653 250 185.081 249.763 184.659 249.341C184.237 248.919 184 248.347 184 247.75C184 247.153 184.237 246.581 184.659 246.159C185.081 245.737 185.653 245.5 186.25 245.5ZM174.25 246.85C174.011 246.85 173.782 246.945 173.614 247.114C173.445 247.282 173.35 247.511 173.35 247.75C173.35 247.989 173.445 248.218 173.614 248.386C173.782 248.555 174.011 248.65 174.25 248.65C174.489 248.65 174.718 248.555 174.886 248.386C175.055 248.218 175.15 247.989 175.15 247.75C175.15 247.511 175.055 247.282 174.886 247.114C174.718 246.945 174.489 246.85 174.25 246.85ZM186.25 246.85C186.011 246.85 185.782 246.945 185.614 247.114C185.445 247.282 185.35 247.511 185.35 247.75C185.35 247.989 185.445 248.218 185.614 248.386C185.782 248.555 186.011 248.65 186.25 248.65C186.489 248.65 186.718 248.555 186.886 248.386C187.055 248.218 187.15 247.989 187.15 247.75C187.15 247.511 187.055 247.282 186.886 247.114C186.718 246.945 186.489 246.85 186.25 246.85ZM169.75 226C169.88 226 170.008 226.034 170.121 226.098C170.234 226.163 170.329 226.256 170.395 226.368L170.452 226.487L171.394 229H188.5C188.73 229 188.958 229.053 189.165 229.155C189.371 229.257 189.551 229.406 189.691 229.589C189.831 229.772 189.927 229.985 189.972 230.211C190.016 230.437 190.008 230.671 189.948 230.893L189.892 231.058L186.892 238.558C186.792 238.807 186.627 239.025 186.414 239.188C186.201 239.352 185.948 239.456 185.681 239.488L185.5 239.5H175C174.92 239.5 174.842 239.494 174.766 239.482L173.56 242.5H187.75C187.937 242.5 188.118 242.569 188.257 242.696C188.395 242.822 188.481 242.996 188.498 243.182C188.515 243.369 188.462 243.555 188.348 243.704C188.235 243.853 188.069 243.955 187.885 243.988L187.75 244H173.559C173.329 244 173.103 243.948 172.898 243.847C172.692 243.746 172.512 243.6 172.372 243.419C172.232 243.238 172.135 243.027 172.088 242.803C172.042 242.579 172.048 242.347 172.105 242.125L172.165 241.943L173.444 238.741L169.228 227.498L166.75 227.5C166.574 227.5 166.404 227.439 166.27 227.326C166.135 227.214 166.044 227.058 166.012 226.885L166 226.75C166 226.574 166.061 226.404 166.174 226.27C166.286 226.135 166.442 226.044 166.615 226.012L166.75 226H169.75Z" fill="white"/>
</g>
<g filter="url(#filter3_d_46_433)">
<path d="M166 68C166 61.3726 171.373 56 178 56H210C216.627 56 222 61.3726 222 68V100C222 106.627 216.627 112 210 112H178C171.373 112 166 106.627 166 100V68Z" fill="white"/>
<path d="M183.25 83.3C183.25 77.4365 188.1 72.75 194 72.75C199.9 72.75 204.75 77.4365 204.75 83.3V87.544C204.75 87.6357 204.746 87.7262 204.736 87.8155C204.746 87.8755 204.75 87.937 204.75 88C204.75 88.985 204.628 90.0585 204.51 90.8785C204.324 92.162 203.564 93.435 202.174 93.9855C200.677 94.5785 198.079 95.25 194 95.25C193.668 95.25 193.351 95.1183 193.116 94.8839C192.882 94.6495 192.75 94.3315 192.75 94C192.75 93.6685 192.882 93.3505 193.116 93.1161C193.351 92.8817 193.668 92.75 194 92.75C197.802 92.75 200.083 92.125 201.253 91.6615C201.635 91.5105 201.948 91.123 202.035 90.5205C202.046 90.4442 202.057 90.3665 202.068 90.2875C201.365 90.444 200.553 90.595 199.746 90.6795C198.685 90.791 197.65 90.1515 197.457 88.9995C197.344 88.3295 197.25 87.363 197.25 85.9995C197.25 84.637 197.344 83.671 197.457 83.0005C197.65 81.8485 198.685 81.209 199.746 81.3205C200.172 81.365 200.599 81.428 201.01 81.5005C200.197 78.4985 197.392 76.25 194 76.25C190.609 76.25 187.804 78.4985 186.99 81.5005C187.409 81.426 187.831 81.3659 188.254 81.3205C189.315 81.209 190.35 81.8485 190.544 83.0005C190.656 83.6705 190.75 84.637 190.75 86C190.75 87.363 190.656 88.329 190.544 88.9995C190.35 90.1515 189.315 90.791 188.254 90.6795C187.155 90.5645 186.049 90.327 185.22 90.1195C184.02 89.819 183.25 88.731 183.25 87.5445V83.3Z" fill="#4A6117"/>
</g>
<path d="M424 126C424 119.373 429.373 114 436 114H468C474.627 114 480 119.373 480 126V158C480 164.627 474.627 170 468 170H436C429.373 170 424 164.627 424 158V126Z" fill="#C84C09"/>
<path d="M457.685 138.193L461.462 136.044C461.311 135.893 461.13 135.772 460.909 135.651L453.828 131.614C453.205 131.262 452.602 131.071 452 131.071C451.397 131.071 450.795 131.262 450.171 131.614L448.133 132.768L457.685 138.193ZM452 141.417L456.289 138.987L446.777 133.552L443.09 135.652C442.869 135.772 442.689 135.893 442.537 136.044L452 141.417ZM452.683 152.928C452.753 152.908 452.813 152.878 452.884 152.838L460.749 148.358C461.683 147.826 462.195 147.283 462.195 145.827V138.002C462.195 137.701 462.165 137.46 462.115 137.239L452.683 142.623V152.928ZM451.317 152.928V142.623L441.885 137.239C441.829 137.489 441.802 137.745 441.805 138.002V145.827C441.805 147.283 442.317 147.826 443.251 148.358L451.116 152.838C451.187 152.878 451.246 152.908 451.317 152.928Z" fill="white"/>
<path d="M1236 211C1236 204.373 1241.37 199 1248 199H1280C1286.63 199 1292 204.373 1292 211V243C1292 249.627 1286.63 255 1280 255H1248C1241.37 255 1236 249.627 1236 243V211Z" fill="#E8EC67"/>
<path d="M1270.41 219L1268 221.41V221.59L1270.41 224H1274V226H1269.59L1268 224.41V227H1267C1266.47 227 1265.96 226.789 1265.59 226.414C1265.21 226.039 1265 225.53 1265 225V222.5H1261.86C1261.77 222.87 1261.62 223.22 1261.42 223.55L1267.18 234H1272C1272.53 234 1273.04 234.211 1273.41 234.586C1273.79 234.961 1274 235.47 1274 236V237H1254V236C1254 235.47 1254.21 234.961 1254.59 234.586C1254.96 234.211 1255.47 234 1256 234H1262.61L1257.92 225.5C1257.04 225.485 1256.2 225.184 1255.51 224.642C1254.82 224.1 1254.33 223.348 1254.11 222.5C1253.98 221.99 1253.95 221.46 1254.02 220.939C1254.1 220.419 1254.28 219.918 1254.54 219.466C1254.81 219.013 1255.17 218.618 1255.59 218.303C1256.01 217.988 1256.49 217.759 1257 217.63C1259.13 217.08 1261.31 218.36 1261.86 220.5H1265V218C1265 217.47 1265.21 216.961 1265.59 216.586C1265.96 216.211 1266.47 216 1267 216H1268V218.59L1269.59 217H1274V219H1270.41ZM1258 219.5C1257.47 219.5 1256.96 219.711 1256.59 220.086C1256.21 220.461 1256 220.97 1256 221.5C1256 222.03 1256.21 222.539 1256.59 222.914C1256.96 223.289 1257.47 223.5 1258 223.5C1258.53 223.5 1259.04 223.289 1259.41 222.914C1259.79 222.539 1260 222.03 1260 221.5C1260 220.97 1259.79 220.461 1259.41 220.086C1259.04 219.711 1258.53 219.5 1258 219.5Z" fill="#121212"/>
<path d="M960 166C960 159.373 965.373 154 972 154H1004C1010.63 154 1016 159.373 1016 166V198C1016 204.627 1010.63 210 1004 210H972C965.373 210 960 204.627 960 198V166Z" fill="#C84C09"/>
<path d="M995 174C995.53 174 996.039 174.211 996.414 174.586C996.789 174.961 997 175.47 997 176V177H991C989.674 177 988.402 177.527 987.464 178.464C986.527 179.402 986 180.674 986 182C986 183.326 986.527 184.598 987.464 185.536C988.402 186.473 989.674 187 991 187H997V188C997 188.53 996.789 189.039 996.414 189.414C996.039 189.789 995.53 190 995 190H981C980.47 190 979.961 189.789 979.586 189.414C979.211 189.039 979 188.53 979 188V176C979 175.47 979.211 174.961 979.586 174.586C979.961 174.211 980.47 174 981 174H995ZM996 179C996.53 179 997.039 179.211 997.414 179.586C997.789 179.961 998 180.47 998 181V183C998 183.53 997.789 184.039 997.414 184.414C997.039 184.789 996.53 185 996 185H991C990.204 185 989.441 184.684 988.879 184.121C988.316 183.559 988 182.796 988 182C988 181.204 988.316 180.441 988.879 179.879C989.441 179.316 990.204 179 991 179H996ZM991 181C990.735 181 990.48 181.105 990.293 181.293C990.105 181.48 990 181.735 990 182C990 182.265 990.105 182.52 990.293 182.707C990.48 182.895 990.735 183 991 183C991.265 183 991.52 182.895 991.707 182.707C991.895 182.52 992 182.265 992 182C992 181.735 991.895 181.48 991.707 181.293C991.52 181.105 991.265 181 991 181Z" fill="white"/>
<g filter="url(#filter4_d_46_433)">
<path d="M1052 275C1052 268.373 1057.37 263 1064 263H1096C1102.63 263 1108 268.373 1108 275V307C1108 313.627 1102.63 319 1096 319H1064C1057.37 319 1052 313.627 1052 307V275Z" fill="white"/>
<path d="M1088.62 281.625H1071.38C1070.96 281.625 1070.62 281.96 1070.62 282.375V299.625C1070.62 300.04 1070.96 300.375 1071.38 300.375H1088.62C1089.04 300.375 1089.38 300.04 1089.38 299.625V282.375C1089.38 281.96 1089.04 281.625 1088.62 281.625ZM1078.32 296.93H1077.13C1077.07 296.93 1077.02 296.904 1076.99 296.862L1076.16 295.842L1075.32 296.862C1075.31 296.883 1075.29 296.9 1075.26 296.912C1075.24 296.924 1075.21 296.93 1075.19 296.93H1074C1073.84 296.93 1073.76 296.745 1073.86 296.623L1075.33 294.823L1073.89 293.067C1073.79 292.945 1073.88 292.76 1074.03 292.76H1075.23C1075.28 292.76 1075.33 292.786 1075.36 292.828L1076.16 293.803L1076.96 292.828C1076.99 292.784 1077.04 292.76 1077.1 292.76H1078.29C1078.44 292.76 1078.53 292.945 1078.42 293.067L1076.99 294.82L1078.46 296.62C1078.56 296.745 1078.47 296.93 1078.32 296.93ZM1078.5 287.977C1078.5 288.028 1078.47 288.07 1078.42 288.07H1076.81V289.68C1076.81 289.725 1076.77 289.758 1076.72 289.758H1075.59C1075.54 289.758 1075.5 289.725 1075.5 289.683V288.07H1073.89C1073.85 288.07 1073.81 288.028 1073.81 287.977V286.852C1073.81 286.8 1073.85 286.758 1073.89 286.758H1075.5V285.145C1075.5 285.103 1075.54 285.07 1075.59 285.07H1076.72C1076.77 285.07 1076.81 285.103 1076.81 285.145V286.758H1078.42C1078.47 286.758 1078.5 286.8 1078.5 286.852V287.977ZM1086.19 296.625C1086.19 296.677 1086.15 296.719 1086.11 296.719H1081.58C1081.53 296.719 1081.5 296.677 1081.5 296.625V295.5C1081.5 295.448 1081.53 295.406 1081.58 295.406H1086.11C1086.15 295.406 1086.19 295.448 1086.19 295.5V296.625ZM1086.19 294.188C1086.19 294.239 1086.15 294.281 1086.11 294.281H1081.58C1081.53 294.281 1081.5 294.239 1081.5 294.188V293.062C1081.5 293.011 1081.53 292.969 1081.58 292.969H1086.11C1086.15 292.969 1086.19 293.011 1086.19 293.062V294.188ZM1086.19 287.977C1086.19 288.028 1086.15 288.07 1086.11 288.07H1081.58C1081.53 288.07 1081.5 288.028 1081.5 287.977V286.852C1081.5 286.8 1081.53 286.758 1081.58 286.758H1086.11C1086.15 286.758 1086.19 286.8 1086.19 286.852V287.977Z" fill="#4A6117"/>
</g>
</g>
<defs>
<filter id="filter0_d_46_433" x="650" y="112" width="140" height="140" filterUnits="userSpaceOnUse" color-interpolation-filters="sRGB">
<feFlood flood-opacity="0" result="BackgroundImageFix"/>
<feColorMatrix in="SourceAlpha" type="matrix" values="0 0 0 0 0 0 0 0 0 0 0 0 0 0 0 0 0 0 127 0" result="hardAlpha"/>
<feMorphology radius="24" operator="dilate" in="SourceAlpha" result="effect1_dropShadow_46_433"/>
<feOffset/>
<feGaussianBlur stdDeviation="8"/>
<feComposite in2="hardAlpha" operator="out"/>
<feColorMatrix type="matrix" values="0 0 0 0 1 0 0 0 0 1 0 0 0 0 1 0 0 0 0.75 0"/>
<feBlend mode="normal" in2="BackgroundImageFix" result="effect1_dropShadow_46_433"/>
<feBlend mode="normal" in="SourceGraphic" in2="effect1_dropShadow_46_433" result="shape"/>
</filter>
<filter id="filter1_d_46_433" x="1120" y="9" width="104" height="104" filterUnits="userSpaceOnUse" color-interpolation-filters="sRGB">
<feFlood flood-opacity="0" result="BackgroundImageFix"/>
<feColorMatrix in="SourceAlpha" type="matrix" values="0 0 0 0 0 0 0 0 0 0 0 0 0 0 0 0 0 0 127 0" result="hardAlpha"/>
<feOffset/>
<feGaussianBlur stdDeviation="12"/>
<feComposite in2="hardAlpha" operator="out"/>
<feColorMatrix type="matrix" values="0 0 0 0 0.0784314 0 0 0 0 0.0784314 0 0 0 0 0.0784314 0 0 0 0.1 0"/>
<feBlend mode="normal" in2="BackgroundImageFix" result="effect1_dropShadow_46_433"/>
<feBlend mode="normal" in="SourceGraphic" in2="effect1_dropShadow_46_433" result="shape"/>
</filter>
<filter id="filter2_d_46_433" x="302" y="186" width="104" height="104" filterUnits="userSpaceOnUse" color-interpolation-filters="sRGB">
<feFlood flood-opacity="0" result="BackgroundImageFix"/>
<feColorMatrix in="SourceAlpha" type="matrix" values="0 0 0 0 0 0 0 0 0 0 0 0 0 0 0 0 0 0 127 0" result="hardAlpha"/>
<feOffset/>
<feGaussianBlur stdDeviation="12"/>
<feComposite in2="hardAlpha" operator="out"/>
<feColorMatrix type="matrix" values="0 0 0 0 0.0784314 0 0 0 0 0.0784314 0 0 0 0 0.0784314 0 0 0 0.1 0"/>
<feBlend mode="normal" in2="BackgroundImageFix" result="effect1_dropShadow_46_433"/>
<feBlend mode="normal" in="SourceGraphic" in2="effect1_dropShadow_46_433" result="shape"/>
</filter>
<filter id="filter3_d_46_433" x="142" y="32" width="104" height="104" filterUnits="userSpaceOnUse" color-interpolation-filters="sRGB">
<feFlood flood-opacity="0" result="BackgroundImageFix"/>
<feColorMatrix in="SourceAlpha" type="matrix" values="0 0 0 0 0 0 0 0 0 0 0 0 0 0 0 0 0 0 127 0" result="hardAlpha"/>
<feOffset/>
<feGaussianBlur stdDeviation="12"/>
<feComposite in2="hardAlpha" operator="out"/>
<feColorMatrix type="matrix" values="0 0 0 0 0.0784314 0 0 0 0 0.0784314 0 0 0 0 0.0784314 0 0 0 0.1 0"/>
<feBlend mode="normal" in2="BackgroundImageFix" result="effect1_dropShadow_46_433"/>
<feBlend mode="normal" in="SourceGraphic" in2="effect1_dropShadow_46_433" result="shape"/>
</filter>
<filter id="filter4_d_46_433" x="1028" y="239" width="104" height="104" filterUnits="userSpaceOnUse" color-interpolation-filters="sRGB">
<feFlood flood-opacity="0" result="BackgroundImageFix"/>
<feColorMatrix in="SourceAlpha" type="matrix" values="0 0 0 0 0 0 0 0 0 0 0 0 0 0 0 0 0 0 127 0" result="hardAlpha"/>
<feOffset/>
<feGaussianBlur stdDeviation="12"/>
<feComposite in2="hardAlpha" operator="out"/>
<feColorMatrix type="matrix" values="0 0 0 0 0.0784314 0 0 0 0 0.0784314 0 0 0 0 0.0784314 0 0 0 0.1 0"/>
<feBlend mode="normal" in2="BackgroundImageFix" result="effect1_dropShadow_46_433"/>
<feBlend mode="normal" in="SourceGraphic" in2="effect1_dropShadow_46_433" result="shape"/>
</filter>
<linearGradient id="paint0_linear_46_433" x1="-98" y1="187.5" x2="1538" y2="187.5" gradientUnits="userSpaceOnUse">
<stop offset="0.0961538" stop-color="#4A6117" stop-opacity="0"/>
<stop offset="0.5" stop-color="#4A6117"/>
<stop offset="0.9" stop-color="#4A6117" stop-opacity="0"/>
</linearGradient>
<clipPath id="clip0_46_433">
<rect width="1440" height="376" fill="white"/>
</clipPath>
<clipPath id="clip1_46_433">
<rect width="24" height="24" fill="white" transform="translate(166 226)"/>
</clipPath>
</defs>
</svg>
