<svg width="48" height="48" viewBox="0 0 48 48" fill="none" xmlns="http://www.w3.org/2000/svg">
    <path
        d="M0 24C0 10.7452 10.7452 0 24 0C37.2548 0 48 10.7452 48 24C48 37.2548 37.2548 48 24 48C10.7452 48 0 37.2548 0 24Z"
        fill="#E8EC67" />
    <path
        d="M15 25H33C33.56 25 34 24.56 34 24C34 23.44 33.56 23 33 23H15C14.44 23 14 23.44 14 24C14 24.56 14.44 25 15 25Z"
        fill="#4A6117" />
    <path
        d="M20 31.999C20.1312 32.0006 20.2612 31.9747 20.3817 31.9231C20.5023 31.8714 20.6107 31.7951 20.7 31.699C21.1 31.299 21.1 30.679 20.7 30.279L14.4 23.979L20.7 17.679C21.1 17.279 21.1 16.659 20.7 16.259C20.3 15.859 19.68 15.859 19.28 16.259L12.28 23.259C11.88 23.659 11.88 24.279 12.28 24.679L19.28 31.679C19.48 31.879 19.74 31.979 19.98 31.979L20 31.999Z"
        fill="#4A6117" />
</svg>