<svg width="209" height="133" viewBox="0 0 209 133" fill="none" xmlns="http://www.w3.org/2000/svg">
<g filter="url(#filter0_d_1572_6035)">
<path d="M26.3438 35.1249C26.3438 30.2752 30.2752 26.3438 35.1249 26.3438H173.229C178.079 26.3438 182.01 30.2752 182.01 35.1249V97.5626C182.01 102.412 178.079 106.344 173.229 106.344H35.1249C30.2752 106.344 26.3438 102.412 26.3438 97.5626V35.1249Z" fill="white"/>
<g clip-path="url(#clip0_1572_6035)">
<path d="M48.256 53.3945H66.7329C66.9971 53.4763 67.2761 53.4772 67.5421 53.5574C68.5799 53.8704 69.4492 54.6726 69.9625 55.6094C70.4249 56.4532 70.4142 57.073 70.414 57.986L70.4127 59.5649L70.4122 64.506L70.412 71.3918L70.4132 73.7216C70.4135 74.5355 70.4749 75.6305 70.2478 76.3886C70.1515 76.6618 70.0177 77.0016 69.8702 77.2504C69.4884 77.894 68.6935 78.5776 68.0217 78.9008C67.6939 79.0559 67.3413 79.1515 66.9801 79.1833C66.2803 79.238 65.2726 79.2059 64.5492 79.2056L60.1486 79.2043L56.808 79.2059C56.4537 79.2061 55.5224 79.2304 55.1986 79.1967C55.1746 79.1378 55.1718 79.1264 55.1225 79.087C54.9663 79.1664 53.3976 79.133 53.1472 79.1328L49.5776 79.1302C49.2085 79.1302 48.3243 79.0933 48.0255 79.177C47.5368 79.1209 47.131 78.9888 46.6979 78.7509C45.7395 78.2184 45.027 77.3327 44.7123 76.2825C44.6301 75.9895 44.5841 75.6875 44.5753 75.3834C44.5339 74.2649 44.5743 72.8538 44.5744 71.7125L44.5744 64.3403L44.5744 59.4706C44.5745 58.7217 44.533 57.8137 44.582 57.0896C44.6858 55.5523 45.9035 53.9606 47.4116 53.5653C47.6813 53.4946 47.9804 53.4741 48.256 53.3945Z" fill="#00933F"/>
<path d="M62.4828 70.5469C62.8177 70.8174 63.1975 71.058 63.5255 71.3308C64.5844 72.2116 65.7103 72.98 66.8242 73.7834C67.9836 74.6195 69.0904 75.5403 70.2475 76.3886C70.1511 76.6618 70.0173 77.0016 69.8699 77.2504C69.4881 77.894 68.6932 78.5776 68.0213 78.9008C67.6936 79.0559 67.3409 79.1515 66.9797 79.1834C66.2799 79.238 65.2723 79.2059 64.5488 79.2056L60.1483 79.2043L56.8076 79.2059C56.4534 79.2061 55.5221 79.2304 55.1982 79.1968C55.1742 79.1378 55.1714 79.1264 55.1221 79.087C54.7404 78.5465 54.3471 78.0168 53.9391 77.496C53.0775 76.3963 52.3075 75.1884 51.4375 74.0985C51.8078 73.7753 52.2237 73.4809 52.6276 73.1905C52.9477 72.9604 53.3598 72.5496 53.7047 72.3904C53.8618 72.3179 54.3887 72.3412 54.5887 72.3431L58.2254 72.3457C61.1472 72.3462 60.3886 72.6051 62.4828 70.5469Z" fill="#096230"/>
<path d="M61.0299 68.6964C61.7568 68.1309 62.6439 67.586 63.4054 67.0489C64.4218 66.3322 65.5676 65.0546 66.6281 66.4619C66.1586 66.8869 65.6418 67.4228 65.1851 67.8739L62.4826 70.5466C60.3883 72.6048 61.1469 72.3458 58.2251 72.3454L54.5884 72.3427C54.3884 72.3409 53.8615 72.3176 53.7044 72.3901C53.3595 72.5493 52.9474 72.9601 52.6273 73.1902C52.2234 73.4806 51.8076 73.7749 51.4372 74.0982C51.3343 74.0279 50.9801 73.6035 50.8509 73.4788C50.0146 72.6715 49.1986 71.7055 48.3672 70.911C49.0151 70.3915 49.6121 69.7817 50.2577 69.2577C50.9883 68.6737 51.6508 67.9654 52.3733 67.3738C53.3853 66.5231 55.1076 66.6251 56.1436 67.3914C56.7909 67.8702 56.8026 67.7863 57.6054 67.8205L58.8089 67.8774C59.2491 67.8991 59.5818 67.8792 59.9355 68.1944C60.3143 68.5319 60.4944 68.9826 60.5312 69.481C59.3731 69.5361 58.2094 69.5122 57.0467 69.5488C56.7045 69.5596 56.0748 69.5153 55.7465 69.624C55.6315 69.6621 55.6419 69.899 55.7169 70.0058C55.8893 70.1074 60.5868 69.9585 61.1466 69.9378C61.2486 69.525 61.3209 69.0503 61.0299 68.6964Z" fill="#FEFEFE"/>
<path d="M56.4239 58.5557C56.4786 58.5911 56.4501 59.0644 56.4489 59.1571C57.5646 59.1821 58.7151 59.1423 59.8321 59.1588C60.3943 59.167 61.1769 59.1218 61.7143 59.2312C62.1025 59.311 62.4684 59.4753 62.786 59.7124C63.8191 60.4814 64.1935 61.7861 63.7114 62.9892C63.5861 63.3019 63.4017 63.5504 63.202 63.8174C62.8143 63.7774 61.8944 63.8118 61.4888 63.8455C61.7981 63.7307 62.0275 63.6043 62.287 63.4043C62.3023 63.3903 62.3173 63.3761 62.3322 63.3616C63.3977 62.3258 62.876 60.182 61.2617 60.0816C60.774 60.0512 60.2629 60.0709 59.7716 60.0712L56.4471 60.0729C56.4494 60.2763 56.4547 60.452 56.4692 60.6548C56.226 60.5036 55.9355 60.3765 55.6839 60.22C55.3791 60.0305 55.0659 59.784 54.752 59.6231C55.3114 59.2927 55.8185 58.9005 56.4239 58.5557Z" fill="#FEFEFE"/>
<path d="M56.5029 61.5011C56.535 61.4965 56.5193 61.495 56.549 61.5119C56.2644 61.6873 56.0572 61.7168 55.7899 61.963C55.1123 62.5906 55.1271 64.0564 55.7608 64.706C56.4804 65.4436 57.5642 65.2511 58.5232 65.2484L61.6799 65.25L61.684 64.6433C62.0287 64.7999 63.0381 65.4608 63.4248 65.6992L62.5489 66.2478C62.2592 66.4169 61.9806 66.618 61.6821 66.7879L61.6814 66.1576C60.7603 66.1871 59.7705 66.1671 58.8406 66.1607C57.7605 66.1063 56.3681 66.3811 55.4527 65.6702C54.8648 65.2136 54.4282 64.5778 54.3043 63.8543C54.1438 62.9173 54.4286 62.2378 54.9743 61.5111C55.4322 61.5231 56.0498 61.5262 56.5029 61.5011Z" fill="#FEFEFE"/>
<path fill-rule="evenodd" clip-rule="evenodd" d="M59.7112 62.8651H59.9842V63.2786L59.7112 62.8651ZM61.1076 61.9056V61.929C61.1076 61.9524 61.0998 61.968 61.092 61.9836L61.0608 62.0226C61.0374 62.046 61.0062 62.0616 60.9516 62.0616H60.4211V62.5765H60.9672C61.1466 62.5765 61.1466 62.8651 60.9672 62.8651H60.4211V63.6843C60.4211 63.7935 60.3743 63.9183 60.2807 63.9573C60.0779 64.0275 59.9374 63.9261 59.836 63.8013C59.7424 63.6843 59.4226 63.1772 59.3133 63.0212C59.2977 62.99 59.2275 62.8729 59.2041 62.8729H58.3148V63.6531C58.3148 63.7467 58.2992 63.8247 58.268 63.8793C58.1744 64.0431 57.8623 64.0119 57.8623 63.7077V62.8651H57.324C57.1446 62.8651 57.1446 62.5765 57.324 62.5765H57.8623V62.0616H57.324C57.2382 62.0616 57.1914 61.9914 57.1836 61.9212V61.9056C57.1836 61.8666 57.207 61.8198 57.246 61.7964C57.285 61.773 57.324 61.7652 57.3864 61.7652H57.8623V61.1255C57.8623 60.9226 57.9715 60.7666 58.1587 60.7666C58.307 60.7666 58.3772 60.8524 58.4396 60.946L58.9779 61.773H59.992V61.0396C59.992 60.9616 60.0154 60.8914 60.0466 60.8446C60.1247 60.7276 60.4289 60.712 60.4289 61.0318V61.773H60.9126C60.975 61.773 61.014 61.7808 61.053 61.8042C61.0842 61.8276 61.1076 61.8666 61.1076 61.9134V61.9056ZM58.3148 62.0616H58.6814C58.7048 62.0616 58.8375 62.28 58.8609 62.3112L59.0325 62.5687H58.3226V62.0538L58.3148 62.0616ZM59.1885 62.0616H59.992V62.5765H59.5162L59.1885 62.0616ZM58.3148 61.4843C58.3382 61.4999 58.385 61.5857 58.4084 61.6169C58.4396 61.6637 58.4708 61.7106 58.502 61.7574H58.3148V61.4843Z" fill="white"/>
<path d="M58.524 62.1953C58.7295 62.1974 58.8125 62.2448 58.8366 62.457C58.8238 62.4582 58.8111 62.4592 58.7983 62.4601C58.7165 62.4652 58.6016 62.4767 58.5408 62.4221C58.4952 62.3525 58.5145 62.28 58.524 62.1953Z" fill="#00933F"/>
<path d="M55.1224 79.0869C55.1717 79.1264 55.1745 79.1377 55.1985 79.1967L50.6169 79.1974C49.8499 79.1982 48.7684 79.2293 48.0254 79.177C48.3242 79.0932 49.2084 79.1302 49.5775 79.1302L53.1471 79.1327C53.3975 79.1329 54.9662 79.1663 55.1224 79.0869Z" fill="#019146"/>
</g>
<path d="M76.9366 73.8438V58.4768H79.2856L86.0031 69.6947H84.7738L91.3816 58.4768H93.7305L93.7525 73.8438H91.0523L91.0303 62.7137H91.6011L85.9812 72.0875H84.7079L79.0002 62.7137H79.6588V73.8438H76.9366ZM103.018 73.9974C101.789 73.9974 100.691 73.7413 99.7254 73.2291C98.7741 72.7022 98.0277 71.9851 97.4862 71.0777C96.9447 70.1703 96.6739 69.1385 96.6739 67.9823C96.6739 66.8115 96.9447 65.7797 97.4862 64.887C98.0277 63.9796 98.7741 63.2698 99.7254 62.7576C100.691 62.2453 101.789 61.9892 103.018 61.9892C104.16 61.9892 105.162 62.2234 106.026 62.6917C106.904 63.1454 107.57 63.8186 108.024 64.7114L105.916 65.9407C105.565 65.3846 105.133 64.9748 104.621 64.7114C104.123 64.4479 103.582 64.3162 102.996 64.3162C102.323 64.3162 101.716 64.4626 101.174 64.7553C100.633 65.048 100.208 65.4724 99.901 66.0285C99.5937 66.57 99.44 67.2213 99.44 67.9823C99.44 68.7434 99.5937 69.402 99.901 69.9581C100.208 70.4996 100.633 70.9167 101.174 71.2094C101.716 71.5021 102.323 71.6485 102.996 71.6485C103.582 71.6485 104.123 71.5167 104.621 71.2533C105.133 70.9899 105.565 70.5801 105.916 70.024L108.024 71.2533C107.57 72.1314 106.904 72.812 106.026 73.2949C105.162 73.7633 104.16 73.9974 103.018 73.9974Z" fill="#00933F"/>
<path d="M113.271 65.5456H120.933V67.9604H113.271V65.5456ZM113.513 73.8438H110.659V58.4768H121.877V60.8696H113.513V73.8438ZM124.373 73.8438V57.5547H127.118V73.8438H124.373ZM135.988 73.9974C134.788 73.9974 133.719 73.7413 132.783 73.2291C131.846 72.7022 131.107 71.9851 130.566 71.0777C130.024 70.1703 129.753 69.1385 129.753 67.9823C129.753 66.8115 130.024 65.7797 130.566 64.887C131.107 63.9796 131.846 63.2698 132.783 62.7576C133.719 62.2453 134.788 61.9892 135.988 61.9892C137.203 61.9892 138.278 62.2453 139.215 62.7576C140.166 63.2698 140.905 63.9723 141.432 64.865C141.974 65.7578 142.244 66.7969 142.244 67.9823C142.244 69.1385 141.974 70.1703 141.432 71.0777C140.905 71.9851 140.166 72.7022 139.215 73.2291C138.278 73.7413 137.203 73.9974 135.988 73.9974ZM135.988 71.6485C136.661 71.6485 137.261 71.5021 137.788 71.2094C138.315 70.9167 138.725 70.4923 139.017 69.9361C139.325 69.38 139.478 68.7287 139.478 67.9823C139.478 67.2213 139.325 66.57 139.017 66.0285C138.725 65.4724 138.315 65.048 137.788 64.7553C137.261 64.4626 136.668 64.3162 136.01 64.3162C135.337 64.3162 134.737 64.4626 134.21 64.7553C133.697 65.048 133.288 65.4724 132.98 66.0285C132.673 66.57 132.519 67.2213 132.519 67.9823C132.519 68.7287 132.673 69.38 132.98 69.9361C133.288 70.4923 133.697 70.9167 134.21 71.2094C134.737 71.5021 135.329 71.6485 135.988 71.6485ZM147.137 73.8438L142.835 62.1209H145.425L149.113 72.4607H147.884L151.747 62.1209H154.052L157.806 72.4607H156.599L160.397 62.1209H162.834L158.509 73.8438H155.875L152.45 64.6894H153.262L149.772 73.8438H147.137Z" fill="#096230"/>
</g>
<defs>
<filter id="filter0_d_1572_6035" x="0.000337601" y="0.000337601" width="208.353" height="132.687" filterUnits="userSpaceOnUse" color-interpolation-filters="sRGB">
<feFlood flood-opacity="0" result="BackgroundImageFix"/>
<feColorMatrix in="SourceAlpha" type="matrix" values="0 0 0 0 0 0 0 0 0 0 0 0 0 0 0 0 0 0 127 0" result="hardAlpha"/>
<feOffset/>
<feGaussianBlur stdDeviation="13.1717"/>
<feComposite in2="hardAlpha" operator="out"/>
<feColorMatrix type="matrix" values="0 0 0 0 0.0784314 0 0 0 0 0.0784314 0 0 0 0 0.0784314 0 0 0 0.1 0"/>
<feBlend mode="normal" in2="BackgroundImageFix" result="effect1_dropShadow_1572_6035"/>
<feBlend mode="normal" in="SourceGraphic" in2="effect1_dropShadow_1572_6035" result="shape"/>
</filter>
<clipPath id="clip0_1572_6035">
<rect width="26" height="25.8988" fill="white" transform="translate(44.4824 53.3945)"/>
</clipPath>
</defs>
</svg>
