<svg width="32" height="24" viewBox="0 0 32 24" fill="none" xmlns="http://www.w3.org/2000/svg">
<path d="M14.9023 1.75916L12.796 0C4.86665 4.52356 1.14975 9.67539 0.15858 15.4555C-0.584799 20.2304 1.27365 24 5.98172 24C9.32693 24 12.5482 21.7382 13.2916 17.9686C13.9111 13.5707 11.4332 10.9319 8.33575 10.3037C9.57472 6.03142 14.7784 1.75916 14.9023 1.75916ZM25.5574 10.0524C26.9202 5.90577 31.8761 1.75916 32 1.75916L29.8938 0C21.9644 4.52356 18.2475 9.67539 17.2563 15.4555C16.5129 20.2304 18.3714 24 23.0794 24C26.4247 24 29.646 21.7382 30.2654 17.9686C31.0088 13.5707 28.6548 10.6806 25.5574 10.0524Z" fill="url(#paint0_radial_80_532)"/>
<defs>
<radialGradient id="paint0_radial_80_532" cx="0" cy="0" r="1" gradientTransform="matrix(18 25.5 -34.9699 15.258 14 7)" gradientUnits="userSpaceOnUse">
<stop stop-color="#E8EC67"/>
<stop offset="1" stop-color="#4A6117"/>
</radialGradient>
</defs>
</svg>
