<svg width="48" height="48" viewBox="0 0 48 48" fill="none" xmlns="http://www.w3.org/2000/svg">
    <path
        d="M0 24C0 10.7452 10.7452 0 24 0C37.2548 0 48 10.7452 48 24C48 37.2548 37.2548 48 24 48C10.7452 48 0 37.2548 0 24Z"
        fill="#E8EC67" />
    <path
        d="M33 25H15C14.44 25 14 24.56 14 24C14 23.44 14.44 23 15 23H33C33.56 23 34 23.44 34 24C34 24.56 33.56 25 33 25Z"
        fill="#4A6117" />
    <path
        d="M28 31.999C27.8688 32.0006 27.7388 31.9747 27.6183 31.9231C27.4977 31.8714 27.3893 31.7951 27.3 31.699C26.9 31.299 26.9 30.679 27.3 30.279L33.6 23.979L27.3 17.679C26.9 17.279 26.9 16.659 27.3 16.259C27.7 15.859 28.32 15.859 28.72 16.259L35.72 23.259C36.12 23.659 36.12 24.279 35.72 24.679L28.72 31.679C28.52 31.879 28.26 31.979 28.02 31.979L28 31.999Z"
        fill="#4A6117" />
</svg>