<svg width="1440" height="792" viewBox="0 0 1440 792" fill="none" xmlns="http://www.w3.org/2000/svg">
<path opacity="0.1" d="M-1102.62 754.321C-1103.14 754.504 -1103.72 754.23 -1103.9 753.709C-1104.08 753.187 -1103.81 752.616 -1103.28 752.433L-1102.62 754.321ZM2483.91 1858.08C2484.24 1858.52 2484.14 1859.15 2483.7 1859.48C2483.26 1859.8 2482.63 1859.71 2482.3 1859.26L2483.11 1858.67L2483.91 1858.08ZM932.346 519.994C1297.52 632.546 1685.43 967.149 1981.98 1273.47C2130.27 1426.65 2255.75 1572.8 2344.16 1680.65C2388.36 1734.58 2423.3 1778.93 2447.18 1809.8C2459.13 1825.24 2468.31 1837.31 2474.5 1845.52C2477.6 1849.62 2479.95 1852.76 2481.53 1854.87C2482.32 1855.93 2482.91 1856.73 2483.31 1857.27C2483.51 1857.54 2483.66 1857.74 2483.76 1857.87C2483.81 1857.94 2483.85 1857.99 2483.87 1858.03C2483.89 1858.04 2483.9 1858.06 2483.9 1858.06C2483.91 1858.07 2483.9 1858.09 2483.11 1858.67C2482.32 1859.25 2482.3 1859.26 2482.29 1859.25C2482.29 1859.24 2482.28 1859.23 2482.26 1859.21L2481.71 1858.46C2481.31 1857.92 2480.71 1857.12 2479.93 1856.07C2478.35 1853.96 2476 1850.82 2472.91 1846.72C2466.72 1838.52 2457.54 1826.46 2445.6 1811.03C2421.73 1780.17 2386.8 1735.83 2342.61 1681.92C2254.23 1574.1 2128.78 1427.99 1980.54 1274.86C1684.01 968.552 1296.4 634.294 931.757 521.905C567.117 409.516 58.5889 467.566 -358.928 553.789C-567.656 596.895 -753.585 647.03 -887.332 686.388C-954.204 706.067 -1008.03 723.051 -1045.14 735.115C-1063.69 741.147 -1078.06 745.949 -1087.8 749.243C-1092.66 750.89 -1096.37 752.16 -1098.86 753.018C-1100.11 753.447 -1101.05 753.773 -1101.68 753.992L-1102.56 754.301C-1102.58 754.308 -1102.6 754.313 -1102.61 754.317C-1102.62 754.32 -1102.63 754.308 -1102.95 753.377C-1103.28 752.445 -1103.28 752.432 -1103.27 752.429C-1103.26 752.425 -1103.24 752.42 -1103.22 752.413C-1103.18 752.399 -1103.12 752.377 -1103.04 752.35C-1102.89 752.294 -1102.65 752.212 -1102.33 752.102C-1101.7 751.883 -1100.76 751.556 -1099.51 751.127C-1097.02 750.268 -1093.31 748.996 -1088.44 747.348C-1078.7 744.052 -1064.32 739.248 -1045.76 733.213C-1008.63 721.144 -954.789 704.153 -887.896 684.469C-754.112 645.099 -568.128 594.951 -359.332 551.831C58.2019 465.605 567.177 407.441 932.346 519.994ZM-977.884 348.757C-978.435 348.784 -978.904 348.358 -978.93 347.806C-978.956 347.255 -978.53 346.787 -977.979 346.76L-977.884 348.757ZM2608.73 1452.25C2609.17 1452.59 2609.26 1453.21 2608.93 1453.65C2608.6 1454.09 2607.97 1454.18 2607.53 1453.85L2608.13 1453.05L2608.73 1452.25ZM936.381 506.912C1290.38 616.023 1708.49 852.381 2038.04 1061.42C2202.83 1165.94 2345.5 1263.65 2446.97 1335.23C2497.71 1371.01 2538.15 1400.27 2565.9 1420.58C2579.78 1430.73 2590.49 1438.65 2597.72 1444.03C2601.34 1446.72 2604.09 1448.78 2605.94 1450.16C2606.86 1450.85 2607.56 1451.37 2608.03 1451.73C2608.26 1451.9 2608.44 1452.03 2608.55 1452.12C2608.61 1452.16 2608.66 1452.2 2608.69 1452.22C2608.7 1452.23 2608.71 1452.24 2608.72 1452.24C2608.73 1452.25 2608.73 1452.25 2608.13 1453.05C2607.53 1453.85 2607.52 1453.85 2607.52 1453.84C2607.51 1453.84 2607.5 1453.83 2607.48 1453.82C2607.45 1453.8 2607.41 1453.76 2607.35 1453.72C2607.23 1453.63 2607.06 1453.5 2606.83 1453.32C2606.36 1452.97 2605.66 1452.45 2604.74 1451.76C2602.9 1450.38 2600.15 1448.32 2596.53 1445.64C2589.3 1440.26 2578.59 1432.34 2564.72 1422.19C2536.97 1401.89 2496.55 1372.64 2445.82 1336.86C2344.37 1265.3 2201.73 1167.61 2036.97 1063.11C1707.44 854.084 1289.52 617.851 935.792 508.824C582.06 399.797 103.669 359.771 -286.355 347.011C-481.354 340.632 -654.24 341.068 -778.375 343.1C-840.442 344.116 -890.322 345.531 -924.683 346.691C-941.864 347.271 -955.165 347.788 -964.17 348.16C-968.673 348.346 -972.102 348.495 -974.405 348.598C-975.556 348.65 -976.427 348.689 -977.008 348.717C-977.299 348.73 -977.518 348.741 -977.664 348.748C-977.737 348.751 -977.792 348.753 -977.829 348.755C-977.847 348.756 -977.861 348.756 -977.87 348.757C-977.879 348.756 -977.884 348.734 -977.931 347.759C-977.979 346.776 -977.975 346.76 -977.966 346.759C-977.956 346.759 -977.942 346.758 -977.924 346.757C-977.887 346.756 -977.831 346.753 -977.758 346.749C-977.612 346.742 -977.392 346.732 -977.101 346.719C-976.518 346.692 -975.646 346.651 -974.494 346.6C-972.189 346.496 -968.757 346.347 -964.252 346.161C-955.242 345.789 -941.935 345.273 -924.75 344.692C-890.378 343.531 -840.487 342.116 -778.408 341.1C-654.248 339.068 -481.329 338.632 -286.29 345.012C103.761 357.773 582.379 397.802 936.381 506.912ZM-913.529 139.401C-914.077 139.334 -914.467 138.835 -914.4 138.287C-914.333 137.739 -913.835 137.349 -913.286 137.415L-913.529 139.401ZM2673.11 1242.81C2673.6 1243.07 2673.79 1243.67 2673.54 1244.16C2673.29 1244.65 2672.68 1244.84 2672.19 1244.59L2672.65 1243.7L2673.11 1242.81ZM940.411 493.831C1291.53 602.053 1724.72 789.306 2070.1 949.488C2242.79 1029.58 2393.54 1102.91 2501.12 1156.22C2554.91 1182.87 2597.91 1204.52 2627.46 1219.51C2642.23 1227 2653.65 1232.82 2661.37 1236.78C2665.22 1238.76 2668.16 1240.26 2670.13 1241.28C2671.12 1241.79 2671.86 1242.17 2672.36 1242.43C2672.61 1242.55 2672.8 1242.65 2672.92 1242.72C2672.99 1242.75 2673.03 1242.77 2673.06 1242.79C2673.08 1242.8 2673.09 1242.8 2673.1 1242.81C2673.11 1242.81 2673.1 1242.84 2672.65 1243.7C2672.2 1244.58 2672.19 1244.59 2672.18 1244.58C2672.17 1244.58 2672.16 1244.57 2672.15 1244.57C2672.12 1244.55 2672.07 1244.53 2672.01 1244.49C2671.88 1244.43 2671.69 1244.33 2671.44 1244.2C2670.95 1243.95 2670.2 1243.56 2669.22 1243.06C2667.25 1242.04 2664.31 1240.53 2660.45 1238.56C2652.74 1234.61 2641.32 1228.78 2626.55 1221.29C2597.01 1206.31 2554.02 1184.66 2500.23 1158.01C2392.67 1104.71 2241.93 1031.39 2069.25 951.302C1723.89 791.127 1290.81 603.922 939.822 495.742C588.836 387.561 125.51 298.475 -250.099 236.432C-437.897 205.412 -603.757 181.154 -722.666 164.651C-782.12 156.4 -829.837 150.087 -862.69 145.838C-879.116 143.713 -891.827 142.103 -900.43 141.026C-904.731 140.487 -908.006 140.08 -910.205 139.809C-911.305 139.673 -912.136 139.572 -912.692 139.504C-912.969 139.47 -913.179 139.444 -913.319 139.427C-913.388 139.418 -913.44 139.411 -913.475 139.407C-913.492 139.405 -913.506 139.403 -913.515 139.402C-913.523 139.401 -913.528 139.401 -913.408 138.408C-913.288 137.423 -913.282 137.416 -913.274 137.417C-913.265 137.418 -913.252 137.42 -913.234 137.422C-913.199 137.427 -913.146 137.433 -913.077 137.441C-912.937 137.458 -912.727 137.484 -912.449 137.518C-911.892 137.587 -911.061 137.689 -909.961 137.824C-907.76 138.096 -904.484 138.502 -900.181 139.041C-891.575 140.119 -878.862 141.728 -862.433 143.854C-829.575 148.104 -781.852 154.418 -722.391 162.67C-603.469 179.175 -437.592 203.436 -249.773 234.459C125.852 296.505 589.289 385.608 940.411 493.831ZM2737.47 1033.39C2738 1033.56 2738.3 1034.11 2738.14 1034.64C2737.97 1035.17 2737.41 1035.47 2736.89 1035.3L-849.175 -69.9898C-849.703 -70.1525 -849.999 -70.7122 -849.836 -71.24C-849.674 -71.7677 -849.114 -72.0637 -848.586 -71.9011L2737.47 1033.39ZM2801.81 823.99C2801.82 823.991 2801.83 823.991 2801.71 824.984C2801.59 825.956 2801.58 825.975 2801.57 825.975C2801.56 825.974 2801.55 825.972 2801.53 825.97C2801.5 825.965 2801.44 825.959 2801.38 825.951C2801.24 825.934 2801.03 825.908 2800.75 825.874C2800.19 825.806 2799.36 825.704 2798.26 825.568C2796.06 825.296 2792.78 824.89 2788.48 824.351C2779.87 823.273 2767.16 821.664 2750.73 819.539C2717.87 815.288 2670.15 808.975 2610.69 800.722C2491.77 784.218 2325.89 759.956 2138.07 728.933C1762.45 666.887 1299.01 577.784 947.888 469.562C596.766 361.339 163.581 174.086 -181.797 13.9042C-354.492 -66.1894 -505.245 -139.519 -612.823 -192.827C-666.613 -219.48 -709.609 -241.128 -739.158 -256.113C-753.933 -263.606 -765.346 -269.433 -773.066 -273.386C-776.926 -275.363 -779.862 -276.872 -781.834 -277.886C-782.819 -278.393 -783.564 -278.777 -784.062 -279.034C-784.311 -279.162 -784.5 -279.259 -784.625 -279.324C-784.687 -279.356 -784.734 -279.381 -784.766 -279.397C-784.781 -279.405 -784.793 -279.411 -784.801 -279.415C-784.809 -279.419 -784.808 -279.43 -784.354 -280.309C-783.896 -281.195 -783.89 -281.195 -783.883 -281.191C-783.875 -281.187 -783.863 -281.181 -783.847 -281.173C-783.816 -281.157 -783.769 -281.133 -783.707 -281.101C-783.582 -281.037 -783.394 -280.94 -783.145 -280.812C-782.648 -280.555 -781.904 -280.171 -780.919 -279.664C-778.948 -278.65 -776.013 -277.143 -772.154 -275.167C-764.437 -271.214 -753.026 -265.388 -738.254 -257.897C-708.709 -242.914 -665.718 -221.27 -611.935 -194.619C-504.368 -141.318 -353.631 -67.9947 -180.956 12.0901C164.408 172.265 597.491 359.47 948.477 467.65C1299.46 575.831 1762.79 664.917 2138.4 726.96C2326.2 757.98 2492.06 782.238 2610.97 798.741C2670.42 806.993 2718.14 813.306 2750.99 817.555C2767.41 819.68 2780.12 821.288 2788.73 822.366C2793.03 822.905 2796.31 823.312 2798.5 823.583C2799.6 823.719 2800.44 823.82 2800.99 823.889C2801.27 823.923 2801.48 823.948 2801.62 823.965C2801.69 823.974 2801.74 823.981 2801.77 823.985C2801.79 823.987 2801.81 823.989 2801.81 823.99ZM2866.17 614.637C2866.18 614.637 2866.19 614.637 2866.23 615.636C2866.28 616.634 2866.28 616.635 2866.27 616.635C2866.26 616.636 2866.24 616.636 2866.23 616.637C2866.19 616.638 2866.13 616.642 2866.06 616.645C2865.91 616.652 2865.69 616.662 2865.4 616.675C2864.82 616.702 2863.95 616.743 2862.8 616.795C2860.49 616.898 2857.06 617.047 2852.56 617.233C2843.54 617.605 2830.24 618.122 2813.05 618.702C2778.68 619.863 2728.79 621.278 2666.71 622.294C2542.55 624.326 2369.63 624.763 2174.59 618.382C1784.54 605.622 1305.92 565.592 951.922 456.482C597.919 347.372 179.814 111.013 -149.741 -98.0226C-314.53 -202.548 -457.2 -300.255 -558.672 -371.831C-609.407 -407.619 -649.845 -436.875 -677.599 -457.184C-691.476 -467.339 -702.183 -475.257 -709.42 -480.637C-713.039 -483.326 -715.791 -485.382 -717.638 -486.765C-718.562 -487.456 -719.259 -487.98 -719.726 -488.331C-719.958 -488.506 -720.134 -488.638 -720.252 -488.726C-720.31 -488.77 -720.355 -488.804 -720.384 -488.826C-720.399 -488.837 -720.41 -488.845 -720.418 -488.851C-720.424 -488.856 -720.414 -488.878 -719.827 -489.658C-719.242 -490.433 -719.221 -490.452 -719.214 -490.448C-719.207 -490.442 -719.195 -490.434 -719.181 -490.423C-719.152 -490.401 -719.107 -490.368 -719.049 -490.324C-718.932 -490.236 -718.757 -490.104 -718.525 -489.93C-718.059 -489.58 -717.362 -489.056 -716.44 -488.365C-714.595 -486.984 -711.844 -484.931 -708.228 -482.242C-700.994 -476.866 -690.292 -468.949 -676.419 -458.798C-648.673 -438.495 -608.245 -409.246 -557.519 -373.466C-456.067 -301.904 -313.425 -204.215 -148.67 -99.7117C180.863 109.31 598.779 345.544 952.511 454.571C1306.24 563.598 1784.63 603.623 2174.66 616.383C2369.66 622.762 2542.54 622.326 2666.68 620.294C2728.74 619.278 2778.62 617.864 2812.98 616.704C2830.17 616.124 2843.47 615.606 2852.47 615.235C2856.97 615.049 2860.4 614.9 2862.71 614.797C2863.86 614.745 2864.73 614.704 2865.31 614.677C2865.6 614.664 2865.82 614.654 2865.97 614.647C2866.04 614.643 2866.09 614.641 2866.13 614.639C2866.15 614.638 2866.16 614.638 2866.17 614.637ZM2990.9 209.074C2990.91 209.07 2990.92 209.075 2991.25 210.012C2991.58 210.95 2991.58 210.958 2991.57 210.961C2991.56 210.965 2991.54 210.97 2991.52 210.977C2991.48 210.991 2991.42 211.012 2991.34 211.039C2991.18 211.095 2990.94 211.177 2990.63 211.287C2990 211.506 2989.06 211.833 2987.81 212.262C2985.32 213.121 2981.6 214.393 2976.73 216.041C2966.99 219.337 2952.61 224.141 2934.05 230.176C2896.93 242.245 2843.08 259.236 2776.19 278.921C2642.41 318.29 2456.42 368.439 2247.63 411.558C1830.09 497.784 1321.12 555.948 955.95 443.396C590.781 330.843 202.864 -3.75947 -93.6797 -310.078C-241.972 -463.259 -367.453 -609.408 -455.861 -717.261C-500.065 -771.188 -535.002 -815.542 -558.888 -846.416C-570.832 -861.852 -580.012 -873.919 -586.208 -882.127C-589.306 -886.231 -591.657 -889.371 -593.234 -891.484C-594.022 -892.541 -594.617 -893.342 -595.015 -893.878C-595.214 -894.146 -595.364 -894.348 -595.464 -894.483C-595.514 -894.551 -595.553 -894.602 -595.578 -894.636C-595.59 -894.653 -595.599 -894.666 -595.606 -894.674C-595.612 -894.683 -595.613 -894.689 -594.811 -895.281C-594.008 -895.874 -594.003 -895.871 -593.997 -895.862C-593.991 -895.854 -593.981 -895.842 -593.969 -895.825C-593.944 -895.791 -593.907 -895.74 -593.857 -895.673C-593.757 -895.539 -593.608 -895.338 -593.409 -895.07C-593.012 -894.535 -592.418 -893.736 -591.631 -892.681C-590.056 -890.57 -587.707 -887.433 -584.611 -883.332C-578.42 -875.13 -569.245 -863.069 -557.307 -847.639C-533.43 -816.778 -498.505 -772.439 -454.314 -718.528C-365.932 -610.706 -240.488 -464.601 -92.2434 -311.469C204.288 -5.1626 591.899 329.095 956.539 441.484C1321.18 553.873 1829.71 495.823 2247.22 409.6C2455.95 366.494 2641.88 316.36 2775.63 277.002C2842.5 257.323 2896.33 240.339 2933.43 228.274C2951.99 222.242 2966.36 217.44 2976.09 214.146C2980.96 212.499 2984.67 211.229 2987.16 210.371C2988.4 209.942 2989.34 209.616 2989.97 209.398C2990.29 209.288 2990.52 209.206 2990.68 209.151C2990.76 209.124 2990.82 209.102 2990.86 209.089C2990.88 209.082 2990.89 209.077 2990.9 209.074ZM-785.242 -280.768C-784.989 -281.259 -784.385 -281.451 -783.895 -281.198L-784.813 -279.421C-785.303 -279.674 -785.495 -280.278 -785.242 -280.768ZM2801.83 823.991C2802.38 824.058 2802.77 824.556 2802.7 825.105C2802.63 825.653 2802.13 826.043 2801.59 825.977L2801.71 824.984L2801.83 823.991ZM-720.625 -490.259C-720.293 -490.7 -719.666 -490.788 -719.225 -490.456L-720.428 -488.859C-720.869 -489.192 -720.957 -489.819 -720.625 -490.259ZM2866.19 614.637C2866.74 614.61 2867.21 615.036 2867.23 615.588C2867.26 616.139 2866.83 616.608 2866.28 616.634L2866.23 615.636L2866.19 614.637ZM-595.405 -896.086C-594.96 -896.414 -594.334 -896.32 -594.006 -895.875L-595.615 -894.687C-595.943 -895.132 -595.849 -895.758 -595.405 -896.086ZM2990.92 209.068C2991.44 208.885 2992.01 209.16 2992.19 209.681C2992.38 210.202 2992.1 210.773 2991.58 210.956L2991.25 210.012L2990.92 209.068Z" fill="#1F290A"/>
</svg>
