<svg width="270" height="133" viewBox="0 0 270 133" fill="none" xmlns="http://www.w3.org/2000/svg">
<g filter="url(#filter0_d_221_482)">
<path d="M26.3438 32.3898C26.3438 29.0506 29.0506 26.3438 32.3898 26.3438H237.308C240.647 26.3438 243.354 29.0506 243.354 32.3898V100.298C243.354 103.637 240.647 106.344 237.308 106.344H32.3898C29.0506 106.344 26.3438 103.637 26.3438 100.298V32.3898Z" fill="white" shape-rendering="crispEdges"/>
<g clip-path="url(#clip0_221_482)">
<path d="M72.3536 56.8135L67.2581 76.3602H61.4943L58.3758 63.4961L55.1458 76.3602H49.3821L44.4258 56.8135H49.5213L52.3336 71.0419L55.8141 56.8135H61.0488L64.3901 71.0419L67.2303 56.8135H72.3536Z" fill="#4A6117"/>
<path d="M98.3668 63.4119C98.9237 62.558 99.6198 61.8897 100.455 61.4071C101.29 60.9059 102.219 60.6553 103.24 60.6553V65.6951H101.931C100.743 65.6951 99.8519 65.955 99.2579 66.4747C98.6638 66.9759 98.3668 67.8669 98.3668 69.1478V76.3595H93.6055V60.8223H98.3668V63.4119Z" fill="#4A6117"/>
<path d="M115.54 76.3597L110.806 69.8441V76.3597H106.045V55.7549H110.806V67.1432L115.512 60.8225H121.387L114.927 68.6189L121.443 76.3597H115.54Z" fill="#4A6117"/>
<path d="M145.787 56.8135V76.3602H141.025V64.6377L136.654 76.3602H132.811L128.412 64.6099V76.3602H123.65V56.8135H129.275L134.76 70.3458L140.19 56.8135H145.787Z" fill="#121212"/>
<path d="M164.253 68.3403C164.253 68.7858 164.225 69.2499 164.169 69.7325H153.394C153.468 70.6978 153.774 71.4403 154.313 71.9601C154.869 72.4613 155.547 72.7119 156.345 72.7119C157.533 72.7119 158.359 72.2107 158.823 71.2083H163.891C163.631 72.2292 163.158 73.1481 162.471 73.9649C161.803 74.7816 160.958 75.4221 159.937 75.8861C158.916 76.3502 157.775 76.5822 156.512 76.5822C154.99 76.5822 153.635 76.2574 152.447 75.6077C151.259 74.958 150.331 74.0298 149.663 72.8233C148.994 71.6167 148.66 70.2059 148.66 68.5909C148.66 66.976 148.985 65.5652 149.635 64.3586C150.303 63.152 151.231 62.2239 152.419 61.5742C153.607 60.9245 154.972 60.5996 156.512 60.5996C158.016 60.5996 159.352 60.9152 160.522 61.5463C161.691 62.1775 162.601 63.0778 163.251 64.2472C163.919 65.4167 164.253 66.781 164.253 68.3403ZM159.38 67.0873C159.38 66.2706 159.102 65.6209 158.545 65.1382C157.988 64.6556 157.292 64.4143 156.457 64.4143C155.658 64.4143 154.981 64.6463 154.424 65.1104C153.886 65.5745 153.551 66.2334 153.422 67.0873H159.38Z" fill="#121212"/>
<path d="M171.918 63.4119C172.475 62.558 173.171 61.8897 174.006 61.4071C174.841 60.9059 175.769 60.6553 176.79 60.6553V65.6951H175.482C174.294 65.6951 173.403 65.955 172.809 66.4747C172.215 66.9759 171.918 67.8669 171.918 69.1478V76.3595H167.156V60.8223H171.918V63.4119Z" fill="#121212"/>
<path d="M178.525 68.5631C178.525 66.9667 178.822 65.5652 179.416 64.3586C180.029 63.152 180.855 62.2239 181.895 61.5742C182.934 60.9245 184.094 60.5996 185.375 60.5996C186.47 60.5996 187.426 60.8224 188.243 61.2679C189.078 61.7134 189.719 62.2981 190.164 63.0221V60.8224H194.926V76.3595H190.164V74.1598C189.7 74.8837 189.051 75.4685 188.215 75.914C187.398 76.3595 186.442 76.5822 185.347 76.5822C184.085 76.5822 182.934 76.2574 181.895 75.6077C180.855 74.9394 180.029 74.002 179.416 72.7954C178.822 71.5703 178.525 70.1595 178.525 68.5631ZM190.164 68.5909C190.164 67.4029 189.83 66.4655 189.162 65.7786C188.512 65.0918 187.714 64.7484 186.767 64.7484C185.821 64.7484 185.013 65.0918 184.345 65.7786C183.695 66.4469 183.37 67.3751 183.37 68.5631C183.37 69.7511 183.695 70.6978 184.345 71.4032C185.013 72.09 185.821 72.4334 186.767 72.4334C187.714 72.4334 188.512 72.09 189.162 71.4032C189.83 70.7164 190.164 69.7789 190.164 68.5909Z" fill="#121212"/>
<path d="M207.432 72.3226V76.3601H205.01C203.283 76.3601 201.937 75.9424 200.972 75.1071C200.007 74.2532 199.524 72.8703 199.524 70.9583V64.7768H197.631V60.823H199.524V57.0361H204.286V60.823H207.404V64.7768H204.286V71.014C204.286 71.478 204.397 71.8122 204.62 72.0164C204.843 72.2206 205.214 72.3226 205.734 72.3226H207.432Z" fill="#121212"/>
<path d="M225.12 68.3403C225.12 68.7858 225.092 69.2499 225.037 69.7325H214.261C214.335 70.6978 214.641 71.4403 215.18 71.9601C215.737 72.4613 216.414 72.7119 217.212 72.7119C218.4 72.7119 219.226 72.2107 219.691 71.2083H224.758C224.498 72.2292 224.025 73.1481 223.338 73.9649C222.67 74.7816 221.825 75.4221 220.804 75.8861C219.783 76.3502 218.642 76.5822 217.379 76.5822C215.857 76.5822 214.502 76.2574 213.314 75.6077C212.126 74.958 211.198 74.0298 210.53 72.8233C209.861 71.6167 209.527 70.2059 209.527 68.5909C209.527 66.976 209.852 65.5652 210.502 64.3586C211.17 63.152 212.098 62.2239 213.286 61.5742C214.474 60.9245 215.839 60.5996 217.379 60.5996C218.883 60.5996 220.22 60.9152 221.389 61.5463C222.558 62.1775 223.468 63.0778 224.118 64.2472C224.786 65.4167 225.12 66.781 225.12 68.3403ZM220.247 67.0873C220.247 66.2706 219.969 65.6209 219.412 65.1382C218.855 64.6556 218.159 64.4143 217.324 64.4143C216.526 64.4143 215.848 64.6463 215.291 65.1104C214.753 65.5745 214.419 66.2334 214.289 67.0873H220.247Z" fill="#121212"/>
<path d="M86.0491 62.5654H76.98C75.3105 62.5654 73.957 63.9189 73.957 65.5884V71.6345C73.957 73.304 75.3105 74.6575 76.98 74.6575H86.0491C87.7187 74.6575 89.0721 73.304 89.0721 71.6345V65.5884C89.0721 63.9189 87.7187 62.5654 86.0491 62.5654Z" stroke="#121212" stroke-width="3.02301"/>
<path d="M77.7363 64.8331C77.7363 56.7718 85.2939 56.7718 85.2939 64.8331" stroke="white" stroke-width="2.26726" stroke-linecap="round"/>
<path d="M77.7363 64.8331C77.7363 56.7718 85.2939 56.7718 85.2939 64.8331" stroke="#121212" stroke-width="1.51151" stroke-linecap="round"/>
</g>
</g>
<defs>
<filter id="filter0_d_221_482" x="0.000337601" y="0.000337601" width="269.697" height="132.687" filterUnits="userSpaceOnUse" color-interpolation-filters="sRGB">
<feFlood flood-opacity="0" result="BackgroundImageFix"/>
<feColorMatrix in="SourceAlpha" type="matrix" values="0 0 0 0 0 0 0 0 0 0 0 0 0 0 0 0 0 0 127 0" result="hardAlpha"/>
<feOffset/>
<feGaussianBlur stdDeviation="13.1717"/>
<feComposite in2="hardAlpha" operator="out"/>
<feColorMatrix type="matrix" values="0 0 0 0 0.0784314 0 0 0 0 0.0784314 0 0 0 0 0.0784314 0 0 0 0.1 0"/>
<feBlend mode="normal" in2="BackgroundImageFix" result="effect1_dropShadow_221_482"/>
<feBlend mode="normal" in="SourceGraphic" in2="effect1_dropShadow_221_482" result="shape"/>
</filter>
<clipPath id="clip0_221_482">
<rect width="180.734" height="21.1611" fill="white" transform="translate(44.4824 55.7637)"/>
</clipPath>
</defs>
</svg>
