<svg width="36" height="36" viewBox="0 0 36 36" fill="none" xmlns="http://www.w3.org/2000/svg">
<path d="M0 18C0 8.05888 8.05888 0 18 0C27.9411 0 36 8.05888 36 18C36 27.9411 27.9411 36 18 36C8.05888 36 0 27.9411 0 18Z" fill="#E8EC67"/>
<mask id="mask0_2088_2735" style="mask-type:luminance" maskUnits="userSpaceOnUse" x="9" y="9" width="18" height="18">
<path d="M18 25.5C18.9851 25.5012 19.9607 25.3078 20.8708 24.9308C21.7809 24.5538 22.6076 24.0007 23.3033 23.3033C24.0007 22.6076 24.5538 21.7809 24.9308 20.8708C25.3078 19.9607 25.5012 18.9851 25.5 18C25.5012 17.0149 25.3078 16.0393 24.9308 15.1292C24.5538 14.2191 24.0007 13.3924 23.3033 12.6968C22.6076 11.9993 21.7809 11.4462 20.8708 11.0692C19.9607 10.6922 18.9851 10.4988 18 10.5C17.0149 10.4988 16.0393 10.6922 15.1292 11.0692C14.2191 11.4462 13.3924 11.9993 12.6968 12.6968C11.9993 13.3924 11.4462 14.2191 11.0692 15.1292C10.6922 16.0393 10.4988 17.0149 10.5 18C10.4988 18.9851 10.6922 19.9607 11.0692 20.8708C11.4462 21.7809 11.9993 22.6076 12.6968 23.3033C13.3924 24.0007 14.2191 24.5538 15.1292 24.9308C16.0393 25.3078 17.0149 25.5012 18 25.5Z" fill="white" stroke="white" stroke-width="1.5" stroke-linejoin="round"/>
<path d="M15 18L17.25 20.25L21.75 15.75" stroke="black" stroke-width="1.5" stroke-linecap="round" stroke-linejoin="round"/>
</mask>
<g mask="url(#mask0_2088_2735)">
<path d="M9 9H27V27H9V9Z" fill="#4A6117"/>
</g>
</svg>
