<svg width="48" height="48" viewBox="0 0 48 48" fill="none" xmlns="http://www.w3.org/2000/svg">
<path d="M0 8C0 3.58172 3.58172 0 8 0H40C44.4183 0 48 3.58172 48 8V40C48 44.4183 44.4183 48 40 48H8C3.58172 48 0 44.4183 0 40V8Z" fill="#4A6117"/>
<g clip-path="url(#clip0_760_2156)">
<path d="M26.6994 18.2997C26.5161 18.4867 26.4135 18.738 26.4135 18.9997C26.4135 19.2615 26.5161 19.5128 26.6994 19.6997L28.2994 21.2997C28.4863 21.483 28.7376 21.5856 28.9994 21.5856C29.2611 21.5856 29.5124 21.483 29.6994 21.2997L33.4694 17.5297C33.9722 18.6409 34.1245 19.879 33.9058 21.0789C33.6872 22.2788 33.1081 23.3836 32.2456 24.246C31.3832 25.1084 30.2784 25.6876 29.0785 25.9062C27.8786 26.1248 26.6406 25.9726 25.5294 25.4697L18.6194 32.3797C18.2215 32.7776 17.682 33.0011 17.1194 33.0011C16.5568 33.0011 16.0172 32.7776 15.6194 32.3797C15.2215 31.9819 14.998 31.4423 14.998 30.8797C14.998 30.3171 15.2215 29.7776 15.6194 29.3797L22.5294 22.4697C22.0265 21.3585 21.8743 20.1205 22.0929 18.9206C22.3115 17.7207 22.8907 16.6159 23.7531 15.7535C24.6155 14.891 25.7203 14.3119 26.9202 14.0933C28.1201 13.8747 29.3582 14.0269 30.4694 14.5297L26.7094 18.2897L26.6994 18.2997Z" stroke="white" stroke-width="2" stroke-linecap="round" stroke-linejoin="round"/>
</g>
<defs>
<clipPath id="clip0_760_2156">
<rect width="24" height="24" fill="white" transform="translate(12 12)"/>
</clipPath>
</defs>
</svg>
