<svg width="48" height="48" viewBox="0 0 48 48" fill="none" xmlns="http://www.w3.org/2000/svg">
<path d="M0 8C0 3.58172 3.58172 0 8 0H40C44.4183 0 48 3.58172 48 8V40C48 44.4183 44.4183 48 40 48H8C3.58172 48 0 44.4183 0 40V8Z" fill="#4A6117"/>
<path d="M32 25.0004C32 30.0004 28.5 32.5005 24.34 33.9505C24.1222 34.0243 23.8855 34.0207 23.67 33.9405C19.5 32.5005 16 30.0004 16 25.0004V18.0004C16 17.7352 16.1054 17.4809 16.2929 17.2933C16.4804 17.1058 16.7348 17.0004 17 17.0004C19 17.0004 21.5 15.8004 23.24 14.2804C23.4519 14.0994 23.7214 14 24 14C24.2786 14 24.5481 14.0994 24.76 14.2804C26.51 15.8104 29 17.0004 31 17.0004C31.2652 17.0004 31.5196 17.1058 31.7071 17.2933C31.8946 17.4809 32 17.7352 32 18.0004V25.0004Z" stroke="white" stroke-width="2" stroke-linecap="round" stroke-linejoin="round"/>
</svg>
