<svg width="48" height="48" viewBox="0 0 48 48" fill="none" xmlns="http://www.w3.org/2000/svg">
<path d="M0 8C0 3.58172 3.58172 0 8 0H40C44.4183 0 48 3.58172 48 8V40C48 44.4183 44.4183 48 40 48H8C3.58172 48 0 44.4183 0 40V8Z" fill="#4A6117"/>
<path d="M31 23.001H17C15.8954 23.001 15 23.8964 15 25.001V32.001C15 33.1055 15.8954 34.001 17 34.001H31C32.1046 34.001 33 33.1055 33 32.001V25.001C33 23.8964 32.1046 23.001 31 23.001Z" stroke="white" stroke-width="2" stroke-linecap="round" stroke-linejoin="round"/>
<path d="M19 23V19C19 17.6739 19.5268 16.4021 20.4645 15.4645C21.4021 14.5268 22.6739 14 24 14C25.3261 14 26.5979 14.5268 27.5355 15.4645C28.4732 16.4021 29 17.6739 29 19V23" stroke="white" stroke-width="2" stroke-linecap="round" stroke-linejoin="round"/>
</svg>
