<svg width="48" height="48" viewBox="0 0 48 48" fill="none" xmlns="http://www.w3.org/2000/svg">
<path d="M0 8C0 3.58172 3.58172 0 8 0H40C44.4183 0 48 3.58172 48 8V40C48 44.4183 44.4183 48 40 48H8C3.58172 48 0 44.4183 0 40V8Z" fill="#4A6117"/>
<path d="M33.4188 22.9224C33.5978 22.8434 33.7498 22.7136 33.8558 22.5492C33.9617 22.3847 34.0172 22.1927 34.0151 21.9971C34.0131 21.8014 33.9537 21.6107 33.8444 21.4484C33.735 21.2862 33.5804 21.1596 33.3998 21.0844L24.8288 17.1804C24.5683 17.0615 24.2852 17 23.9988 17C23.7124 17 23.4294 17.0615 23.1688 17.1804L14.5988 21.0804C14.4208 21.1583 14.2693 21.2865 14.163 21.4492C14.0566 21.6119 14 21.802 14 21.9964C14 22.1907 14.0566 22.3809 14.163 22.5435C14.2693 22.7062 14.4208 22.8344 14.5988 22.9124L23.1688 26.8204C23.4294 26.9392 23.7124 27.0007 23.9988 27.0007C24.2852 27.0007 24.5683 26.9392 24.8288 26.8204L33.4188 22.9224Z" stroke="white" stroke-width="2" stroke-linecap="round" stroke-linejoin="round"/>
<path d="M34 22V28" stroke="white" stroke-width="2" stroke-linecap="round" stroke-linejoin="round"/>
<path d="M18 24.5V28C18 28.7956 18.6321 29.5587 19.7574 30.1213C20.8826 30.6839 22.4087 31 24 31C25.5913 31 27.1174 30.6839 28.2426 30.1213C29.3679 29.5587 30 28.7956 30 28V24.5" stroke="white" stroke-width="2" stroke-linecap="round" stroke-linejoin="round"/>
</svg>
