<svg width="48" height="48" viewBox="0 0 48 48" fill="none" xmlns="http://www.w3.org/2000/svg">
<path d="M0 8C0 3.58172 3.58172 0 8 0H40C44.4183 0 48 3.58172 48 8V40C48 44.4183 44.4183 48 40 48H8C3.58172 48 0 44.4183 0 40V8Z" fill="#4A6117"/>
<path d="M20 34C20.5523 34 21 33.5523 21 33C21 32.4477 20.5523 32 20 32C19.4477 32 19 32.4477 19 33C19 33.5523 19.4477 34 20 34Z" stroke="white" stroke-width="2" stroke-linecap="round" stroke-linejoin="round"/>
<path d="M31 34C31.5523 34 32 33.5523 32 33C32 32.4477 31.5523 32 31 32C30.4477 32 30 32.4477 30 33C30 33.5523 30.4477 34 31 34Z" stroke="white" stroke-width="2" stroke-linecap="round" stroke-linejoin="round"/>
<path d="M14.0488 14.0488H16.0488L18.7088 26.4688C18.8064 26.9237 19.0595 27.3303 19.4245 27.6187C19.7896 27.9071 20.2437 28.0592 20.7088 28.0488H30.4888C30.944 28.0481 31.3853 27.8921 31.7399 27.6067C32.0944 27.3212 32.341 26.9234 32.4388 26.4788L34.0888 19.0488H17.1188" stroke="white" stroke-width="2" stroke-linecap="round" stroke-linejoin="round"/>
</svg>
