<svg width="48" height="48" viewBox="0 0 48 48" fill="none" xmlns="http://www.w3.org/2000/svg">
<path d="M0 8C0 3.58172 3.58172 0 8 0H40C44.4183 0 48 3.58172 48 8V40C48 44.4183 44.4183 48 40 48H8C3.58172 48 0 44.4183 0 40V8Z" fill="#4A6117"/>
<path d="M33.002 27.002C33.002 27.5324 32.7912 28.0411 32.4162 28.4162C32.0411 28.7912 31.5324 29.002 31.002 29.002H19.002L15.002 33.002V17.002C15.002 16.4715 15.2127 15.9628 15.5877 15.5877C15.9628 15.2127 16.4715 15.002 17.002 15.002H31.002C31.5324 15.002 32.0411 15.2127 32.4162 15.5877C32.7912 15.9628 33.002 16.4715 33.002 17.002V27.002Z" stroke="white" stroke-width="2" stroke-linecap="round" stroke-linejoin="round"/>
</svg>
