<svg width="48" height="48" viewBox="0 0 48 48" fill="none" xmlns="http://www.w3.org/2000/svg">
<path d="M0 8C0 3.58172 3.58172 0 8 0H40C44.4183 0 48 3.58172 48 8V40C48 44.4183 44.4183 48 40 48H8C3.58172 48 0 44.4183 0 40V8Z" fill="#4A6117"/>
<path d="M30 17L27.586 14.586C27.211 14.2109 26.7024 14.0001 26.172 14H18C17.4696 14 16.9609 14.2107 16.5858 14.5858C16.2107 14.9609 16 15.4696 16 16V32C16 32.5304 16.2107 33.0391 16.5858 33.4142C16.9609 33.7893 17.4696 34 18 34H30C30.5304 34 31.0391 33.7893 31.4142 33.4142C31.7893 33.0391 32 32.5304 32 32" stroke="white" stroke-width="2" stroke-linecap="round" stroke-linejoin="round"/>
<path d="M33.379 24.6261C33.7773 24.2278 34.0011 23.6875 34.0011 23.1241C34.0011 22.5608 33.7773 22.0205 33.379 21.6221C32.9806 21.2238 32.4403 21 31.877 21C31.3136 21 30.7733 21.2238 30.375 21.6221L26.365 25.6341C26.1272 25.8718 25.9532 26.1655 25.859 26.4881L25.022 29.3581C24.9969 29.4442 24.9954 29.5354 25.0176 29.6222C25.0398 29.7091 25.085 29.7883 25.1484 29.8517C25.2118 29.9151 25.291 29.9603 25.3779 29.9825C25.4647 30.0048 25.5559 30.0032 25.642 29.9781L28.512 29.1411C28.8346 29.0469 29.1283 28.8729 29.366 28.6351L33.379 24.6261Z" stroke="white" stroke-width="2" stroke-linecap="round" stroke-linejoin="round"/>
<path d="M20 30H21" stroke="white" stroke-width="2" stroke-linecap="round" stroke-linejoin="round"/>
</svg>
