<svg width="48" height="48" viewBox="0 0 48 48" fill="none" xmlns="http://www.w3.org/2000/svg">
<path d="M0 8C0 3.58172 3.58172 0 8 0H40C44.4183 0 48 3.58172 48 8V40C48 44.4183 44.4183 48 40 48H8C3.58172 48 0 44.4183 0 40V8Z" fill="#E8EC67"/>
<path d="M29.5002 31H21.0002C19.702 30.9997 18.4296 30.6384 17.3249 29.9565C16.2203 29.2746 15.3271 28.2989 14.745 27.1386C14.163 25.9783 13.9151 24.679 14.029 23.3858C14.1429 22.0927 14.6141 20.8567 15.39 19.816C16.1659 18.7753 17.216 17.9708 18.4228 17.4925C19.6296 17.0142 20.9456 16.8809 22.2238 17.1075C23.502 17.3341 24.692 17.9116 25.6609 18.7756C26.6297 19.6396 27.3393 20.756 27.7102 22H29.5002C30.6936 22 31.8382 22.4741 32.6821 23.318C33.5261 24.1619 34.0002 25.3065 34.0002 26.5C34.0002 27.6935 33.5261 28.8381 32.6821 29.682C31.8382 30.5259 30.6936 31 29.5002 31Z" stroke="#4A6117" stroke-width="2" stroke-linecap="round" stroke-linejoin="round"/>
</svg>
