<svg width="48" height="48" viewBox="0 0 48 48" fill="none" xmlns="http://www.w3.org/2000/svg">
<path d="M0 8C0 3.58172 3.58172 0 8 0H40C44.4183 0 48 3.58172 48 8V40C48 44.4183 44.4183 48 40 48H8C3.58172 48 0 44.4183 0 40V8Z" fill="#E8EC67"/>
<path d="M30 16H18C16.8954 16 16 16.8954 16 18V30C16 31.1046 16.8954 32 18 32H30C31.1046 32 32 31.1046 32 30V18C32 16.8954 31.1046 16 30 16Z" stroke="#4A6117" stroke-width="2" stroke-linecap="round" stroke-linejoin="round"/>
<path d="M26 21H22C21.4477 21 21 21.4477 21 22V26C21 26.5523 21.4477 27 22 27H26C26.5523 27 27 26.5523 27 26V22C27 21.4477 26.5523 21 26 21Z" stroke="#4A6117" stroke-width="2" stroke-linecap="round" stroke-linejoin="round"/>
<path d="M27 14V16" stroke="#4A6117" stroke-width="2" stroke-linecap="round" stroke-linejoin="round"/>
<path d="M27 32V34" stroke="#4A6117" stroke-width="2" stroke-linecap="round" stroke-linejoin="round"/>
<path d="M14 27H16" stroke="#4A6117" stroke-width="2" stroke-linecap="round" stroke-linejoin="round"/>
<path d="M14 21H16" stroke="#4A6117" stroke-width="2" stroke-linecap="round" stroke-linejoin="round"/>
<path d="M32 27H34" stroke="#4A6117" stroke-width="2" stroke-linecap="round" stroke-linejoin="round"/>
<path d="M32 21H34" stroke="#4A6117" stroke-width="2" stroke-linecap="round" stroke-linejoin="round"/>
<path d="M21 14V16" stroke="#4A6117" stroke-width="2" stroke-linecap="round" stroke-linejoin="round"/>
<path d="M21 32V34" stroke="#4A6117" stroke-width="2" stroke-linecap="round" stroke-linejoin="round"/>
</svg>
